<?xml version="1.0" encoding="UTF-8"?>
<svg width="1440px" height="800px" viewBox="0 0 1440 800" version="1.1" xmlns="http://www.w3.org/2000/svg" xmlns:xlink="http://www.w3.org/1999/xlink">
    <title>bg</title>
    <defs>
        <linearGradient x1="0%" y1="81.2118354%" x2="82.4157322%" y2="81.2118354%" id="linearGradient-1">
            <stop stop-color="#F8682E" offset="0%"></stop>
            <stop stop-color="#FE8014" offset="100%"></stop>
        </linearGradient>
        <linearGradient x1="34.6149577%" y1="30.7687316%" x2="34.6149577%" y2="100%" id="linearGradient-2">
            <stop stop-color="#E11B7B" offset="0%"></stop>
            <stop stop-color="#EE4455" offset="100%"></stop>
        </linearGradient>
        <linearGradient x1="19.5214873%" y1="84.0908518%" x2="98.3194484%" y2="57.8307066%" id="linearGradient-3">
            <stop stop-color="#E11B7B" offset="0%"></stop>
            <stop stop-color="#ED4454" offset="100%"></stop>
        </linearGradient>
        <linearGradient x1="50%" y1="17.6220392%" x2="70.5425677%" y2="28.08325%" id="linearGradient-4">
            <stop stop-color="#ED4454" offset="0%"></stop>
            <stop stop-color="#FF8212" offset="100%"></stop>
        </linearGradient>
        <linearGradient x1="10.6355527%" y1="50%" x2="82.1653536%" y2="50%" id="linearGradient-5">
            <stop stop-color="#FF8212" offset="0%"></stop>
            <stop stop-color="#ED4454" offset="100%"></stop>
        </linearGradient>
    </defs>
    <g id="bg" stroke="none" stroke-width="1" fill="none" fill-rule="evenodd">
        <g id="logo" transform="translate(-321.000000, 99.000000)">
            <path d="M396,649.230769 C448.788873,649.230769 488.969938,607.764065 488.969938,560 L632,560 C632,689.55448 524.802866,792 396,792 L396,649.230769 Z" id="Path" fill="url(#linearGradient-1)"></path>
            <path d="M649.230769,399 C649.230769,349.76436 609.233911,309.769688 560,309.769688 L560,167 C688.084633,167 792,270.916023 792,399 L649.230769,399 Z" id="Path" fill="url(#linearGradient-2)"></path>
            <path d="M399,142.702682 C351.23618,142.702682 309.769688,183.211127 309.769688,236 L167,236 C167,107.197531 269.444203,0 399,0 L399,142.702682 Z" id="Path" fill="url(#linearGradient-3)"></path>
            <path d="M489.404882,233.67564 C489.404882,183.478878 448.659463,142.702758 398.500297,142.702758 L398.500297,0 C527.412045,0 632,104.666364 632,233.67564 C632,362.68452 527.412045,467.35128 398.500297,467.35128 C348.341131,467.35128 307.595711,508.1274 307.595711,558.32436 C307.595711,608.52132 348.341131,649.29744 398.500297,649.29744 L398.500297,792 C269.588549,792 165,687.33324 165,558.32436 C165,429.31548 269.588549,324.64872 398.500297,324.64872 C448.659463,324.64872 489.404882,283.8726 489.404882,233.67564 Z" id="Path" fill="url(#linearGradient-4)"></path>
            <path d="M233.67564,307.595711 C183.478878,307.595711 142.702758,348.341131 142.702758,398.500297 L0,398.500297 C0,269.588549 104.666364,165 233.67564,165 C362.68452,165 467.35128,269.588549 467.35128,398.500297 C467.35128,448.659463 508.1274,489.404882 558.32436,489.404882 C608.52132,489.404882 649.29744,448.659463 649.29744,398.500297 L792,398.500297 C792,527.412045 687.33324,632 558.32436,632 C429.31548,632 324.64872,527.412045 324.64872,398.500297 C324.64872,348.341131 283.8726,307.595711 233.67564,307.595711 Z" id="Path" fill="url(#linearGradient-5)"></path>
        </g>
    </g>
</svg>