<?xml version="1.0" encoding="UTF-8"?>
<svg width="32px" height="32px" viewBox="0 0 32 32" version="1.1" xmlns="http://www.w3.org/2000/svg" xmlns:xlink="http://www.w3.org/1999/xlink">
    <title>coinIcon/CLV</title>
    <defs>
        <linearGradient x1="34.6149577%" y1="30.7687316%" x2="34.6149577%" y2="100%" id="linearGradient-1">
            <stop stop-color="#E11B7B" offset="0%"></stop>
            <stop stop-color="#EE4455" offset="100%"></stop>
        </linearGradient>
        <linearGradient x1="65.1514897%" y1="0%" x2="65.1514897%" y2="69.6970207%" id="linearGradient-2">
            <stop stop-color="#FB822A" offset="0%"></stop>
            <stop stop-color="#FB822A" offset="100%"></stop>
        </linearGradient>
        <linearGradient x1="19.4097069%" y1="84.0908518%" x2="98.4966607%" y2="40.1514476%" id="linearGradient-3">
            <stop stop-color="#E11B7B" offset="0%"></stop>
            <stop stop-color="#EF4A4E" offset="100%"></stop>
        </linearGradient>
        <linearGradient x1="50.1329401%" y1="9.009025%" x2="70.5735361%" y2="28.08325%" id="linearGradient-4">
            <stop stop-color="#ED4454" offset="0%"></stop>
            <stop stop-color="#FF8212" offset="100%"></stop>
        </linearGradient>
        <linearGradient x1="0%" y1="32.5896453%" x2="106.0215%" y2="41.0099896%" id="linearGradient-5">
            <stop stop-color="#FF8212" offset="0%"></stop>
            <stop stop-color="#ED4454" offset="100%"></stop>
        </linearGradient>
    </defs>
    <g id="coinIcon/CLV" stroke="none" stroke-width="1" fill="none" fill-rule="evenodd">
        <circle id="Oval" fill="#FDEDED" cx="16" cy="16" r="16"></circle>
        <g id="Logo_Icon_black">
            <rect id="Rectangle" fill="#FFFFFF" opacity="0" x="0" y="0" width="32" height="32"></rect>
            <g id="logo" transform="translate(4.000000, 4.000000)">
                <path d="M12,19.67568 C13.596,19.67568 14.81082,18.4197 14.81082,16.97298 L19.13514,16.97298 C19.13514,20.89704 15.89418,24 12,24 L12,19.67568 Z" id="Path" fill="#FB822A"></path>
                <path d="M19.67568,12.10812 C19.67568,10.61682 18.46422,9.40542 16.97298,9.40542 L16.97298,5.081064 C20.85252,5.081064 24,8.22858 24,12.10812 L19.67568,12.10812 Z" id="Path" fill="url(#linearGradient-1)"></path>
                <path d="M4.324326,12 C4.324326,13.55094 5.584182,14.81082 7.13514,14.81082 L7.13514,19.13514 C3.195924,19.13514 0,15.93924 0,12 L4.324326,12 Z" id="Path" fill="url(#linearGradient-2)"></path>
                <path d="M12.10812,4.324326 C10.6614,4.324326 9.40542,5.53914 9.40542,7.13514 L5.081064,7.13514 C5.081064,3.240972 8.184,0 12.10812,0 L12.10812,4.324326 Z" id="Path" fill="url(#linearGradient-3)"></path>
                <path d="M14.81082,7.08108 C14.81082,5.559966 13.57518,4.324326 12.05406,4.324326 L12.05406,0 C15.96342,0 19.13514,3.171708 19.13514,7.08108 C19.13514,10.99044 15.96342,14.16216 12.05406,14.16216 C10.53294,14.16216 9.2973,15.3978 9.2973,16.91892 C9.2973,18.44004 10.53294,19.67568 12.05406,19.67568 L12.05406,24 C8.1447,24 4.972962,20.82828 4.972962,16.91892 C4.972962,13.00956 8.1447,9.83784 12.05406,9.83784 C13.57518,9.83784 14.81082,8.6022 14.81082,7.08108 Z" id="Path" fill="url(#linearGradient-4)"></path>
                <path d="M7.08108,9.2973 C5.559966,9.2973 4.324326,10.53294 4.324326,12.05406 L0,12.05406 C0,8.1447 3.171708,4.972962 7.08108,4.972962 C10.99044,4.972962 14.16216,8.1447 14.16216,12.05406 C14.16216,13.57518 15.3978,14.81082 16.91892,14.81082 C18.44004,14.81082 19.67568,13.57518 19.67568,12.05406 L24,12.05406 C24,15.96342 20.82828,19.13514 16.91892,19.13514 C13.00956,19.13514 9.83784,15.96342 9.83784,12.05406 C9.83784,10.53294 8.6022,9.2973 7.08108,9.2973 Z" id="Path" fill="url(#linearGradient-5)"></path>
            </g>
        </g>
    </g>
</svg>