<?xml version="1.0" encoding="UTF-8"?>
<svg width="50px" height="50px" viewBox="0 0 50 50" version="1.1" xmlns="http://www.w3.org/2000/svg" xmlns:xlink="http://www.w3.org/1999/xlink">
    <title>walletIcon/Lunie</title>
    <g id="walletIcon/Lunie" stroke="none" stroke-width="1" fill="none" fill-rule="evenodd">
        <circle id="Oval" fill="#343E60" cx="25" cy="25" r="25"></circle>
        <path d="M43,25.0757 C43,34.0552 36.0622,41.491 27.1552,42.1469 C26.0171,42.2307 25.0265,41.3761 24.9427,40.238 C24.8589,39.0999 25.7135,38.1093 26.8516,38.0255 C33.6037,37.5282 38.8675,31.8868 38.8675,25.0757 C38.8675,18.2702 33.6121,12.63156 26.8668,12.12693 C25.7288,12.0418 24.8753,11.05025 24.9604,9.91224 C25.0455,8.774241 26.0371,7.9207175 27.1751,8.00585391 C36.0733,8.671549 43,16.1035 43,25.0757 Z M19.2352,13.47348 C20.6397,13.47348 21.7783,12.33488 21.7783,10.93035 C21.7783,9.52581 20.6397,8.387209 19.2352,8.387209 C17.8306,8.387209 16.69204,9.52581 16.69204,10.93035 C16.69204,12.33488 17.8306,13.47348 19.2352,13.47348 Z M15.0785,16.2282 C15.0785,17.63273 13.9399,18.7713 12.53537,18.7713 C11.13084,18.7713 9.99224,17.63273 9.99224,16.2282 C9.99224,14.82366 11.13084,13.68506 12.53537,13.68506 C13.9399,13.68506 15.0785,14.82366 15.0785,16.2282 Z M9.54313,27.099 C10.94767,27.099 12.08627,25.9604 12.08627,24.5558 C12.08627,23.1513 10.94767,22.0127 9.54313,22.0127 C8.1386,22.0127 7,23.1513 7,24.5558 C7,25.9604 8.1386,27.099 9.54313,27.099 Z M15.0785,33.5246 C15.0785,34.9291 13.9399,36.0677 12.53537,36.0677 C11.13084,36.0677 9.99224,34.9291 9.99224,33.5246 C9.99224,32.12 11.13084,30.9814 12.53537,30.9814 C13.9399,30.9814 15.0785,32.12 15.0785,33.5246 Z M21.7783,38.8229 C21.7783,40.2275 20.6397,41.3661 19.2352,41.3661 C17.8306,41.3661 16.69204,40.2275 16.69204,38.8229 C16.69204,37.4184 17.8306,36.2798 19.2352,36.2798 C20.6397,36.2798 21.7783,37.4184 21.7783,38.8229 Z" id="Shape" fill="#ADB8DF"></path>
    </g>
</svg>