<?xml version="1.0" encoding="UTF-8"?>
<svg width="50px" height="50px" viewBox="0 0 50 50" version="1.1" xmlns="http://www.w3.org/2000/svg" xmlns:xlink="http://www.w3.org/1999/xlink">
    <title>walletIcon/Math</title>
    <g id="walletIcon/Math" stroke="none" stroke-width="1" fill="none" fill-rule="evenodd">
        <circle id="Oval" fill="#000000" cx="25" cy="25" r="25"></circle>
        <path d="M33.8669019,22.486704 C33.1148532,21.7576946 33.1148532,20.5757369 33.8669019,19.8467276 C34.6189505,19.1177182 35.8382624,19.1177182 36.590311,19.8467276 C37.3423598,20.5757369 37.3423598,21.7576946 36.590311,22.486704 C35.8382624,23.2157133 34.6189505,23.2157133 33.8669019,22.486704 Z M27.3988051,28.756648 C26.8347686,28.209891 26.8347686,27.3234227 27.3988051,26.7766657 C27.9628416,26.2299087 28.8773254,26.2299087 29.4413619,26.7766657 C30.0053984,27.3234227 30.0053984,28.209891 29.4413619,28.756648 C28.8773254,29.303405 27.9628416,29.303405 27.3988051,28.756648 Z M37.6115896,25.4566775 C37.0475528,24.9099205 37.0475528,24.0234522 37.6115896,23.4766951 C38.1756261,22.9299381 39.0901099,22.9299381 39.6541464,23.4766951 C40.2181828,24.0234522 40.2181828,24.9099205 39.6541464,25.4566775 C39.0901099,26.0034345 38.1756261,26.0034345 37.6115896,25.4566775 Z M34.207328,28.756648 C33.6432915,28.209891 33.6432915,27.3234227 34.207328,26.7766657 C34.7713645,26.2299087 35.6858484,26.2299087 36.2498849,26.7766657 C36.8139214,27.3234227 36.8139214,28.209891 36.2498849,28.756648 C35.6858484,29.303405 34.7713645,29.303405 34.207328,28.756648 Z M41.3562769,28.426651 C40.9802526,28.0621463 40.9802526,27.4711674 41.3562769,27.1066627 C41.7323015,26.7421581 42.3419572,26.7421581 42.7179815,27.1066627 C43.0940062,27.4711674 43.0940062,28.0621463 42.7179815,28.426651 C42.3419572,28.7911556 41.7323015,28.7911556 41.3562769,28.426651 Z M37.9520155,31.7266215 C37.5759912,31.3621168 37.5759912,30.771138 37.9520155,30.4066333 C38.3280398,30.0421286 38.9376959,30.0421286 39.3137201,30.4066333 C39.6897444,30.771138 39.6897444,31.3621168 39.3137201,31.7266215 C38.9376959,32.0911262 38.3280398,32.0911262 37.9520155,31.7266215 Z M30.4626404,25.7866745 C29.7105917,25.0576652 29.7105917,23.8757075 30.4626404,23.1466981 C31.2146891,22.4176887 32.4340009,22.4176887 33.1860496,23.1466981 C33.9380982,23.8757075 33.9380982,25.0576652 33.1860496,25.7866745 C32.4340009,26.5156839 31.2146891,26.5156839 30.4626404,25.7866745 Z M30.4626404,19.1867335 C29.7105917,18.4577241 29.7105917,17.2757664 30.4626404,16.546757 C31.2146891,15.8177477 32.4340009,15.8177477 33.1860496,16.546757 C33.9380982,17.2757664 33.9380982,18.4577241 33.1860496,19.1867335 C32.4340009,19.9157428 31.2146891,19.9157428 30.4626404,19.1867335 Z M27.0583789,22.486704 C26.3063302,21.7576946 26.3063302,20.5757369 27.0583789,19.8467276 C27.8104276,19.1177182 29.0297394,19.1177182 29.7817881,19.8467276 C30.5338367,20.5757369 30.5338367,21.7576946 29.7817881,22.486704 C29.0297394,23.2157133 27.8104276,23.2157133 27.0583789,22.486704 Z M20.2182118,22.486704 C19.4661632,21.7576946 19.4661632,20.5757369 20.2182118,19.8467276 C20.9702605,19.1177182 22.1895723,19.1177182 22.941621,19.8467276 C23.6936697,20.5757369 23.6936697,21.7576946 22.941621,22.486704 C22.1895723,23.2157133 20.9702605,23.2157133 20.2182118,22.486704 Z M13.7501151,28.756648 C13.1860785,28.209891 13.1860785,27.3234227 13.7501151,26.7766657 C14.3141516,26.2299087 15.2286354,26.2299087 15.7926719,26.7766657 C16.3567084,27.3234227 16.3567084,28.209891 15.7926719,28.756648 C15.2286354,29.303405 14.3141516,29.303405 13.7501151,28.756648 Z M23.9628994,25.4566775 C23.3988629,24.9099205 23.3988629,24.0234522 23.9628994,23.4766951 C24.5269359,22.9299381 25.4414198,22.9299381 26.0054563,23.4766951 C26.5694928,24.0234522 26.5694928,24.9099205 26.0054563,25.4566775 C25.4414198,26.0034345 24.5269359,26.0034345 23.9628994,25.4566775 Z M20.558638,28.756648 C19.9946015,28.209891 19.9946015,27.3234227 20.558638,26.7766657 C21.1226745,26.2299087 22.0371584,26.2299087 22.6011949,26.7766657 C23.1652314,27.3234227 23.1652314,28.209891 22.6011949,28.756648 C22.0371584,29.303405 21.1226745,29.303405 20.558638,28.756648 Z M7.28201825,28.426651 C6.90599392,28.0621463 6.90599392,27.4711674 7.28201825,27.1066627 C7.65804258,26.7421581 8.26769851,26.7421581 8.64372284,27.1066627 C9.01974717,27.4711674 9.01974717,28.0621463 8.64372284,28.426651 C8.26769851,28.7911556 7.65804258,28.7911556 7.28201825,28.426651 Z M10.6862797,31.7266215 C10.3102554,31.3621168 10.3102554,30.771138 10.6862797,30.4066333 C11.0623041,30.0421286 11.67196,30.0421286 12.0479843,30.4066333 C12.4240087,30.771138 12.4240087,31.3621168 12.0479843,31.7266215 C11.67196,32.0911262 11.0623041,32.0911262 10.6862797,31.7266215 Z M24.3033256,31.7266215 C23.9273013,31.3621168 23.9273013,30.771138 24.3033256,30.4066333 C24.6793499,30.0421286 25.2890058,30.0421286 25.6650302,30.4066333 C26.0410545,30.771138 26.0410545,31.3621168 25.6650302,31.7266215 C25.2890058,32.0911262 24.6793499,32.0911262 24.3033256,31.7266215 Z M10.3458536,25.4566775 C9.78181706,24.9099205 9.78181706,24.0234522 10.3458536,23.4766951 C10.9098901,22.9299381 11.824374,22.9299381 12.3884105,23.4766951 C12.952447,24.0234522 12.952447,24.9099205 12.3884105,25.4566775 C11.824374,26.0034345 10.9098901,26.0034345 10.3458536,25.4566775 Z M16.8139504,25.7866745 C16.0619017,25.0576652 16.0619017,23.8757075 16.8139504,23.1466981 C17.5659991,22.4176887 18.7853109,22.4176887 19.5373595,23.1466981 C20.2894082,23.8757075 20.2894082,25.0576652 19.5373595,25.7866745 C18.7853109,26.5156839 17.5659991,26.5156839 16.8139504,25.7866745 Z M16.8139504,19.1867335 C16.0619017,18.4577241 16.0619017,17.2757664 16.8139504,16.546757 C17.5659991,15.8177477 18.7853109,15.8177477 19.5373595,16.546757 C20.2894082,17.2757664 20.2894082,18.4577241 19.5373595,19.1867335 C18.7853109,19.9157428 17.5659991,19.9157428 16.8139504,19.1867335 Z M13.4096889,22.486704 C12.6576402,21.7576946 12.6576402,20.5757369 13.4096889,19.8467276 C14.1617376,19.1177182 15.3810494,19.1177182 16.1330981,19.8467276 C16.8851467,20.5757369 16.8851467,21.7576946 16.1330981,22.486704 C15.3810494,23.2157133 14.1617376,23.2157133 13.4096889,22.486704 Z" id="Combined-Shape" fill="#FFFFFF" fill-rule="nonzero"></path>
    </g>
</svg>