<?xml version="1.0" encoding="UTF-8"?>
<svg width="32px" height="32px" viewBox="0 0 32 32" version="1.1" xmlns="http://www.w3.org/2000/svg" xmlns:xlink="http://www.w3.org/1999/xlink">
    <title>coinIcon/dai</title>
    <g id="coinIcon/dai" stroke="none" stroke-width="1" fill="none" fill-rule="evenodd">
        <circle id="Oval" fill="#FCF0DC" cx="16" cy="16" r="16"></circle>
        <path d="M17.262709,17.5463905 L23.6565718,17.5463905 C23.7928692,17.5463905 23.8572319,17.5463905 23.8670756,17.3676894 C23.9193229,16.7172479 23.9193229,16.0630203 23.8670756,15.4118216 C23.8670756,15.2853679 23.8042274,15.2331206 23.6671727,15.2331206 L10.9422954,15.2331206 C10.7847962,15.2331206 10.7423925,15.2853679 10.7423925,15.4330234 L10.7423925,17.3048412 C10.7423925,17.5463905 10.7423925,17.5463905 10.9945427,17.5463905 L17.262709,17.5463905 L17.262709,17.5463905 Z M23.1530286,13.0455472 C23.1712016,12.9978431 23.1712016,12.9455958 23.1530286,12.8986489 C23.0462623,12.6661861 22.9198086,12.4443242 22.7729103,12.236092 C22.5518056,11.8802044 22.2913261,11.5523334 21.9945007,11.2577795 C21.8544172,11.0798357 21.6923748,10.9200649 21.5106449,10.7845247 C20.6004811,10.0099011 19.5184311,9.46168261 18.3553599,9.18605896 C17.7685239,9.0543048 17.1688153,8.99145655 16.5675923,8.99675701 L10.9203364,8.99675701 C10.7628372,8.99675701 10.7416353,9.05960526 10.7416353,9.19665987 L10.7416353,12.9296944 C10.7416353,13.0871936 10.7416353,13.1295973 10.9415382,13.1295973 L23.0773079,13.1295973 C23.0773079,13.1295973 23.1825597,13.1083954 23.2037616,13.0455472 L23.1522714,13.0455472 L23.1530286,13.0455472 Z M23.1530286,19.7339638 C22.9743276,19.7142764 22.7941121,19.7142764 22.6154111,19.7339638 L10.9528963,19.7339638 C10.7953971,19.7339638 10.7423925,19.7339638 10.7423925,19.9444676 L10.7423925,23.5942093 C10.7423925,23.7623094 10.7423925,23.804713 10.9528963,23.804713 L16.3374011,23.804713 C16.5948518,23.8244004 16.8523024,23.8062275 17.1044526,23.7524657 C17.8858911,23.6964323 18.654457,23.5268178 19.3874342,23.2474081 C19.6539713,23.1550287 19.911422,23.0346327 20.1544857,22.890006 L20.2279348,22.890006 C21.4902003,22.2335068 22.5154597,21.2021898 23.1621151,19.9361383 C23.1621151,19.9361383 23.2355643,19.7771247 23.1530286,19.7354782 L23.1530286,19.7339638 Z M8.62902553,25.6969754 L8.62902553,25.6341271 L8.62902553,23.1838026 L8.62902553,22.3531457 L8.62902553,19.8816194 C8.62902553,19.7445647 8.62902553,19.7241201 8.4609254,19.7241201 L6.17870104,19.7241201 C6.05224734,19.7241201 6,19.7241201 6,19.55602 L6,17.5577486 L8.43972358,17.5577486 C8.57602099,17.5577486 8.62902553,17.5577486 8.62902553,17.3790475 L8.62902553,15.4019779 C8.62902553,15.2755242 8.62902553,15.2444787 8.4609254,15.2444787 L6.17870104,15.2444787 C6.05224734,15.2444787 6,15.2444787 6,15.0763786 L6,13.2257627 C6,13.1099099 6,13.0788643 6.16810013,13.0788643 L8.42912267,13.0788643 C8.5866219,13.0788643 8.62902553,13.0788643 8.62902553,12.8789615 L8.62902553,7.21050377 C8.62902553,7.04240364 8.62902553,7 8.83952931,7 L16.7266059,7 C17.299055,7.02271623 17.8677181,7.08556448 18.4303235,7.18930195 C19.5896087,7.40359177 20.7034614,7.81778444 21.7219059,8.40916374 C22.3973352,8.80669785 23.0190029,9.2867676 23.5725218,9.83952931 C23.9889861,10.271895 24.3645611,10.7398494 24.6977326,11.2380921 C25.0286324,11.7431498 25.3034988,12.2830389 25.5193031,12.8471587 C25.5458053,12.9940571 25.686646,13.0932513 25.8335443,13.0682634 L27.7159629,13.0682634 C27.9575122,13.0682634 27.9575122,13.0682634 27.9681131,13.299969 L27.9681131,15.0248884 C27.9681131,15.1929886 27.9052649,15.2353922 27.7364075,15.2353922 L26.2848402,15.2353922 C26.1379418,15.2353922 26.0955382,15.2353922 26.1061391,15.4246942 C26.1636869,16.065292 26.1636869,16.7081614 26.1061391,17.3487592 C26.1061391,17.5274603 26.1061391,17.5486621 26.3067992,17.5486621 L27.9673559,17.5486621 C28.0408051,17.6433131 27.9673559,17.737964 27.9673559,17.8333722 C27.9779568,17.9552827 27.9779568,18.0787075 27.9673559,18.200618 L27.9673559,19.4734843 C27.9673559,19.6521854 27.9151086,19.7051899 27.7568522,19.7051899 L25.7691816,19.7051899 C25.6306126,19.6786877 25.4958296,19.767281 25.4640269,19.9050928 C24.990772,21.1355555 24.2335642,22.2388073 23.2552517,23.123226 C22.8978496,23.4450393 22.5222745,23.7479225 22.1300409,24.0273321 C21.7090333,24.2696386 21.2993839,24.5217888 20.8677755,24.7216917 C20.0734645,25.0790938 19.2405359,25.3426021 18.3856482,25.509945 C17.5739215,25.6553289 16.7508366,25.721206 15.9247228,25.7098479 L8.6259967,25.7098479 L8.6259967,25.699247 L8.62902553,25.6969754 Z" id="Shape" fill="#F47320" fill-rule="nonzero"></path>
    </g>
</svg>