<?xml version="1.0" encoding="UTF-8"?>
<svg width="50px" height="50px" viewBox="0 0 50 50" version="1.1" xmlns="http://www.w3.org/2000/svg" xmlns:xlink="http://www.w3.org/1999/xlink">
    <title>walletIcon/imToken</title>
    <defs>
        <linearGradient x1="94.0063812%" y1="-0.34678509%" x2="-3.19433567%" y2="96.7787023%" id="linearGradient-1">
            <stop stop-color="#11C4D1" offset="0%"></stop>
            <stop stop-color="#0062AD" offset="100%"></stop>
        </linearGradient>
    </defs>
    <g id="walletIcon/imToken" stroke="none" stroke-width="1" fill="none" fill-rule="evenodd">
        <circle id="Oval" fill="url(#linearGradient-1)" cx="25" cy="25" r="25"></circle>
        <path d="M42.9060424,12.8871366 C44.0955959,28.9731453 33.768108,36.5700671 24.494997,37.3811264 C15.8707335,38.138115 7.76014087,32.8391945 7.05722284,24.7015665 C6.46244605,17.9697746 10.6258836,15.1310672 13.897156,14.8336788 C17.2495343,14.5362904 20.0612064,16.861327 20.3045242,19.6459638 C20.547842,22.3494947 18.8716528,23.5660836 17.6820992,23.6742248 C16.7628987,23.7553307 15.6003804,23.1875892 15.4922392,21.9980357 C15.4111333,20.9706939 15.7896276,20.8084821 15.7085217,19.7270697 C15.5463098,17.7805275 13.8160501,17.5372097 12.8968496,17.6183156 C11.7613666,17.7264569 9.70668311,19.051187 10.0040715,22.3224594 C10.3014599,25.6478024 13.464591,28.2702273 17.6550639,27.891733 C22.1429252,27.4862034 25.279021,23.9986485 25.5223388,19.0782223 C25.5223388,18.8078692 25.5764094,18.5645514 25.6845506,18.3212337 L25.6845506,18.3212337 C25.7386212,18.2130924 25.7926919,18.1319865 25.8467625,18.0238453 C25.9549037,17.8886687 26.063045,17.7264569 26.2252568,17.5372097 C26.2252568,17.5372097 26.2252568,17.5372097 26.2252568,17.5372097 C26.333398,17.4020332 26.4685746,17.2668566 26.6307864,17.1046448 C28.604364,15.2392085 35.6876149,10.8865237 42.3653362,12.2653245 C42.6897599,12.3464304 42.9060424,12.5897482 42.9060424,12.8871366" id="Path" fill="#FFFFFF"></path>
    </g>
</svg>