<?xml version="1.0" encoding="UTF-8"?>
<svg width="32px" height="32px" viewBox="0 0 32 32" version="1.1" xmlns="http://www.w3.org/2000/svg" xmlns:xlink="http://www.w3.org/1999/xlink">
    <title>coinIcon/dot</title>
    <g id="coinIcon/dot" stroke="none" stroke-width="1" fill="none" fill-rule="evenodd">
        <circle id="Oval" fill="#FDEDED" cx="16" cy="16" r="16"></circle>
        <g id="Polkadot_symbol_color" transform="translate(7.000000, 4.000000)" fill="#E6007A">
            <path d="M9.02970297,0.166336634 C4.08712871,0.166336634 0.0475247525,4.18217822 0.0475247525,9.14851485 C0.0475247525,10.1465347 0.213861386,11.1207921 0.522772277,12.0712871 C0.736633663,12.7128713 1.44950495,13.0693069 2.11485149,12.8554455 C2.75643564,12.6415842 3.11287129,11.9287129 2.8990099,11.2633663 C2.63762376,10.5267327 2.51881188,9.74257426 2.54257426,8.95841584 C2.63762376,5.60792079 5.34653465,2.85148515 8.6970297,2.68514851 C12.4277228,2.4950495 15.5168317,5.46534653 15.5168317,9.14851485 C15.5168317,12.5940594 12.8079208,15.4217822 9.40990099,15.6118812 C9.40990099,15.6118812 8.15049505,15.6831683 7.53267327,15.7782178 C7.22376238,15.8257426 6.98613861,15.8732673 6.81980198,15.8970297 C6.74851485,15.9207921 6.67722772,15.849505 6.7009901,15.7782178 L6.91485149,14.7326733 L8.07920792,9.36237624 C8.22178218,8.6970297 7.79405941,8.03168317 7.12871287,7.88910891 C6.46336634,7.74653465 5.7980198,8.17425743 5.65544554,8.83960396 C5.65544554,8.83960396 2.85148515,21.9089109 2.82772277,22.0514851 C2.68514851,22.7168317 3.11287129,23.3821782 3.77821782,23.5247525 C4.44356436,23.6673267 5.10891089,23.239604 5.25148515,22.5742574 C5.27524752,22.4316832 5.65544554,20.6970297 5.65544554,20.6970297 C5.94059406,19.3663366 7.03366337,18.3920792 8.31683168,18.2257426 C8.6019802,18.1782178 9.71881188,18.1069307 9.71881188,18.1069307 C14.3524752,17.750495 18.0118812,13.8772277 18.0118812,9.14851485 C18.0118812,4.18217822 13.9722772,0.166336634 9.02970297,0.166336634 Z" id="Path"></path>
            <path d="M9.67128713,20.839604 C8.86336634,20.6732673 8.05544554,21.1722772 7.88910891,22.0039604 C7.72277228,22.8118812 8.22178218,23.619802 9.05346535,23.7861386 C9.86138614,23.9524752 10.6693069,23.4534653 10.8356436,22.6217822 C11.0019802,21.790099 10.5029703,21.0059406 9.67128713,20.839604 Z" id="Path"></path>
        </g>
        <g id="Logo_Icon_black" fill="#FFFFFF" opacity="0">
            <rect id="Rectangle" x="0" y="0" width="32" height="32"></rect>
        </g>
    </g>
</svg>