<?xml version="1.0" encoding="UTF-8"?>
<svg width="50px" height="50px" viewBox="0 0 50 50" version="1.1" xmlns="http://www.w3.org/2000/svg" xmlns:xlink="http://www.w3.org/1999/xlink">
    <title>walletIcon/Polkadot</title>
    <g id="walletIcon/Polkadot" stroke="none" stroke-width="1" fill="none" fill-rule="evenodd">
        <g id="Group">
            <circle id="Oval" fill="#FF8C00" cx="25" cy="25" r="25"></circle>
            <g id="Polkadot_symbol_color" transform="translate(11.000000, 6.000000)" fill="#FFFFFF">
                <path d="M14.2574257,0.263366337 C6.45336113,0.263366337 0.0750390829,6.62178218 0.0750390829,14.4851485 C0.0750390829,16.0653465 0.337675873,17.6079208 0.825429911,19.1128713 C1.16310578,20.1287129 2.28869203,20.6930693 3.33923919,20.3544554 C4.35226681,20.0158416 4.91505993,18.8871287 4.57738405,17.8336634 C4.1646691,16.6673267 3.97707139,15.4257426 4.01459093,14.1841584 C4.1646691,8.87920792 8.44189682,4.51485149 13.7321522,4.25148515 C19.6227202,3.95049505 24.5002606,8.65346535 24.5002606,14.4851485 C24.5002606,19.9405941 20.2230328,24.4178218 14.8577384,24.7188119 C14.8577384,24.7188119 12.8692027,24.8316832 11.8936946,24.9821782 C11.4059406,25.0574257 11.0307452,25.1326733 10.7681084,25.170297 C10.6555498,25.2079208 10.5429911,25.0950495 10.5805107,24.9821782 L10.9181866,23.3267327 L12.7566441,14.8237624 C12.9817613,13.770297 12.3064096,12.7168317 11.2558624,12.4910891 C10.2053153,12.2653465 9.15476811,12.9425743 8.92965086,13.9960396 C8.92965086,13.9960396 4.50234497,34.6891089 4.46482543,34.9148515 C4.23970818,35.9683168 4.91505993,37.0217822 5.96560709,37.2475248 C7.01615425,37.4732673 8.06670141,36.7960396 8.29181866,35.7425743 C8.3293382,35.5168317 8.92965086,32.770297 8.92965086,32.770297 C9.37988536,30.6633663 11.1057843,29.1207921 13.1318395,28.8574257 C13.582074,28.7821782 15.3454924,28.6693069 15.3454924,28.6693069 C22.661803,28.1049505 28.4398124,21.9722772 28.4398124,14.4851485 C28.4398124,6.62178218 22.0614904,0.263366337 14.2574257,0.263366337 Z" id="Path"></path>
                <path d="M15.2704534,32.9960396 C13.994789,32.7326733 12.7191245,33.5227723 12.4564878,34.839604 C12.193851,36.1188119 12.9817613,37.3980198 14.2949453,37.6613861 C15.5706097,37.9247525 16.8462741,37.1346535 17.1089109,35.8178218 C17.3715477,34.5009901 16.5836373,33.2594059 15.2704534,32.9960396 Z" id="Path"></path>
            </g>
        </g>
    </g>
</svg>
