<?xml version="1.0" encoding="UTF-8"?>
<svg width="32px" height="32px" viewBox="0 0 32 32" version="1.1" xmlns="http://www.w3.org/2000/svg" xmlns:xlink="http://www.w3.org/1999/xlink">
    <title>coinIcon/USDT</title>
    <g id="coinIcon/USDT" stroke="none" stroke-width="1" fill="none" fill-rule="evenodd">
        <circle id="Oval" fill="#E7F9F0" cx="16" cy="16" r="16"></circle>
        <path d="M18.4415929,16.8835172 L18.4415929,16.8835172 C18.3052228,16.893745 17.600644,16.9357924 16.0289786,16.9357924 C14.7789195,16.9357924 13.8913774,16.8982906 13.5799991,16.8835172 L13.5799991,16.8835172 C8.7490885,16.6710071 5.14323595,15.8300582 5.14323595,14.8231924 C5.14323595,13.8163265 8.7490885,12.976514 13.5799991,12.7605947 L13.5799991,16.0459776 C13.8959231,16.0687059 14.8005114,16.1221175 16.0505706,16.1221175 C17.5506416,16.1221175 18.3018135,16.0596146 18.4370472,16.047114 L18.4370472,12.7628676 C23.25773,12.9776505 26.8556276,13.8185994 26.8556276,14.8231924 C26.8556276,15.8277854 23.2588664,16.6687343 18.4370472,16.8823808 L18.4370472,16.8823808 L18.4415929,16.8835172 Z M18.4415929,12.4230787 L18.4415929,9.48316682 L25.1691841,9.48316682 L25.1691841,5 L6.85240778,5 L6.85240778,9.48316682 L13.5788626,9.48316682 L13.5788626,12.4219423 C8.11155831,12.6730906 4,13.7560964 4,15.0538851 C4,16.3516738 8.11155831,17.4335433 13.5788626,17.6858279 L13.5788626,27.1067285 L18.4404565,27.1067285 L18.4404565,17.6824187 C23.8952602,17.4312704 28,16.349401 28,15.0527487 C28,13.7560964 23.8986694,12.674227 18.4404565,12.4219423 L18.4404565,12.4219423 L18.4415929,12.4230787 Z" id="Shape" fill="#50AF95"></path>
    </g>
</svg>