<?xml version="1.0" encoding="UTF-8"?>
<svg width="141px" height="38px" viewBox="0 0 141 38" version="1.1" xmlns="http://www.w3.org/2000/svg" xmlns:xlink="http://www.w3.org/1999/xlink">
    <!-- Generator: Sketch 52.6 (67491) - http://www.bohemiancoding.com/sketch -->
    <title>Group 3</title>
    <desc>Created with Sketch.</desc>
    <defs>
        <linearGradient x1="69.3329854%" y1="100%" x2="28.6584717%" y2="25.7583229%" id="linearGradient-1">
            <stop stop-color="#E95900" offset="0%"></stop>
            <stop stop-color="#E95900" offset="30.5297146%"></stop>
            <stop stop-color="#CA100D" offset="87.4859711%"></stop>
            <stop stop-color="#CA100D" offset="100%"></stop>
        </linearGradient>
    </defs>
    <g id="Page-1" stroke="none" stroke-width="1" fill="none" fill-rule="evenodd">
        <g id="04-swap-input-number" transform="translate(-28.000000, -56.000000)">
            <g id="Group-3" transform="translate(28.000000, 56.000000)">
                <g id="Group-7">
                    <path d="M2.04188525,9.04113208 L7.41639344,9.04113208 L3.23754098,19.3178616 C3.23754098,19.3178616 1.05303279,19.2820126 0.385081967,17.3628931 C0.197980289,16.7930226 0.182269771,16.1803158 0.339918033,15.6015094 L2.04188525,9.04113208 Z" id="Path" fill="#CB0F0F"></path>
                    <path d="M22.8862295,9.26100629 L16.0522131,9.14150943 L17.5901639,4.04138365 C17.8774609,3.09466705 17.7022059,2.06710004 17.1176151,1.27070368 C16.5330244,0.474307322 15.608067,0.00303918815 14.6236066,7.10542736e-14 L8.38622951,7.10542736e-14 L1.25508197,25.7515723 C1.25508197,25.7515723 -1.3002459,36.7644025 8.38622951,37.7610063 C8.38622951,37.7610063 23.6991803,40.9085535 28.612541,22.305283 C28.612541,22.305283 31.2059016,11.0534591 22.8862295,9.26100629 Z M18.2153279,22.0328302 C18.2153279,22.0328302 17.9419672,26.7840252 14.3763934,27.6181132 C13.8499245,27.7512065 13.2936553,27.6936703 12.8051639,27.4555975 C12.2465574,27.168805 11.6689344,26.5737107 11.6831967,25.3261635 C11.6925245,24.9655411 11.7500905,24.6078219 11.8543443,24.2626415 L13.1712295,19.3178616 L16.7653279,19.3178616 C16.7653279,19.3178616 18.3936066,19.8508176 18.2153279,22.0328302 Z" id="Shape" fill="#E95900" fill-rule="nonzero"></path>
                    <path d="M28.9405738,17.1191195 C28.2868852,9.55974843 22.8862295,9.26100629 22.8862295,9.26100629 L16.0522131,9.14150943 L13.1165574,19.3776101 L16.7011475,19.3776101 C17.3595902,19.4134591 18.56,20.5056604 18.1701639,22.4391195" id="Path" fill="url(#linearGradient-1)"></path>
                </g>
                <path d="M107.51874,29.9700827 C107.546167,29.8147333 107.502469,29.6666475 107.6754,29.5326206 C107.767909,29.4611552 107.717238,29.2148924 107.755125,29.0532165 C107.786038,28.921064 107.85205,28.7968782 107.903882,28.6698806 C107.914109,28.6445749 107.938747,28.6239553 107.944093,28.5986495 C108.042413,28.1438483 108.077278,27.6623354 108.25323,27.2408065 C108.415004,26.8546589 108.357593,26.4139164 108.618849,26.056355 C108.709498,25.9321692 108.661384,25.7116808 108.701363,25.5406324 C108.732509,25.407777 108.804564,25.2847628 108.852677,25.1554221 C108.877548,25.0881743 108.894515,25.0167089 108.90637,24.9459464 C108.939608,24.7463118 108.881732,24.5417567 109.080927,24.3622731 C109.176458,24.2760459 109.110214,24.0215822 109.145776,23.8493622 C109.170879,23.7291597 109.243399,23.6183297 109.296394,23.5042194 C109.30755,23.4798508 109.333351,23.4606372 109.339394,23.4358 C109.427254,23.0831592 109.533941,22.7335644 109.594374,22.376003 C109.692461,21.7946728 109.775672,21.2095936 109.83564,20.6231085 C109.889332,20.0961389 109.706639,19.6321994 109.446546,19.1715403 C109.201096,18.7366557 108.862207,18.5773229 108.401988,18.580369 C108.11377,18.5820092 107.825552,18.5864611 107.537334,18.5782602 C106.945325,18.5616239 106.448614,18.7340782 106.053941,19.2123108 C105.816626,19.5002813 105.478203,19.7060079 105.253207,20.0017108 C105.023562,20.3032714 104.789501,20.6118615 104.699549,21.013708 C104.632376,21.3133942 104.453402,21.5877745 104.325098,21.8741048 C104.302785,21.9240135 104.278844,21.974625 104.266757,22.0278141 C104.172389,22.4458282 104.14194,22.8924285 103.969707,23.2743585 C103.81816,23.6094258 103.867204,23.9836235 103.72356,24.2692509 C103.585261,24.5440998 103.648948,24.8639369 103.507164,25.0628685 C103.316103,25.332094 103.37886,25.60624 103.303319,25.8696077 C103.207092,26.2044408 103.050896,26.521466 102.925614,26.8480982 C102.896095,26.9249528 102.88703,27.0102427 102.867506,27.0910806 C102.804749,27.3467159 102.73897,27.6016483 102.679234,27.8579866 C102.576266,28.3006036 102.549536,28.7809449 102.353827,29.1762307 C102.18415,29.5180932 102.227383,29.8686252 102.113025,30.1891652 C102.049803,30.36654 101.904067,30.5659403 101.590747,30.5586766 C100.317939,30.5298561 99.0439688,30.5439149 97.7704637,30.5502413 C97.5591813,30.5511786 97.4487752,30.5090023 97.5087432,30.2643796 C97.5394244,30.1390223 97.5310568,30.0038237 97.5408191,29.8730772 C97.5450029,29.8170764 97.5294298,29.7313179 97.5589489,29.7099954 C97.8464696,29.5028629 97.7269986,29.1931013 97.7706961,28.9243444 C97.7830151,28.8493643 97.8311289,28.7790704 97.8701778,28.7106511 C97.8920266,28.6729267 97.9598973,28.6380141 97.9550162,28.6122397 C97.8745941,28.1965687 98.2199908,27.8907904 98.2311476,27.4931615 C98.236726,27.3045396 98.3613106,27.1220099 98.4091919,26.9312792 C98.5093709,26.5320101 98.589793,26.1275861 98.6885774,25.7280827 C98.7218155,25.5935871 98.7961943,25.4696356 98.8336161,25.3356087 C98.8761515,25.1844769 98.8882381,25.0246755 98.9317032,24.873778 C98.972844,24.7317844 99.0442012,24.598929 99.0897583,24.4578727 C99.1199747,24.362976 99.1278774,24.2605813 99.146937,24.1619356 C99.1915643,23.9290286 99.067677,23.646213 99.3440409,23.481491 C99.350549,23.4775077 99.3524085,23.4650891 99.3545004,23.4561852 C99.4409658,23.0653514 99.5130203,22.6702999 99.6173831,22.2846209 C99.7236054,21.8928498 99.8619035,21.5097483 99.9864881,21.1228978 C99.9920665,21.1053243 100.008569,21.0903283 100.010429,21.0732235 C100.055056,20.670674 100.12804,20.2800744 100.293766,19.9025964 C100.384415,19.6966354 100.264944,19.4194433 100.506907,19.2430057 C100.556416,19.2069216 100.51667,19.0616476 100.54247,18.973546 C100.585703,18.8233514 100.6638,18.6825294 100.698665,18.5311633 C100.740271,18.351211 100.740271,18.1616519 100.78025,17.981231 C100.809769,17.8476727 100.873921,17.7218467 100.923894,17.5929746 C100.933888,17.5674345 100.955505,17.5456434 100.961548,17.5196347 C101.062424,17.103495 101.607249,14.4229559 101.931262,14.2802594 C102.024701,14.2392547 102.119998,14.1734127 102.215296,14.1715382 C102.78197,14.1612285 103.349341,14.159354 103.916015,14.1724755 C104.029675,14.1750529 104.141243,14.2549536 104.253741,14.2990044 C104.303947,14.3184524 104.35392,14.354068 104.404358,14.3547709 C104.84575,14.3613317 105.17046,14.6097033 105.473554,14.8887699 C105.553046,14.9618755 105.599068,15.0839525 105.634166,15.1919707 C105.762004,15.5884281 106.021168,15.6245123 106.350759,15.4000406 C106.668729,15.1837698 106.969033,14.9346952 107.369517,14.8144927 C107.665405,14.7256881 108.00871,14.74209 108.249047,14.5890837 C108.618152,14.354068 109.017938,14.4562284 109.379605,14.3402435 C109.665499,14.2483929 109.931403,14.1160061 110.237518,14.1675549 C110.34653,14.1860656 110.447638,14.2488615 110.553861,14.2872888 C110.630332,14.3149377 110.7075,14.3425866 110.786759,14.3589885 C111.122859,14.4288138 111.513115,14.2715898 111.787155,14.60572 C111.805285,14.6272767 111.858047,14.6223562 111.894772,14.6254022 C112.327796,14.6628923 112.69295,14.8768199 113.017195,15.1345641 C113.288445,15.3503662 113.53343,15.6188888 113.729372,15.9061563 C113.857211,16.0933723 113.96413,16.0572881 114.095223,15.9881658 C114.227013,15.9188092 114.406452,15.8426575 114.450149,15.7257354 C114.520344,15.5375822 114.68607,15.6106878 114.766027,15.5366449 C114.975915,15.341931 115.31829,15.4302669 115.48355,15.1676022 C115.488199,15.1598699 115.496102,15.1519032 115.504237,15.1490915 C115.774325,15.0530232 116.038602,14.9311805 116.315896,14.8676817 C116.80424,14.7559145 117.342091,14.7692703 117.782321,14.5635436 C118.236032,14.3517248 118.679981,14.4309226 119.124162,14.3580513 C119.225038,14.3414151 119.319174,14.2816653 119.417028,14.243238 C119.483505,14.2172292 119.5537,14.166852 119.617619,14.1731784 C119.971616,14.2076224 120.336769,14.0576622 120.683561,14.3200926 C120.828367,14.4299853 121.100779,14.3566454 121.309272,14.3974158 C121.448035,14.4243618 121.576339,14.5059027 121.709524,14.5628407 C121.742994,14.5771338 121.775767,14.59377 121.8104,14.6043141 C122.111867,14.6954618 122.417982,14.7744252 122.713405,14.8824434 C122.805217,14.9157159 122.874017,15.0223282 122.944445,15.1029318 C123.231733,15.4309698 123.679633,15.6137339 123.799336,16.0980586 C123.833272,16.2351316 123.931126,16.4019623 124.047111,16.4626494 C124.254442,16.5711362 124.21795,16.7396072 124.251188,16.9062036 C124.270712,17.0041464 124.345556,17.0913108 124.397621,17.1819898 C124.41087,17.2051868 124.447594,17.2244005 124.446665,17.2445514 C124.432021,17.6433519 124.617968,18.0116917 124.653996,18.385655 C124.727677,19.1464688 124.673752,19.9199356 124.670963,20.6882474 C124.670731,20.7437796 124.68119,20.8257891 124.650742,20.8510949 C124.379956,21.0736921 124.498033,21.3841566 124.461773,21.6578341 C124.439459,21.8270079 124.504076,22.0238307 124.292096,22.1222421 C124.278847,22.1285686 124.262577,22.1548116 124.265599,22.1679331 C124.351134,22.5650934 124.063614,22.8722776 124.010386,23.2378057 C123.982262,23.4299422 123.89324,23.6134092 123.831412,23.8003908 C123.822812,23.8268682 123.810726,23.8524083 123.804915,23.8793543 C123.713103,24.3076782 123.625708,24.7369393 123.528551,25.1640917 C123.507632,25.2547707 123.444177,25.3349057 123.413729,25.4246476 C123.372588,25.5460216 123.336793,25.6702074 123.312852,25.7960334 C123.273339,26.0041033 123.361199,26.2477886 123.11877,26.3977489 C123.078327,26.4230546 123.092737,26.5378679 123.080651,26.6114422 C123.039975,26.8570021 123.117143,27.1159178 122.893077,27.3401552 C122.798709,27.4348176 122.868671,27.6841265 122.835201,27.8572837 C122.811028,27.9802979 122.739206,28.094174 122.686908,28.2113304 C122.675984,28.2356989 122.650416,28.2546783 122.643908,28.2795154 C122.55535,28.623721 122.467258,28.9683952 122.381955,29.3137724 C122.291538,29.6802377 122.209256,30.0488118 122.109542,30.4126997 C122.095596,30.4628426 122.004482,30.5150944 121.943352,30.5232954 C121.787854,30.5443835 121.628869,30.546258 121.471511,30.546258 C120.234963,30.5478982 118.998648,30.5434463 117.762332,30.55071 C117.548493,30.5518815 117.43646,30.4993954 117.493871,30.2653169 C117.554071,30.0195227 117.412054,29.7203052 117.698877,29.5293402 C117.744899,29.4984109 117.724678,29.3695388 117.738624,29.2865921 C117.777208,29.0555596 117.70771,28.7917233 117.938052,28.6190348 C117.944328,28.6143485 117.945257,28.6021642 117.947349,28.593026 C118.030561,28.2595988 118.119583,27.9275775 118.194659,27.5922758 C118.294373,27.1482529 118.303438,26.6608822 118.501472,26.2693454 C118.655808,25.9640358 118.556093,25.6022567 118.715311,25.397233 C118.953788,25.0907517 118.749943,24.6549298 119.088599,24.4227258 C119.100686,24.4142905 119.10394,24.3894534 119.107891,24.3716456 C119.201097,23.9437903 119.294536,23.515935 119.38658,23.0876111 C119.468629,22.7045096 119.47444,22.2815749 119.646673,21.9453359 C119.989048,21.2768413 119.813096,20.5933507 119.810074,19.9180611 C119.809144,19.7029619 119.629241,19.487394 119.526272,19.2744037 C119.483272,19.1853648 119.425164,19.1038239 119.377747,19.0168938 C119.355898,18.9768263 119.354271,18.9060638 119.324287,18.8924737 C119.083486,18.7832839 118.844079,18.6204365 118.592586,18.5960679 C118.123069,18.5501426 117.641931,18.5494397 117.17288,18.5993483 C116.737763,18.6452736 116.350529,18.8308494 116.074165,19.2202774 C115.930288,19.4231923 115.698552,19.560031 115.528875,19.7474813 C115.322939,19.9747648 115.10631,20.2043914 114.958715,20.4693992 C114.822973,20.7135532 114.789503,21.0134737 114.679329,21.2752012 C114.580777,21.5092797 114.438528,21.7248475 114.315803,21.9486163 C114.302786,21.9729848 114.287911,21.9980563 114.282565,22.0245337 C114.183083,22.4987829 114.101731,22.9777184 113.981098,23.4463441 C113.883708,23.8249937 113.73681,24.1905217 113.615944,24.5633135 C113.584566,24.6598504 113.563414,24.7606049 113.546679,24.8608908 C113.512511,25.0623999 113.562717,25.2692981 113.363986,25.4464387 C113.273104,25.5272766 113.321451,25.7660414 113.304715,25.9328721 C113.288445,26.0926735 113.344694,26.2805924 113.139455,26.3689284 C113.125974,26.3747862 113.116212,26.3984518 113.112493,26.4160253 C113.025562,26.7918631 112.945373,27.1693411 112.851237,27.5435387 C112.812188,27.6981852 112.744085,27.8453337 112.687836,27.9955282 C112.678306,28.0210683 112.658084,28.0433281 112.651809,28.0693368 C112.569992,28.4172914 112.489105,28.7654803 112.409148,29.1136692 C112.31199,29.5370725 112.23366,29.966568 112.104892,30.3798959 C112.07793,30.4654201 111.866182,30.5347767 111.737879,30.5380571 C111.124718,30.5551619 110.510861,30.546961 109.897468,30.5471953 C109.181571,30.5474296 108.465443,30.5504756 107.749779,30.5443835 C107.608459,30.5432119 107.467372,30.5057219 107.375793,30.4923661 C107.435993,30.2779698 107.491312,30.1263694 107.51874,29.9700827 Z M36.21059,9.02370818 C36.5792301,9.02370818 36.9395026,9.02347386 37.3000075,9.02394249 C37.718156,9.0241768 38.1374667,9.00707196 38.554453,9.03026894 C39.0641805,9.05838648 39.4679181,9.32034825 39.8491096,9.65260389 C40.2967772,10.0427348 40.3741777,10.5347918 40.3321071,11.0776947 C40.3153719,11.292091 40.3862642,11.5353077 40.1582466,11.692063 C40.1403492,11.7042473 40.1396519,11.7436118 40.1340735,11.7710264 C40.0376134,12.2293424 39.9783428,12.6998426 39.8346987,13.1422253 C39.717552,13.5028328 39.6775734,13.881248 39.5641457,14.2247507 C39.482329,14.4726537 39.3972582,14.7083724 39.3786635,14.9693969 C39.3763391,15.0029037 39.3489119,15.0340673 39.3358956,15.067574 C39.3070738,15.1423198 39.2801115,15.2177686 39.2522195,15.2932173 C39.3905176,15.2847821 39.5590321,15.3239123 39.661303,15.2583047 C39.9186073,15.0938171 40.1628953,14.934953 40.4580863,14.8217798 C40.8144074,14.6851755 41.2344154,14.7322723 41.5393686,14.4461763 C41.5856229,14.4028285 41.6802235,14.4110294 41.7527428,14.3976736 C42.0858206,14.3355807 42.4426065,14.4525028 42.7552301,14.1865577 C42.8654037,14.0930669 43.1150377,14.1558627 43.300055,14.1638293 C43.50204,14.1727332 43.7021656,14.1190756 43.8871829,14.3158984 C43.979924,14.4145441 44.2253742,14.3552629 44.3955158,14.3953304 C44.5342788,14.4278999 44.6630471,14.5024114 44.796929,14.5574749 C44.839232,14.5748141 44.8822323,14.5907474 44.9259298,14.6043375 C45.2171694,14.6943137 45.5142199,14.7695281 45.7980216,14.8791865 C45.9177251,14.9255804 46.0174392,15.0359418 46.1138992,15.1301356 C46.336106,15.346875 46.5652858,15.5593967 46.763087,15.7976929 C46.8867418,15.9464816 46.9374124,16.1564259 47.0585104,16.3082606 C47.2384142,16.5339039 47.2707225,16.8356989 47.4896752,17.0489236 C47.5798596,17.1370252 47.5282592,17.3706351 47.5459242,17.5377002 C47.5617297,17.6869575 47.506178,17.8596461 47.7021198,17.9512624 C47.7414011,17.9697731 47.7483741,18.0859923 47.7486065,18.1572234 C47.7511633,19.0658886 47.7534876,19.9747882 47.7437254,20.8834535 C47.7427957,20.9783502 47.6595844,21.0706695 47.6244869,21.1679093 C47.5914812,21.2595256 47.5656811,21.3546566 47.5470864,21.4502563 C47.4971131,21.7063602 47.6491248,22.0168248 47.3432419,22.2031035 C47.3378959,22.2063839 47.3392905,22.220677 47.3369662,22.2298152 C47.2414359,22.6372852 47.1977383,23.0672493 47.0368941,23.4468362 C46.8507146,23.8868757 46.8774444,24.4337619 46.4369823,24.7557078 C46.4172254,24.7702352 46.4083929,24.8025704 46.3990956,24.8281105 C46.3091437,25.0743733 46.2475487,25.3356321 46.1245912,25.5633842 C45.9751362,25.840342 45.7743134,26.0891823 45.5958042,26.3499725 C45.5562904,26.4073791 45.4995766,26.4593966 45.4798197,26.5228954 C45.4079976,26.7508818 45.2306506,26.8802225 45.0679469,27.0336974 C44.9401083,27.1541342 44.8624754,27.3272914 44.7562531,27.4725654 C44.6923338,27.5597298 44.6242307,27.6471284 44.5445059,27.7190625 C44.3276451,27.9137765 44.1077627,28.1052101 43.8816045,28.2886771 C43.6136083,28.5056508 43.3365471,28.7111431 43.0659941,28.9248365 C42.9825504,28.991147 42.9065445,29.0670644 42.8286792,29.1404043 C42.6734133,29.2873185 42.3842656,29.319185 42.3054706,29.4178307 C42.1260316,29.6425367 41.8385109,29.5424852 41.6541909,29.7742206 C41.502644,29.9651856 41.1412094,30.0040815 40.8634509,30.0715636 C40.4313564,30.1760671 39.9453372,30.1577907 39.5657727,30.3548478 C39.0039801,30.646333 38.4363766,30.52121 37.8731894,30.5587 C37.3743864,30.5919725 36.8702373,30.5523736 36.3688775,30.5322227 C36.2779959,30.528708 36.1885088,30.467318 36.1004164,30.4281878 C36.0506756,30.4061624 36.0083726,30.3607057 35.957702,30.3494586 C35.5142182,30.2510472 35.063529,30.1791132 34.6279479,30.0542244 C34.4227088,29.9954119 34.2448969,29.8388909 34.0563931,29.7243119 C34.000609,29.6903366 33.9531925,29.6425367 33.8969435,29.6104359 C33.7270343,29.513899 33.5087789,29.4609443 33.392562,29.3205909 C33.1141063,28.9848206 32.8837643,28.6089827 32.633433,28.2495468 C32.4993187,28.0569416 32.3338258,27.8790982 32.2406198,27.6684509 C32.1771654,27.5252858 32.2329495,27.3329149 32.2008736,27.1693645 C32.1734464,27.0280739 32.0932568,26.8977959 32.0444457,26.7597857 C32.0202725,26.6916006 32.0030724,26.6173234 32.0026076,26.5456237 C31.9998184,26.0301354 31.9965643,25.5148814 32.0086508,24.9996275 C32.0109752,24.901919 32.0823324,24.806085 32.1213813,24.7093138 C32.1478787,24.6437062 32.1899493,24.5792702 32.1964574,24.5113195 C32.2122629,24.3440201 32.1887871,24.1701599 32.2215603,24.0070782 C32.3070959,23.5808631 32.3728747,23.1462128 32.6162329,22.7682661 C32.6529575,22.7108595 32.6508656,22.6246323 32.6569089,22.5508238 C32.6785252,22.2944855 32.6401736,22.021511 32.8644723,21.8239853 C32.8705156,21.8183618 32.872375,21.8068805 32.8744669,21.7977423 C32.9616296,21.4057368 33.0425166,21.0118569 33.1382794,20.621726 C33.1757012,20.4687197 33.2463611,20.3236801 33.3026101,20.17536 C33.3123723,20.1493513 33.3339887,20.1247485 33.3349184,20.0987397 C33.3509563,19.6244905 33.6865908,19.2217067 33.6277851,18.7244948 C33.613839,18.6061668 33.7226181,18.4735457 33.7732887,18.3470168 C33.7902563,18.3055434 33.8093159,18.2633671 33.8158241,18.2195506 C33.8534783,17.9744594 33.8802082,17.7474102 34.0013063,17.501616 C34.1939939,17.1107822 34.2344374,16.6426251 34.3308975,16.205163 C34.4178277,15.8108144 34.4285197,15.3827248 34.5956396,15.0286781 C34.7151106,14.7758545 34.676759,14.4520342 34.8143599,14.2978563 C35.0781723,14.0021535 34.9022199,13.6101481 35.1539457,13.3167884 C35.2815519,13.1677654 35.2029893,12.847694 35.2413409,12.6089292 C35.2594707,12.4957561 35.3329198,12.3912526 35.3826607,12.2834687 C35.4012554,12.2434012 35.4372826,12.206614 35.4419313,12.1656093 C35.4719153,11.9057563 35.5265372,11.6698033 35.6418244,11.4174483 C35.8203336,11.0275517 35.8475284,10.5685328 35.952356,10.1418491 C35.9837346,10.0141486 36.0836812,9.90261571 36.1106435,9.77468089 C36.1582924,9.54786604 36.1738655,9.31425612 36.21059,9.02370818 Z M37.0787305,24.1741433 L37.0568817,24.1741433 C37.0568817,24.2395166 37.059206,24.3053585 37.0566493,24.3707318 C37.0385194,24.8417006 37.0494438,25.3075146 37.3290618,25.7152189 C37.417619,25.8447939 37.4999006,26.0144365 37.6275068,26.0741862 C37.9733684,26.2363307 38.31923,26.4176889 38.7329622,26.3567675 C38.9881746,26.3195118 39.257333,26.3738724 39.5106859,26.3305245 C39.7891417,26.2831933 40.0569055,26.1716604 40.3288531,26.0861362 C40.343264,26.0816842 40.3495397,26.0549726 40.3634857,26.0437256 C40.6391523,25.8185509 40.9266729,25.6062635 41.1869988,25.3644526 C41.3239024,25.2372207 41.4152489,25.0591429 41.5237955,24.9016847 C41.558893,24.8510731 41.5723742,24.7819508 41.6139798,24.7390716 C41.7910944,24.5570105 42.0102796,24.4037699 41.985874,24.100569 C41.9828524,24.0626103 42.0195769,24.0218399 42.0386365,23.9827097 C42.16694,23.7205136 42.3222058,23.4681586 42.4177361,23.1944812 C42.5588235,22.7912288 42.7556949,22.395943 42.7119974,21.9460623 C42.7103703,21.9303633 42.725711,21.9127899 42.7336137,21.8959193 C43.0429832,21.2276591 42.8932958,20.5291724 42.866101,19.8388868 C42.8658686,19.8297486 42.8619172,19.8203761 42.857501,19.8124094 C42.7231542,19.5621633 42.5811371,19.3159005 42.4556228,19.0612024 C42.3219734,18.7898681 42.1025558,18.588359 41.8194514,18.6028864 C41.119593,18.638502 40.40114,18.3941137 39.7163899,18.7856505 C39.4932534,18.9131167 39.2868521,19.0082477 39.1520405,19.2392802 C39.0860292,19.3526876 38.9633042,19.4332912 38.8647522,19.526782 C38.6632321,19.7175127 38.3873331,19.8726278 38.2797162,20.1069407 C38.1725642,20.339379 37.886903,20.5127705 37.9715089,20.8302645 C37.97639,20.8485409 37.9438493,20.8757212 37.9301357,20.8996211 C37.8764435,20.9933462 37.8187999,21.0847282 37.7720807,21.1817338 C37.7488373,21.2304708 37.7630158,21.3227901 37.7325669,21.3377861 C37.435284,21.4825915 37.4806086,21.8239853 37.3753161,22.0552521 C37.187742,22.4681113 37.152412,22.956185 37.0852386,23.4173127 C37.048979,23.6645128 37.0787305,23.921554 37.0787305,24.1741433 Z M136.153103,20.8109337 C136.159146,20.1555606 136.147989,19.5184639 135.65244,18.9910257 C135.464634,18.7913911 135.314016,18.5884762 135.016501,18.5889448 C134.496082,18.5894135 133.973338,18.5580155 133.456638,18.6023007 C133.184225,18.6254976 132.891358,18.7330472 132.664271,18.8874594 C132.387442,19.0753783 132.149197,19.334997 131.935358,19.5976617 C131.817514,19.7419984 131.591821,19.8427529 131.634821,20.097451 C131.639005,20.1229911 131.575086,20.1583723 131.546496,20.1923477 C131.404479,20.3629275 131.184132,20.4835986 131.199472,20.7546986 C131.201797,20.7985151 131.192964,20.8547502 131.167164,20.8870853 C130.920087,21.1945038 130.767145,21.5412868 130.714383,21.9335266 C130.708107,21.9792176 130.699972,22.0253772 130.686723,22.069428 C130.556793,22.5099362 130.370846,22.9422434 130.308553,23.3918898 C130.240218,23.888633 130.282986,24.4010753 130.280894,24.9067224 C130.280429,24.9807653 130.278337,25.067461 130.313202,25.1262736 C130.434068,25.3280169 130.579571,25.5149986 130.699972,25.7172106 C130.928222,26.1000778 131.252002,26.3198633 131.698508,26.337671 C131.911882,26.3463406 132.132462,26.3074447 132.338398,26.3489181 C132.765612,26.4346766 133.099387,26.1462374 133.489876,26.0993749 C133.506843,26.0975004 133.523811,26.0841445 133.537989,26.0726632 C133.734628,25.9121589 133.93243,25.7537634 134.125582,25.5895101 C134.198102,25.5278858 134.256675,25.4503282 134.325708,25.384252 C134.48446,25.2317144 134.71178,25.1396294 134.746413,24.8788392 C134.753154,24.8298678 134.78337,24.7750386 134.819862,24.7405946 C135.005809,24.5646256 135.212908,24.4048243 135.205237,24.1074813 C135.204308,24.075849 135.231735,24.042108 135.2494,24.0111787 C135.372125,23.7970167 135.523672,23.5941018 135.610602,23.3658811 C135.689397,23.1589828 135.662667,22.9445865 135.81956,22.7231609 C136.005042,22.4619021 136.032005,22.0745829 136.088021,21.7348293 C136.137994,21.4316284 136.133578,21.1192894 136.153103,20.8109337 Z M125.276593,26.0208801 C125.313317,25.8465513 125.358642,25.7076038 125.369334,25.5660788 C125.397459,25.2021909 125.405361,24.8366629 125.430929,24.4725407 C125.444643,24.278764 125.394204,24.0810039 125.592703,23.912533 C125.679401,23.8389587 125.623617,23.6081606 125.658714,23.4551543 C125.691023,23.3129264 125.771212,23.1817112 125.806775,23.0397176 C125.844661,22.8885858 125.854656,22.7304246 125.877667,22.5755438 C125.904397,22.3960601 125.806077,22.1713541 126.057338,22.0720055 C126.069425,22.0670849 126.075236,22.0403732 126.079187,22.0225654 C126.173323,21.6186101 126.267923,21.2151233 126.3602,20.8106993 C126.447827,20.4278321 126.45573,19.9992739 126.642607,19.6752192 C126.802056,19.3987301 126.78997,19.1416889 126.826927,18.869183 C126.831808,18.8321616 126.825532,18.7770981 126.847148,18.7609305 C127.092366,18.5765262 126.954533,18.2440363 127.080047,18.0659585 C127.300627,17.7524479 127.136529,17.3393544 127.313876,17.1191003 C127.560953,16.8116818 127.364546,16.3873412 127.679494,16.1457647 C127.697159,16.1321745 127.697159,16.0937472 127.703202,16.0660983 C127.794549,15.6593312 127.830111,15.2281955 127.99142,14.8518891 C128.165513,14.4455906 128.120421,14.0034422 128.266854,13.6252612 C128.368893,13.3621279 128.344255,13.0554124 128.47558,12.861167 C128.672452,12.5694475 128.556699,12.2224302 128.705457,11.9888202 C128.901166,11.6806988 128.864209,11.354301 128.956718,11.0447737 C129.059919,10.7000995 129.196357,10.3652664 129.306996,10.0224667 C129.346742,9.8996868 129.360223,9.7668314 129.37324,9.63725639 C129.419494,9.17519144 129.557792,9.0432733 130.008249,9.0432733 C130.491479,9.04303899 130.978428,9.08099767 131.456777,9.03155766 C131.857493,8.99008428 132.227992,9.11778479 132.540848,9.26915089 C133.119376,9.54938907 133.576109,10.0074707 133.544033,10.7450876 C133.526135,11.1574782 133.601676,11.5883796 133.351577,11.965389 C133.331821,11.9951467 133.326939,12.0359171 133.319037,12.0724699 C133.22676,12.4883753 133.211652,12.945051 133.021521,13.3089389 C132.850682,13.6365083 132.949002,14.0135176 132.783509,14.2698559 C132.556886,14.6206223 132.641957,14.955924 132.600584,15.306456 C132.962483,15.4198634 133.102641,15.1166626 133.317642,14.9760749 C133.352507,14.9531122 133.370172,14.8912536 133.405037,14.8818811 C133.725796,14.7970598 134.050506,14.726766 134.36987,14.6370242 C134.51212,14.5969567 134.64391,14.5198677 134.782673,14.4652728 C134.859608,14.4350465 134.939333,14.4069289 135.020685,14.3947447 C135.346557,14.345539 135.66197,14.3478821 135.99621,14.2117463 C136.295585,14.0899036 136.736977,14.024999 137.095854,14.3204675 C137.221369,14.4237995 137.474722,14.3595977 137.66462,14.3968535 C137.779442,14.4195818 137.884967,14.4903443 137.995141,14.5388471 C138.045114,14.5608725 138.094623,14.5850067 138.146223,14.6018772 C138.427003,14.6934936 138.712897,14.7715197 138.987169,14.8790693 C139.101526,14.9238231 139.198916,15.0227031 139.291657,15.1103361 C139.531994,15.3380882 139.876228,15.5337395 139.974548,15.8149149 C140.109127,16.1980164 140.413615,16.4524802 140.554703,16.8351131 C140.666736,17.1387825 140.665341,17.4604941 140.787369,17.7339372 C141.17716,18.6060497 140.896845,19.5083885 140.971224,20.3922166 C140.983775,20.5405366 140.981451,20.6942459 140.95751,20.8404571 C140.937986,20.9580821 140.871975,21.0672719 140.832229,21.1820852 C140.802709,21.2673751 140.770634,21.3543052 140.759709,21.4431097 C140.726936,21.7137411 140.79225,22.0068665 140.563303,22.2292294 C140.541221,22.2507862 140.5468,22.3004605 140.5382,22.3372476 C140.440345,22.7522157 140.390372,23.1880376 140.226738,23.5748881 C140.119819,23.8277117 140.062408,24.0770206 139.990353,24.3335932 C139.927596,24.5557218 139.658205,24.7321593 139.63101,24.9481958 C139.576621,25.3758168 139.172186,25.5820121 139.087813,25.9803439 C139.057829,26.1206973 138.902563,26.2338704 138.80587,26.3601651 C138.762405,26.4168688 138.703832,26.4698235 138.682913,26.5347282 C138.610626,26.7591999 138.440717,26.8908837 138.270575,27.032643 C138.18225,27.1057486 138.100666,27.2121266 138.065568,27.3199105 C137.97306,27.6022575 137.722031,27.718711 137.524695,27.8906967 C137.306439,28.081193 137.083768,28.2674717 136.855285,28.4460181 C136.538943,28.6934525 136.174487,28.8944929 135.912301,29.1894928 C135.779814,29.3387501 135.584105,29.3150845 135.532039,29.397797 C135.36213,29.6691313 135.001625,29.4842584 134.831484,29.7637937 C134.746645,29.9036784 134.513514,29.9795958 134.332681,30.0271613 C133.937543,30.1311962 133.534038,30.2080508 133.13123,30.2781104 C132.848126,30.3270818 132.546194,30.2542105 132.295166,30.4850086 C132.217533,30.5564741 132.045532,30.534683 131.916531,30.5358545 C131.312668,30.5407751 130.708107,30.5520221 130.104941,30.5314026 C129.917367,30.5250761 129.735372,30.4130746 129.545938,30.3720698 C129.347904,30.3291906 129.141968,30.3235671 128.942772,30.2844368 C128.571343,30.2110969 128.199449,30.1356482 127.83383,30.0384083 C127.73644,30.0123996 127.663456,29.8999294 127.574202,29.8338532 C127.384768,29.6937341 127.199286,29.4561409 126.999625,29.4425507 C126.634239,29.4174792 126.605882,29.1138098 126.430859,28.9336232 C126.256767,28.7543739 126.082674,28.5753588 125.908813,28.3958752 C125.902305,28.3895487 125.897889,28.3804105 125.894867,28.371741 C125.809331,28.1259468 125.767958,27.8503949 125.629428,27.6399819 C125.341442,27.2025198 125.461145,26.7128059 125.377004,26.2514439 C125.359572,26.1560786 125.298442,26.0691485 125.276593,26.0208801 Z M72.8868159,15.2828607 C73.2566182,15.4607042 73.392592,15.1394612 73.61015,15.0141038 C73.6705828,14.9791912 73.7177669,14.9163954 73.7807565,14.8917925 C73.9794874,14.813532 74.1782184,14.7268363 74.3850845,14.6804423 C74.8969039,14.5653947 75.414534,14.4761215 75.9275156,14.3652915 C76.0809219,14.3322534 76.2340958,14.2781272 76.3735561,14.2061931 C76.5281246,14.1265267 77.1480257,14.1717491 77.3011996,14.2692233 C77.3955678,14.328973 77.5213145,14.3437348 77.635672,14.3650572 C77.9306305,14.4205894 78.2495298,14.3137427 78.5096232,14.5993701 C78.6314186,14.733397 78.8836093,14.7495646 79.0786213,14.8130634 C79.4893319,14.9466217 79.7982365,15.2153786 80.109233,15.5106128 C80.3188884,15.7093101 80.4629973,15.9082417 80.5710791,16.1727809 C80.661031,16.3928007 80.8760323,16.5596315 80.9722599,16.7784797 C81.0919634,17.0516885 81.1619259,17.3504374 81.2253804,17.6445 C81.2837213,17.9156 81.163553,18.2258302 81.4215546,18.4552225 C81.461998,18.4913067 81.4454952,18.5986219 81.4459601,18.6731334 C81.4482845,19.0948966 81.4522358,19.5164254 81.4468898,19.9381886 C81.4443331,20.1371202 81.4905874,20.3505792 81.2892997,20.5040541 C81.2469967,20.536155 81.2551319,20.6441732 81.2518778,20.7177474 C81.2397913,20.989316 81.24444,21.2622905 81.2177101,21.5317503 C81.2060884,21.6484381 81.1210176,21.7557534 81.0917309,21.8731441 C81.0522172,22.0317739 81.031763,22.1957929 81.0075899,22.3579374 C80.9815573,22.5317976 81.0696497,22.7438507 80.8409348,22.8485886 C80.8276861,22.8544464 80.8188536,22.8788149 80.8146698,22.8959198 C80.7205341,23.2741007 80.6226794,23.6513444 80.5350518,24.0309312 C80.4406837,24.4412131 80.4265052,24.8899222 80.2433474,25.2531071 C80.1041195,25.529362 80.1213196,25.7976502 80.046011,26.0617208 C79.9683781,26.3325865 79.7980041,26.5748659 79.6968954,26.8410454 C79.6392518,26.9924115 79.6346031,27.1653344 79.613684,27.3295877 C79.5923001,27.4971214 79.6583113,27.6951157 79.44331,27.7902467 C79.4305262,27.7958703 79.4235532,27.8216447 79.4196018,27.8392181 C79.3215147,28.2853498 79.2292385,28.7331217 79.1237135,29.1778475 C79.0869889,29.3322597 79.0098209,29.4765964 78.9668206,29.6300713 C78.9345123,29.7458219 78.9226582,29.8676645 78.9094095,29.9876327 C78.8668741,30.3737803 78.6783702,30.5474061 78.2948544,30.5474061 C77.039944,30.5474061 75.7850336,30.5481091 74.5301232,30.5455316 C74.4104198,30.5452973 74.2863001,30.5377993 74.1738021,30.5028867 C74.1335911,30.4904681 74.0922179,30.3367589 74.1010503,30.3318383 C74.3404572,30.1879702 74.2279592,29.9424103 74.2800244,29.7467591 C74.3153544,29.6146067 74.3813656,29.4908895 74.4345929,29.3638919 C74.448539,29.3303852 74.4773608,29.2999245 74.4806148,29.2664177 C74.5059501,29.0035187 74.5698694,28.7668627 74.6828323,28.5145078 C74.850882,28.1396072 74.8752875,27.7002706 74.9673313,27.2897545 C75.0514724,26.9150882 75.0642562,26.4912163 75.2569439,26.1835635 C75.4347558,25.8998106 75.3190037,25.5534962 75.4742696,25.3681547 C75.7610929,25.025355 75.5123887,24.5522774 75.8354718,24.2563402 C75.8477908,24.2448589 75.8529043,24.2230678 75.8568557,24.20526 C75.9584293,23.7488186 76.0151431,23.2757409 76.1727333,22.8401533 C76.330091,22.4048 76.2838367,21.9275047 76.4416592,21.5265954 C76.5962278,21.1348243 76.5662438,20.7662502 76.5897196,20.3840859 C76.6157522,19.9616198 76.3342748,19.6361593 76.2343283,19.2647734 C76.1332195,18.8894042 75.7950283,18.8640984 75.6209353,18.6276767 C75.5860702,18.5801112 75.4633452,18.5885465 75.3808311,18.5878436 C74.8790065,18.5838602 74.3748574,18.5543368 73.8760544,18.5932328 C73.4818466,18.624162 73.1452823,18.8411358 72.8533454,19.113173 C72.6804146,19.2743802 72.6139385,19.5391538 72.3143313,19.5846105 C72.1950927,19.6026525 72.0574919,19.7704205 72.0049619,19.9014014 C71.9022261,20.1582083 71.7481224,20.3625291 71.5519483,20.5457618 C71.521267,20.574348 71.5068561,20.6263654 71.4970939,20.6701819 C71.4517693,20.874737 71.426434,21.0607815 71.2953413,21.2632278 C71.1124159,21.5462777 71.1068374,21.9415635 71.0034044,22.2820201 C70.8934632,22.6449707 70.7584191,23.000189 70.634067,23.3586877 C70.6277913,23.3760268 70.6152398,23.3914915 70.6112885,23.4095335 C70.5066932,23.8943269 70.4076764,24.380526 70.2951784,24.8634448 C70.2691458,24.9754464 70.1891886,25.0736235 70.1485127,25.1835162 C70.1141125,25.2758355 70.094588,25.3751841 70.0797122,25.4733612 C70.0448472,25.7011133 70.1526965,25.9705731 69.88563,26.1287343 C69.8795867,26.132249 69.8781921,26.1451362 69.8758678,26.1540401 C69.7894024,26.5282377 69.7089802,26.9040755 69.6143797,27.2761643 C69.5685902,27.4561166 69.4965357,27.6295081 69.4363353,27.8059457 C69.4302921,27.8235192 69.4228542,27.8410926 69.4189028,27.8591347 C69.3266266,28.2689479 69.2392314,28.6799327 69.1397497,29.0878714 C69.1109279,29.2054964 69.0388734,29.3118744 69.0021489,29.4285622 C68.9633324,29.5515765 68.9110348,29.6832603 68.9212619,29.8060403 C68.9445053,30.076203 68.8024882,30.2741974 68.6751145,30.4782839 C68.6467575,30.5237405 68.5475083,30.5422513 68.4807998,30.5424856 C67.1238509,30.5462346 65.7666697,30.5460003 64.4094884,30.5438915 C64.3362717,30.5438915 64.2465523,30.5441258 64.1951844,30.5042926 C64.1524165,30.4707858 64.128011,30.3716715 64.1428868,30.3135619 C64.1726383,30.1980457 64.2537577,30.0954166 64.2793254,29.9796661 C64.328369,29.7566002 64.2198224,29.4948728 64.4738726,29.3214813 C64.523381,29.2877402 64.4952565,29.1436378 64.5101322,29.0517872 C64.5468568,28.8268468 64.4311047,28.5557469 64.7079335,28.3992259 C64.737685,28.3823553 64.72002,28.2914419 64.7369877,28.2391902 C64.795561,28.0606438 64.8597128,27.8837376 64.922005,27.7063627 C64.93107,27.680354 64.9452484,27.6555169 64.950362,27.6283366 C65.0479842,27.1322962 65.0742492,26.6062639 65.2646125,26.1495881 C65.4073269,25.8074913 65.3264399,25.3864311 65.6327878,25.109942 C65.6555663,25.0895567 65.6574257,25.0412883 65.6620744,25.0052041 C65.6915935,24.7652677 65.6736961,24.5330637 65.8538324,24.3088263 C65.9588925,24.1780797 65.8979948,23.911666 65.9124057,23.7061736 C65.9235625,23.5435605 65.8817244,23.3617337 66.0769689,23.2651968 C66.1013744,23.2532469 66.1078826,23.2009951 66.1192718,23.1663168 C66.1950453,22.9334098 66.2824404,22.7040175 66.3421759,22.4673615 C66.4451441,22.0596572 66.4693172,21.6186804 66.6406209,21.2447171 C66.8133193,20.8681763 66.7619514,20.459066 66.9081523,20.1108771 C67.0032178,19.8854682 66.9955474,19.6216319 67.1129265,19.4501149 C67.3177008,19.1508974 67.2444841,18.8287172 67.3256035,18.5271565 C67.4123013,18.2045077 67.5861619,17.9062275 67.6833192,17.5854531 C67.7553737,17.3473913 67.7430547,17.0840236 67.8083686,16.8429157 C67.910872,16.4633289 68.0470782,16.0926459 68.1693384,15.718214 C68.1749168,15.7006405 68.1860736,15.6842386 68.190025,15.6664308 C68.2864851,15.2350609 68.3875938,14.8046281 68.4754538,14.3713837 C68.5107837,14.1975235 68.4324535,13.9882822 68.6509413,13.8802639 C68.6681415,13.8718287 68.6727901,13.8298867 68.6762766,13.8029407 C68.7057957,13.5613641 68.7652988,13.344859 68.8740778,13.1112491 C69.0542141,12.7253358 69.0267869,12.2428857 69.1969285,11.8497087 C69.3889188,11.4063888 69.2917615,10.8953524 69.5748659,10.4867108 C69.6141472,10.4300071 69.6192608,10.3451858 69.6285581,10.2718459 C69.6476177,10.1204798 69.6473853,9.98973323 69.7842888,9.85500333 C69.8821435,9.75870075 69.866338,9.52040457 69.8598298,9.34724737 C69.8500676,9.09723555 69.9572196,9.01991231 70.1882589,9.02272406 C70.91322,9.03115932 71.6405056,8.99530946 72.3624451,9.04404653 C72.7515394,9.07005526 73.10972,9.27133 73.3672567,9.6010082 C73.4416355,9.69637353 73.5315874,9.77885165 73.6099176,9.87140523 C73.9085951,10.2249833 74.0659528,10.6294073 74.016212,11.098033 C74.0078444,11.178168 73.9443899,11.2533825 73.9030167,11.3288312 C73.8858166,11.3597605 73.8460704,11.3824889 73.838865,11.4138868 C73.738686,11.86119 73.643853,12.3098991 73.5439064,12.7569681 C73.4639492,13.1140609 73.4565113,13.5198907 73.2721912,13.8109073 C73.1099524,14.0672456 73.1287795,14.306479 73.0834549,14.5583653 C73.0704386,14.6305337 73.0702062,14.737146 73.025114,14.7659665 C72.8070911,14.9060856 72.8819348,15.1005653 72.8868159,15.2828607 Z M89.515157,14.6875654 C89.462627,14.9736614 89.4265997,15.2178154 89.3708156,15.4570489 C89.343156,15.5746739 89.2792367,15.6836294 89.2301931,15.7960996 C89.2157822,15.829372 89.1878901,15.8581925 89.1802198,15.8924022 C89.0786462,16.3394711 88.9926457,16.7905233 88.8764288,17.233609 C88.7681146,17.6459996 88.6272597,18.0497206 88.50314,18.458128 C88.4761777,18.5471668 88.4573505,18.6390175 88.4413126,18.7306338 C88.4011016,18.9586202 88.4861723,19.2182389 88.2456033,19.395848 C88.1991165,19.4300577 88.2188734,19.5556494 88.2074842,19.6388304 C88.1770353,19.8590845 88.2702413,20.1177659 88.0157262,20.269132 C88.0092181,20.272881 88.0064289,20.2852996 88.004337,20.2939692 C87.9185689,20.6712129 87.8383792,21.0493939 87.7449408,21.4242944 C87.7058919,21.5808154 87.6391834,21.7305413 87.5847939,21.883079 C87.5694532,21.9264269 87.547372,21.9683689 87.5378422,22.012654 C87.4448687,22.451522 87.422555,22.9222565 87.2431161,23.3212913 C87.0541474,23.74118 87.0622826,24.1613029 87.0104498,24.5872837 C87.0018498,24.6578119 86.9204979,24.7194362 86.9009735,24.7463821 C86.94839,24.9382844 87.027185,25.1016004 87.0213742,25.2618704 C87.0060336,25.7173746 87.2898353,25.99855 87.5603883,26.2909725 C87.5919993,26.3251822 87.66847,26.3125293 87.7156541,26.3373664 C87.8172277,26.3912584 87.9134553,26.4547572 88.0115424,26.5152099 C88.026883,26.5245824 88.0382723,26.5447333 88.0540778,26.548248 C88.3990096,26.6279144 88.7425469,26.7195307 89.0916625,26.7755315 C89.1832415,26.7905275 89.2929502,26.6960994 89.3931292,26.6487682 C89.4168375,26.6375212 89.439616,26.5960478 89.4551891,26.5997968 C89.8493969,26.6951622 90.1485393,26.4057858 90.5002117,26.3261194 C90.8723383,26.2422354 91.2084376,26.0271362 91.4471472,25.6939433 C91.5784723,25.5104764 91.7458247,25.3530181 91.8757552,25.1688482 C91.9917397,25.0050635 92.0542644,24.7991025 92.1834976,24.6493766 C92.4363857,24.3560169 92.3164498,23.9715095 92.4449857,23.672292 C92.6681222,23.1521174 92.809442,22.6232733 92.9172913,22.0714665 C92.985162,21.7237463 93.1573955,21.3973484 93.2740773,21.0585321 C93.3098721,20.9540285 93.3168451,20.8389809 93.3372993,20.7290882 C93.3700725,20.5535878 93.3094072,20.3410661 93.5297545,20.2393743 C93.5427708,20.2332822 93.5504411,20.2082107 93.5539276,20.1906372 C93.6359768,19.7719202 93.7108205,19.3515629 93.8017021,18.9349546 C93.8288969,18.8121747 93.900719,18.6987673 93.9541787,18.5820795 C93.9651031,18.5581795 93.9939249,18.5403718 93.9999682,18.5162375 C94.0859687,18.1818731 94.1754558,17.8479773 94.2521589,17.511504 C94.3516406,17.0747448 94.3811597,16.6093995 94.5547878,16.2063814 C94.668448,15.9427794 94.650783,15.6437962 94.7781568,15.4357264 C94.9129684,15.2150037 94.9364442,15.0041221 94.9838607,14.7782445 C94.9933905,14.7323192 95.0596342,14.6760841 95.1082128,14.6657743 C95.2067648,14.6446862 95.31136,14.6477323 95.4133985,14.6477323 C96.6494817,14.6465607 97.8857974,14.6460921 99.1218806,14.6477323 C99.2597139,14.6477323 99.3975472,14.6622597 99.6309107,14.6756155 C99.5530454,14.8558021 99.4768071,14.98608 99.440315,15.1269021 C99.3945255,15.3040426 99.391039,15.4924301 99.3498982,15.6712108 C99.3206116,15.7968025 99.2590166,15.9151305 99.2106703,16.0362703 C99.1969567,16.069777 99.1690647,16.100472 99.1653457,16.1344473 C99.1353618,16.3921915 99.0595883,16.6248642 98.9601066,16.8720642 C98.7778785,17.3238194 98.7537054,17.8376675 98.6326073,18.3177746 C98.5396338,18.6856457 98.3955248,19.0403954 98.2813998,19.4031117 C98.2423509,19.5265946 98.2181778,19.6559353 98.1988858,19.7841044 C98.1723883,19.9610106 98.2051615,20.1353394 98.0266523,20.2855339 C97.9401869,20.3586395 97.9810953,20.5845171 97.9634303,20.7410381 C97.9443707,20.9088061 98.0129387,21.108675 97.7974725,21.2063835 C97.7846887,21.2122413 97.7719048,21.2401245 97.7744616,21.2553549 C97.8458188,21.661419 97.5390061,21.9732895 97.5046059,22.3570939 C97.4894977,22.5276737 97.3930376,22.6914584 97.3335345,22.8580548 C97.3242372,22.8842978 97.3112209,22.9093693 97.3056425,22.9365496 C97.2126689,23.3662794 97.1243441,23.7967121 97.026257,24.2255046 C97.0030136,24.3278994 96.9435105,24.4213902 96.9079482,24.5216761 C96.8679695,24.6341463 96.8433315,24.7524743 96.7989367,24.8626013 C96.7554715,24.9703852 96.6962009,25.0718427 96.6425087,25.1751747 C96.6262383,25.2065726 96.5997409,25.2337529 96.5890489,25.2665567 C96.5049079,25.5170371 96.4584211,25.7881371 96.3324419,26.0149519 C96.1725274,26.3033911 95.9400936,26.5501225 95.7553087,26.8261431 C95.6265403,27.0182796 95.5317073,27.2331445 95.4101444,27.4304359 C95.3422737,27.540563 95.2671976,27.6586566 95.1663213,27.7331681 C94.9754931,27.8749274 94.7767622,27.998176 94.6951779,28.2420957 C94.6761183,28.2985651 94.6396262,28.3744824 94.592907,28.3925245 C94.2368183,28.5293632 94.004152,28.8004632 93.7552154,29.0760151 C93.6315606,29.2128538 93.4944246,29.3909316 93.2208499,29.4019443 C93.0093351,29.4108482 92.8064204,29.6299307 92.5993218,29.7548195 C92.4345262,29.8544024 92.2797253,29.9842118 92.1016809,30.0453674 C91.7948682,30.1512768 91.4708555,30.2063403 91.1589292,30.2988939 C91.0185392,30.3406016 90.8913979,30.4265944 90.7542619,30.4823609 C90.6787209,30.5132902 90.5915582,30.5144618 90.5150874,30.5437509 C90.369119,30.599986 90.2289614,30.6712171 90.0827605,30.7262806 C90.0081492,30.7541638 89.9251703,30.7600216 89.8459104,30.7759549 C89.5883737,30.8275037 89.2824907,30.6857445 89.0816679,30.9784012 C89.0584245,31.0121423 88.9580131,30.996209 88.893164,30.9964433 C88.1310134,30.9978492 87.3688628,31.0027698 86.6067122,30.99246 C86.5042089,30.9912884 86.4061218,30.896626 86.2996671,30.8715546 C86.1232498,30.8296126 85.9417189,30.8111018 85.7627449,30.7792353 C85.6302576,30.755804 85.4491916,30.8373449 85.403867,30.6156849 C85.4008454,30.6013918 85.379229,30.5863958 85.3631911,30.5807723 C85.0768326,30.4793148 84.7811767,30.3987112 84.5055102,30.2740568 C84.1719676,30.1231593 83.7942626,30.0402125 83.5743802,29.6885089 C83.5009311,29.5708839 83.3663519,29.4853597 83.246416,29.4056933 C83.0451283,29.2719007 82.9131058,29.1038984 82.840354,28.8646649 C82.7934024,28.7109557 82.6674233,28.5820836 82.5811903,28.4393871 C82.5209899,28.3395698 82.4628815,28.2381123 82.4136055,28.1324372 C82.3508483,27.998176 82.2943669,27.8604 82.2427666,27.7214525 C82.2176637,27.6532674 82.1965123,27.5789903 82.1965123,27.5075248 C82.1946528,26.5995625 82.1965123,25.6918345 82.1997663,24.7838722 C82.1999988,24.7192018 82.1937231,24.6210248 82.2299827,24.5954846 C82.497979,24.4070971 82.3703728,24.121704 82.4236001,23.8812991 C82.4510273,23.7571132 82.5219197,23.6422999 82.575147,23.5242063 C82.5860714,23.500072 82.6134986,23.4815613 82.619077,23.4567242 C82.7048451,23.0815893 82.7741104,22.7015338 82.8759164,22.3306166 C82.9905063,21.9133054 83.135545,21.5048981 83.2638485,21.0918045 C83.2887189,21.0119038 83.3070812,20.9280198 83.3131245,20.8448387 C83.3317192,20.586626 83.3103353,20.3188064 83.5167366,20.1140169 C83.5227798,20.1079248 83.5241744,20.0966778 83.5262663,20.0875396 C83.622494,19.655701 83.7243,19.2245653 83.8116951,18.7906179 C83.845398,18.6237871 83.7786895,18.4260271 83.9834637,18.3236324 C83.9960152,18.3173059 84.0020584,18.2917658 84.0060098,18.2739581 C84.0952644,17.8775007 84.1789406,17.4798718 84.2747034,17.0850546 C84.3063144,16.9545423 84.367212,16.8310595 84.4157907,16.7047648 C84.4320611,16.6618856 84.4583261,16.6218181 84.4683208,16.577533 C84.5629213,16.1564728 84.644738,15.7321322 84.7521225,15.3143523 C84.8046525,15.10886 84.8946044,14.9113342 84.987578,14.7201349 C85.0089619,14.6758498 85.1112328,14.6517156 85.1763143,14.6514813 C86.5520902,14.6477323 87.9276338,14.6479666 89.3034098,14.651247 C89.3968482,14.6514813 89.4902866,14.6828792 89.515157,14.6875654 Z M59.9518952,26.5033302 C60.2970595,26.6870315 60.6754618,26.8398035 61.1224321,26.792238 C61.4808451,26.7542793 61.8464635,26.7894262 62.2088279,26.7826312 C62.3922182,26.7795851 62.4733376,26.8508162 62.4303374,27.0354547 C62.3666505,27.3091322 62.2948284,27.5814037 62.2327686,27.8555497 C62.2039468,27.9827816 62.1851197,28.1130596 62.1704763,28.2428689 C62.1514167,28.4141516 62.19279,28.6067568 61.9926644,28.7068084 C61.9852265,28.7105574 61.9759292,28.722273 61.9766265,28.7290681 C62.0221835,29.1065461 61.742798,29.4078724 61.728852,29.7612162 C61.7179276,30.0327848 61.6475002,30.2586624 61.4748018,30.4519705 C61.4278502,30.503988 61.3290658,30.5321055 61.2542221,30.5318712 C59.8605487,30.5278879 58.4664104,30.5360888 57.0736668,30.4981302 C56.6506372,30.4864145 56.2143588,30.3905805 55.8166645,30.244135 C55.579582,30.1569706 55.3834078,29.9151598 55.2095473,29.7080272 C55.0459138,29.5130789 54.9364375,29.2715023 54.801161,29.0519512 C54.6988901,28.8860577 54.7704797,28.1104821 54.9043616,27.9448229 C54.9213293,27.9239691 54.9429457,27.8979604 54.9438754,27.8740605 C54.9573565,27.4661218 55.078687,27.0902839 55.2086175,26.7043707 C55.3566779,26.2645654 55.3322724,25.7593869 55.5133383,25.3399669 C55.6307174,25.0683983 55.5884145,24.7427034 55.7350802,24.5536129 C55.9349733,24.2951659 55.8155023,23.9903248 55.9468275,23.7902216 C56.1634558,23.4603091 56.0228333,23.0296421 56.3080297,22.7428432 C56.3256946,22.7250354 56.3324352,22.6929345 56.3382461,22.6662229 C56.4384251,22.1908021 56.5204742,21.710695 56.6429669,21.2413664 C56.7405891,20.8667001 56.9037576,20.5098416 57.006261,20.1363469 C57.0697154,19.9048458 57.0646019,19.6550683 57.1094616,19.4172408 C57.1315428,19.2996157 57.1961594,19.1901916 57.2440408,19.0781901 C57.2547328,19.0535872 57.2844843,19.0355451 57.2902951,19.0109423 C57.3762957,18.6461172 57.4553232,18.2794175 57.5466697,17.9159983 C57.5740969,17.8070428 57.6335999,17.7065226 57.6800867,17.602722 C57.6949625,17.5694496 57.7244816,17.5406291 57.7314546,17.5064194 C57.835585,17.0010066 57.8744014,16.4700536 58.058489,15.9965074 C58.2098035,15.6070794 58.1498355,15.1532154 58.4366589,14.8151019 C58.4427022,14.8080725 58.4492103,14.7998716 58.4510698,14.7914363 C58.5349784,14.4523856 58.6235357,14.1145065 58.6995416,13.7738156 C58.7495149,13.5498125 58.654217,13.2953487 58.8889752,13.1076641 C58.9549864,13.0547094 58.9187267,12.876163 58.9359268,12.7559605 C58.9631216,12.5673387 58.8673588,12.3341974 59.1221063,12.2240703 C59.1381443,12.217041 59.1418632,12.1736931 59.1453497,12.1465128 C59.1788202,11.8936892 59.2511071,11.6621881 59.3459401,11.4187371 C59.5200331,10.9723711 59.5435089,10.4685984 59.6560069,9.99505213 C59.7124883,9.75722458 59.8180133,9.52923817 59.9214464,9.30593801 C59.9400411,9.26610483 60.0553283,9.25813819 60.1262206,9.25790388 C60.8881388,9.25579506 61.6519164,9.22931771 62.4112778,9.27547734 C62.6560306,9.29047336 62.8893942,9.49854318 63.1276389,9.61874568 C63.1736608,9.64194265 63.2159638,9.67849546 63.26431,9.68950816 C63.5697281,9.75792752 63.6987289,9.95521894 63.8179675,10.2478757 C63.9469683,10.5644324 64.068996,10.8695077 64.0020551,11.1982487 C63.9083842,11.6567989 63.7617185,12.1043365 63.6373664,12.5565603 C63.635042,12.5654642 63.6273717,12.5727279 63.6250474,12.5813975 C63.5281225,12.9694195 63.4365435,13.3590818 63.3317159,13.7449951 C63.2908075,13.895424 63.1973691,14.0331999 63.1683149,14.1848003 C63.1318227,14.3736565 63.1104388,14.5753999 63.1413525,14.7616786 C63.1499526,14.8141647 63.364489,14.8591527 63.4851222,14.8607929 C64.1726615,14.8706341 64.8604333,14.8621988 65.5479726,14.8703998 C65.6653517,14.8718056 65.8833747,14.925229 65.8829098,14.9524093 C65.8801206,15.1550899 65.8396771,15.3584735 65.7983039,15.5590453 C65.7869146,15.6141088 65.6995195,15.6628459 65.703006,15.7099427 C65.7341522,16.1138981 65.5891134,16.4712252 65.4219935,16.8203514 C65.3683013,16.9323529 65.2676574,17.0209232 65.191884,17.1228493 C65.0226721,17.3503671 64.8560171,17.5799937 64.6872701,17.8079801 C64.6768106,17.8220388 64.6598429,17.8335202 64.6435725,17.8403152 C64.4050954,17.9401325 64.0729474,17.972702 63.9474331,18.1521857 C63.7126749,18.487956 63.2631479,18.1983453 63.0718548,18.5437224 C63.0527952,18.5779321 62.9502919,18.5709027 62.8863726,18.5727772 C62.72855,18.5774635 62.570495,18.5758233 62.41244,18.5779321 C61.959194,18.5835556 61.966167,18.5842586 61.9268856,19.044449 C61.9178207,19.1503584 61.8299607,19.2471296 61.802766,19.3546792 C61.7579062,19.5320541 61.7423332,19.7169269 61.6967761,19.8938331 C61.6649327,20.0182533 61.5866025,20.1311921 61.5594077,20.2558465 C61.5180345,20.4439997 61.5024614,20.6377765 61.4778234,20.8292101 C61.4601585,20.9667517 61.532213,21.1417834 61.3197684,21.1966126 C61.301871,21.2010646 61.2869952,21.2399605 61.280952,21.2655006 C61.1830973,21.6874981 61.0868697,22.1101985 60.9904096,22.5331332 C60.9053389,22.9059249 60.8944145,23.3220646 60.7126512,23.6383869 C60.564126,23.8973026 60.6161911,24.1548125 60.5239149,24.3860792 C60.4021196,24.690686 60.3816654,25.0360631 60.25127,25.3006023 C60.1427234,25.5206221 60.130172,25.7188508 60.087869,25.9320755 C60.0523066,26.1117934 60.0034955,26.288934 59.9518952,26.5033302 Z M47.0720148,30.2884904 C47.1366314,30.0103611 47.0520255,29.7800315 47.2614484,29.564698 C47.3637193,29.4594915 47.3070055,29.2064337 47.3444273,29.0246069 C47.368368,28.909325 47.4420495,28.80529 47.4773795,28.6911797 C47.5145689,28.5707429 47.5406015,28.4456198 47.5573367,28.3207311 C47.5770936,28.1735826 47.5271203,28.0280743 47.7072565,27.9111522 C47.7886084,27.8584318 47.7625758,27.6341944 47.7802408,27.4872802 C47.8004625,27.3174034 47.7423541,27.1203463 47.953404,27.0224035 C47.9668852,27.0160771 47.9761825,26.9926458 47.9801339,26.9753066 C48.0751993,26.5575268 48.1630593,26.1378725 48.26626,25.7224358 C48.3136765,25.5317051 48.4052554,25.3524558 48.4515097,25.1614908 C48.5530833,24.7406649 48.5637753,24.2774284 48.7532089,23.904168 C48.9184694,23.5784731 48.8396743,23.2141166 48.9881995,22.9512176 C49.1625249,22.6421589 49.116503,22.3370836 49.1948332,22.0390376 C49.2780445,21.7222467 49.4465591,21.4284183 49.5774193,21.1242802 C49.5883437,21.0987401 49.5995006,21.0727314 49.6048465,21.0457854 C49.7029336,20.5488079 49.7373338,20.0265245 49.9183998,19.5623507 C50.0520493,19.2200196 50.0150923,18.8209848 50.277975,18.5182526 C50.3539808,18.4310883 50.3105157,18.2464497 50.3451484,18.1128914 C50.3865216,17.9519185 50.4667113,17.801021 50.504598,17.6395794 C50.5424847,17.4781379 50.5492253,17.3091983 50.5680524,17.1433048 C50.5873444,16.9757711 50.5236576,16.7789483 50.7356372,16.6803026 C50.7537671,16.6718673 50.7600428,16.6317998 50.7665509,16.6050881 C50.8625461,16.195275 50.9613305,15.7861647 51.0522121,15.3754143 C51.1233369,15.0534684 51.2435052,14.8418839 51.623767,14.8575829 C52.4126475,14.889918 53.2036199,14.8671897 53.9936626,14.8690642 C54.1721717,14.8695328 54.615888,15.1296201 54.7404725,15.2809862 C54.8132243,15.3695564 54.8985275,15.470311 54.9994038,15.5080353 C55.227189,15.5935595 55.1906969,15.7906167 55.2350918,15.9602592 C55.2876218,16.1617682 55.4166226,16.3663233 55.3989576,16.5589285 C55.3540979,17.0495796 55.3108652,17.5596787 55.1370047,18.0111996 C55.0433338,18.254885 55.0596042,18.5386379 54.9352521,18.7206989 C54.7255968,19.0269459 54.8666841,19.4435541 54.6960777,19.6408455 C54.4359842,19.9412346 54.668418,20.3625291 54.3404539,20.6031684 C54.2749075,20.6514369 54.3209294,20.8381842 54.2900157,20.9541691 C54.1593879,21.4441173 54.0192303,21.9312537 53.8823267,22.4195617 C53.8772132,22.4373695 53.869078,22.4544743 53.8651266,22.4727507 C53.7605314,22.9634019 53.6594227,23.4552246 53.549249,23.9449384 C53.5285624,24.0367891 53.4744053,24.1218446 53.4321024,24.2080718 C53.4162969,24.2401726 53.3765507,24.2636039 53.3700425,24.2957048 C53.2819501,24.7186395 53.2024577,25.1439173 53.1092517,25.5656805 C53.0855435,25.6732301 53.0160458,25.769767 52.9751374,25.8742705 C52.9423642,25.9583888 52.9095911,26.0450846 52.8968072,26.1336548 C52.8140607,26.7030351 52.6474057,27.248984 52.4554153,27.7888409 C52.4219448,27.8837376 52.4372855,27.9959734 52.4066042,28.092276 C52.3647661,28.221851 52.2850413,28.3397104 52.2492465,28.4702227 C52.2060138,28.6295554 52.1890461,28.7966205 52.1653379,28.9608738 C52.1425593,29.1188006 52.2013651,29.2945353 52.0037963,29.404428 C51.9482446,29.435123 51.9519636,29.5911754 51.9454554,29.6909926 C51.9115201,30.2085898 51.8306331,30.2877875 51.3123056,30.2880218 C50.0385681,30.2887247 48.765063,30.2882561 47.4915579,30.2884904 L47.0720148,30.2884904 Z M55.7563944,12.9169569 C55.6027556,13.0252094 55.4003057,13.2356224 55.1546232,13.323724 C54.8838377,13.4209639 54.7099772,13.7016707 54.3755049,13.6775364 C53.9880377,13.6494189 53.5961542,13.6644149 53.2070599,13.6829256 C52.8616632,13.6990932 52.6336456,13.5383546 52.4465363,13.2674889 C52.3700656,13.1568933 52.2724434,13.0341133 52.155994,12.9846733 C51.93309,12.889308 51.9681875,12.710293 51.9616793,12.5406505 C51.9512198,12.2695505 51.954009,11.9979819 51.9447116,11.7268819 C51.9291386,11.2659885 52.1023018,10.8756233 52.3709953,10.5164217 C52.4655959,10.3896584 52.5413693,10.2486021 52.6366672,10.1223074 C52.8549226,9.83316538 53.1191999,9.59791527 53.4427478,9.42991295 C53.5670999,9.36547691 53.7165549,9.29869775 53.7855878,9.18903933 C53.9055236,8.99854297 54.0740382,9.01260175 54.2430176,9.00955568 C54.7064907,9.00135473 55.1699638,8.99807435 55.6334369,9.00112042 C56.0241582,9.00369786 56.2921544,9.1649051 56.393728,9.57776436 C56.4241769,9.70077861 56.5664264,9.791692 56.6322052,9.91142587 C56.7026326,10.0393607 56.7593465,10.1801827 56.7942116,10.3221763 C56.9292556,10.8737488 56.6691622,11.3718979 56.5568966,11.8876205 C56.5269126,12.0251622 56.3844307,12.1395068 56.2886679,12.2604123 C56.1329373,12.4570008 55.9730228,12.6503089 55.7563944,12.9169569 Z" id="Combined-Shape" fill="#343131"></path>
            </g>
        </g>
    </g>
</svg>