<?xml version="1.0" encoding="UTF-8"?>
<svg width="145px" height="40px" viewBox="0 0 145 40" version="1.1" xmlns="http://www.w3.org/2000/svg" xmlns:xlink="http://www.w3.org/1999/xlink">
    <title>headerLogo</title>
    <defs>
        <linearGradient x1="34.6149577%" y1="30.7687316%" x2="34.6149577%" y2="100%" id="linearGradient-1">
            <stop stop-color="#E11B7B" offset="0%"></stop>
            <stop stop-color="#EE4455" offset="100%"></stop>
        </linearGradient>
        <linearGradient x1="65.1514897%" y1="0%" x2="65.1514897%" y2="69.6970207%" id="linearGradient-2">
            <stop stop-color="#FB822A" offset="0%"></stop>
            <stop stop-color="#FB822A" offset="100%"></stop>
        </linearGradient>
        <linearGradient x1="19.4097069%" y1="84.0908518%" x2="98.4966607%" y2="40.1514476%" id="linearGradient-3">
            <stop stop-color="#E11B7B" offset="0%"></stop>
            <stop stop-color="#EF4A4E" offset="100%"></stop>
        </linearGradient>
        <linearGradient x1="50.1329401%" y1="9.009025%" x2="70.5735361%" y2="28.08325%" id="linearGradient-4">
            <stop stop-color="#ED4454" offset="0%"></stop>
            <stop stop-color="#FF8212" offset="100%"></stop>
        </linearGradient>
        <linearGradient x1="0%" y1="32.5896453%" x2="106.0215%" y2="41.0099896%" id="linearGradient-5">
            <stop stop-color="#FF8212" offset="0%"></stop>
            <stop stop-color="#ED4454" offset="100%"></stop>
        </linearGradient>
    </defs>
    <g id="headerLogo" stroke="none" stroke-width="1" fill="none" fill-rule="evenodd">
        <path d="M64.517,17.9091 C64.2045,14.3011 61.5625,12.2557 57.8977,12.2557 C53.9773,12.2557 50.8807,14.8693 50.8807,19.7273 C50.8807,24.5639 53.892,27.1989 57.8977,27.1989 C62.1591,27.1989 64.3182,24.2443 64.517,21.7727 L60.5114,21.7443 C60.3125,22.9872 59.4318,23.7614 57.983,23.7614 C56.0582,23.7614 54.9432,22.3977 54.9432,19.7273 C54.9432,17.1989 56.0227,15.6932 58.0114,15.6932 C59.5312,15.6932 60.3977,16.5881 60.5114,17.9091 L64.517,17.9091 Z M66.3086,27 L76.1381,27 L76.1381,23.8182 L70.2575,23.8182 L70.2575,12.4545 L66.3086,12.4545 L66.3086,27 Z M91.2589,19.7273 C91.2589,14.8693 88.1339,12.2557 84.185,12.2557 C80.2077,12.2557 77.1112,14.8693 77.1112,19.7273 C77.1112,24.5568 80.2077,27.1989 84.185,27.1989 C88.1339,27.1989 91.2589,24.5852 91.2589,19.7273 Z M87.1964,19.7273 C87.1964,22.3409 86.1452,23.7614 84.185,23.7614 C82.2248,23.7614 81.1737,22.3409 81.1737,19.7273 C81.1737,17.1136 82.2248,15.6932 84.185,15.6932 C86.1452,15.6932 87.1964,17.1136 87.1964,19.7273 Z M96.1452,12.4545 L91.685,12.4545 L96.4862,27 L101.884,27 L106.685,12.4545 L102.225,12.4545 L99.2418,22.7102 L99.1282,22.7102 L96.1452,12.4545 Z M108.086,27 L118.54,27 L118.54,23.8182 L112.035,23.8182 L112.035,21.3182 L118.029,21.3182 L118.029,18.1364 L112.035,18.1364 L112.035,15.6364 L118.569,15.6364 L118.569,12.4545 L108.086,12.4545 L108.086,27 Z M120.527,27 L124.476,27 L124.476,22.1989 L125.84,22.1989 L128.397,27 L132.686,27 L129.732,21.5739 C131.28,20.8281 132.203,19.4148 132.203,17.3977 C132.203,14.3011 130.037,12.4545 126.806,12.4545 L120.527,12.4545 L120.527,27 Z M124.476,19.1307 L124.476,15.608 L125.868,15.608 C127.253,15.608 128.084,16.1477 128.084,17.3977 C128.084,18.6406 127.253,19.1307 125.868,19.1307 L124.476,19.1307 Z" id="Shape" fill="#000000" fill-rule="nonzero"></path>
        <g id="Group">
            <path d="M20,32.7928 C22.66,32.7928 24.6847,30.6995 24.6847,28.2883 L31.8919,28.2883 C31.8919,34.8284 26.4903,40 20,40 L20,32.7928 Z" id="Path" fill="#FB822A"></path>
            <path d="M32.7928,20.1802 C32.7928,17.6947 30.7737,15.6757 28.2883,15.6757 L28.2883,8.46844 C34.7542,8.46844 40,13.7143 40,20.1802 L32.7928,20.1802 Z" id="Path" fill="url(#linearGradient-1)"></path>
            <path d="M7.20721,20 C7.20721,22.5849 9.30697,24.6847 11.8919,24.6847 L11.8919,31.8919 C5.32654,31.8919 -6.43041176e-13,26.5654 -6.43041176e-13,20 L7.20721,20 Z" id="Path" fill="url(#linearGradient-2)"></path>
            <path d="M20.1802,7.20721 C17.769,7.20721 15.6757,9.2319 15.6757,11.8919 L8.46844,11.8919 C8.46844,5.40162 13.64,1.0658141e-14 20.1802,1.0658141e-14 L20.1802,7.20721 Z" id="Path" fill="url(#linearGradient-3)"></path>
            <path d="M24.6847,11.8018 C24.6847,9.26661 22.6253,7.20721 20.0901,7.20721 L20.0901,0 C26.6057,0 31.8919,5.28618 31.8919,11.8018 C31.8919,18.3174 26.6057,23.6036 20.0901,23.6036 C17.5549,23.6036 15.4955,25.663 15.4955,28.1982 C15.4955,30.7334 17.5549,32.7928 20.0901,32.7928 L20.0901,40 C13.5745,40 8.28827,34.7138 8.28827,28.1982 C8.28827,21.6826 13.5745,16.3964 20.0901,16.3964 C22.6253,16.3964 24.6847,14.337 24.6847,11.8018 Z" id="Path" fill="url(#linearGradient-4)"></path>
            <path d="M11.8018,15.4955 C9.26661,15.4955 7.20721,17.5549 7.20721,20.0901 L0,20.0901 C0,13.5745 5.28618,8.28827 11.8018,8.28827 C18.3174,8.28827 23.6036,13.5745 23.6036,20.0901 C23.6036,22.6253 25.663,24.6847 28.1982,24.6847 C30.7334,24.6847 32.7928,22.6253 32.7928,20.0901 L40,20.0901 C40,26.6057 34.7138,31.8919 28.1982,31.8919 C21.6826,31.8919 16.3964,26.6057 16.3964,20.0901 C16.3964,17.5549 14.337,15.4955 11.8018,15.4955 Z" id="Path" fill="url(#linearGradient-5)"></path>
        </g>
    </g>
</svg>