<?xml version="1.0" encoding="UTF-8"?>
<svg width="18px" height="15px" viewBox="0 0 18 15" version="1.1" xmlns="http://www.w3.org/2000/svg" xmlns:xlink="http://www.w3.org/1999/xlink">
    <title></title>
    <g id="Page-1" stroke="none" stroke-width="1" fill="none" fill-rule="evenodd">
        <g id="01-swap-app" transform="translate(-1103.000000, -413.000000)" fill="#F99E3C" fill-rule="nonzero">
            <path d="M1105.6875,420.34375 C1105.89258,420.34375 1106.06632,420.272542 1106.20874,420.130127 C1106.35116,419.987712 1106.42236,419.813965 1106.42236,419.608887 L1106.42236,418.15625 C1106.42236,418.008138 1106.4366,417.862874 1106.46509,417.720459 C1106.49357,417.578044 1106.5306,417.444173 1106.57617,417.318848 C1106.63314,417.182129 1106.7015,417.053955 1106.78125,416.934326 C1106.861,416.814697 1106.95215,416.70931 1107.05469,416.618164 C1107.15723,416.515625 1107.26831,416.424479 1107.38794,416.344727 C1107.50757,416.264974 1107.63574,416.196615 1107.77246,416.139648 C1107.89779,416.082682 1108.03166,416.039958 1108.17407,416.011475 C1108.31649,415.982992 1108.46175,415.96875 1108.60986,415.96875 L1117.05225,415.96875 L1115.37744,417.643555 C1115.24072,417.780273 1115.17236,417.951172 1115.17236,418.15625 C1115.17236,418.361328 1115.24072,418.532227 1115.37744,418.668945 C1115.52555,418.817057 1115.6993,418.891113 1115.89868,418.891113 C1116.09806,418.891113 1116.26611,418.817057 1116.40283,418.668945 L1119.3252,415.746582 C1119.35938,415.712402 1119.39071,415.675374 1119.41919,415.635498 C1119.44767,415.595622 1119.46761,415.558594 1119.479,415.524414 C1119.50179,415.478841 1119.51888,415.433268 1119.53027,415.387695 C1119.54167,415.342122 1119.54736,415.296549 1119.54736,415.250977 L1119.54736,415.233887 L1119.54736,415.233887 C1119.54736,415.188314 1119.54167,415.142741 1119.53027,415.097168 C1119.51888,415.051595 1119.50179,415.006022 1119.479,414.960449 C1119.46761,414.914876 1119.44767,414.872152 1119.41919,414.832275 C1119.39071,414.792399 1119.35938,414.755371 1119.3252,414.721191 L1116.40283,411.815918 C1116.26611,411.667806 1116.09806,411.59375 1115.89868,411.59375 C1115.6993,411.59375 1115.52555,411.667806 1115.37744,411.815918 C1115.24072,411.952637 1115.17236,412.120687 1115.17236,412.320068 C1115.17236,412.51945 1115.24072,412.693197 1115.37744,412.841309 L1117.05225,414.516113 L1108.60986,414.516113 C1108.35921,414.516113 1108.11711,414.5389 1107.88354,414.584473 C1107.64998,414.630046 1107.42497,414.698405 1107.2085,414.789551 C1106.98063,414.880697 1106.76986,414.991781 1106.57617,415.122803 C1106.38249,415.253825 1106.2002,415.404785 1106.0293,415.575684 C1105.8584,415.746582 1105.70744,415.931722 1105.57642,416.131104 C1105.44539,416.330485 1105.33431,416.538411 1105.24316,416.754883 C1105.15202,416.971354 1105.08081,417.19637 1105.02954,417.429932 C1104.97827,417.663493 1104.95264,417.905599 1104.95264,418.15625 L1104.95264,419.608887 C1104.95264,419.813965 1105.02384,419.987712 1105.16626,420.130127 C1105.30868,420.272542 1105.48242,420.34375 1105.6875,420.34375 Z M1108.60132,429.09375 C1108.8007,429.09375 1108.97445,429.019694 1109.12256,428.871582 C1109.25928,428.734863 1109.32764,428.566813 1109.32764,428.367432 C1109.32764,428.16805 1109.25928,427.994303 1109.12256,427.846191 L1107.44775,426.171387 L1115.89014,426.171387 C1116.14079,426.171387 1116.38289,426.1486 1116.61646,426.103027 C1116.85002,426.057454 1117.07503,425.989095 1117.2915,425.897949 C1117.51937,425.806803 1117.73014,425.695719 1117.92383,425.564697 C1118.11751,425.433675 1118.2998,425.282715 1118.4707,425.111816 C1118.6416,424.940918 1118.79256,424.755778 1118.92358,424.556396 C1119.05461,424.357015 1119.16569,424.149089 1119.25684,423.932617 C1119.34798,423.716146 1119.41919,423.49113 1119.47046,423.257568 C1119.52173,423.024007 1119.54736,422.781901 1119.54736,422.53125 L1119.54736,421.078613 C1119.54736,420.873535 1119.47616,420.699788 1119.33374,420.557373 C1119.19132,420.414958 1119.01758,420.34375 1118.8125,420.34375 C1118.60742,420.34375 1118.43368,420.414958 1118.29126,420.557373 C1118.14884,420.699788 1118.07764,420.873535 1118.07764,421.078613 L1118.07764,422.53125 C1118.07764,422.679362 1118.0634,422.824626 1118.03491,422.967041 C1118.00643,423.109456 1117.9694,423.243327 1117.92383,423.368652 C1117.86686,423.505371 1117.7985,423.633545 1117.71875,423.753174 C1117.639,423.872803 1117.54785,423.97819 1117.44531,424.069336 C1117.34277,424.171875 1117.23169,424.263021 1117.11206,424.342773 C1116.99243,424.422526 1116.86426,424.490885 1116.72754,424.547852 C1116.60221,424.604818 1116.46834,424.647542 1116.32593,424.676025 C1116.18351,424.704508 1116.03825,424.71875 1115.89014,424.71875 L1107.44775,424.71875 L1109.12256,423.043945 C1109.25928,422.907227 1109.32764,422.736328 1109.32764,422.53125 C1109.32764,422.326172 1109.25928,422.155273 1109.12256,422.018555 C1108.97445,421.870443 1108.8007,421.796387 1108.60132,421.796387 C1108.40194,421.796387 1108.23389,421.870443 1108.09717,422.018555 L1105.1748,424.940918 C1105.14062,424.975098 1105.10929,425.012126 1105.08081,425.052002 C1105.05233,425.091878 1105.03239,425.128906 1105.021,425.163086 C1104.99821,425.208659 1104.98112,425.254232 1104.96973,425.299805 C1104.95833,425.345378 1104.95264,425.390951 1104.95264,425.436523 L1104.95264,425.453613 L1104.95264,425.453613 C1104.95264,425.499186 1104.95833,425.544759 1104.96973,425.590332 C1104.98112,425.635905 1104.99821,425.681478 1105.021,425.727051 C1105.03239,425.772624 1105.05233,425.815348 1105.08081,425.855225 C1105.10929,425.895101 1105.14062,425.932129 1105.1748,425.966309 L1108.08008,428.871582 C1108.22819,429.019694 1108.40194,429.09375 1108.60132,429.09375 Z" id="" transform="translate(1112.250000, 420.343750) rotate(90.000000) translate(-1112.250000, -420.343750) "></path>
        </g>
    </g>
</svg>