<?xml version="1.0" standalone="no"?>
<!DOCTYPE svg PUBLIC "-//W3C//DTD SVG 1.1//EN" "http://www.w3.org/Graphics/SVG/1.1/DTD/svg11.dtd" >
<svg xmlns="http://www.w3.org/2000/svg">
<metadata>Generated by IcoMoon</metadata>
<defs>
<font id="fontoed" horiz-adv-x="1024">
<font-face units-per-em="1024" ascent="960" descent="-64" />
<missing-glyph horiz-adv-x="1024" />
<glyph unicode="&#x20;" horiz-adv-x="512" d="" />
<glyph unicode="&#xe900;" glyph-name="test" d="M743.718 497.45c154.725 0 280.282-125.738 280.282-280.283 0-154.25-125.833-279.717-280.282-279.717-154.251 0-279.718 125.833-279.718 280.288 0 154.351 125.365 279.712 279.718 279.712zM743.718-1.255c121.154 0 218.993 97.833 218.993 218.993 0 121.154-97.839 218.992-218.993 218.992-121.159 0-218.998-97.839-218.998-218.992 0-121.16 97.839-218.993 218.998-218.993zM874.712 233.834c14.582 0 26.621-11.765 26.621-26.645v-20.544c0-14.447-12.18-26.645-26.621-26.645h-158.973c-14.583 0-26.62 11.761-26.62 26.645v159.209c0 14.59 11.742 26.645 26.62 26.645h20.509c14.583 0 26.62-11.761 26.62-26.645v-112.020h111.844zM213.333 269.583c0 14.447 12.183 26.645 26.621 26.645h127.069c14.873 0 26.62-12.056 26.62-26.645v-20.544c0-14.88-12.038-26.645-26.62-26.645h-127.069c-14.873 0-26.621 12.060-26.621 26.645v20.544zM462.178 518.783c14.443 0 26.621-12.196 26.621-26.645v-20.544c0-14.884-12.037-26.645-26.621-26.645h-222.224c-14.874 0-26.621 12.057-26.621 26.645v20.544c0 14.879 12.043 26.645 26.621 26.645h222.224zM716.305 741.333c14.198 0 25.661-11.765 26.597-25.943l0.023-0.702v-20.544c0-14.879-12.038-26.644-26.62-26.644h-476.351c-14.874 0-26.621 12.056-26.621 26.644v20.544c0 14.883 12.041 26.645 26.621 26.645h476.351zM943.444 602.101c0.357-1.336 0.556-2.535 0.556-4.061 0-20.136-16.2-36.291-36.363-36.291-17.466 0-31.96 12.13-35.518 28.468h-0.837v10.667l0.001 212.783c-0.533 35.581-34.159 72.73-70.412 73.189l-656.167 0.009c-37.893-1.535-72.071-36.884-72.558-77.594l-0.003-667.028c0.909-37.109 41.9-75.052 74.983-76.136h276.343c19.558 0 35.218-16.123 35.218-35.721 0-19.366-15.332-34.902-35.218-35.719h-278.624c-71.218 0-144.844 74.457-144.844 144.469v676.395c0 76.071 71.598 144.469 144.844 144.469h653.74c76.492 0 144.844-66.599 144.844-144.469v-214.647c0 1.018 0.152 0.707 0.068 1.043l-0.053 0.175z" />
<glyph unicode="&#xe901;" glyph-name="2hw" d="M965.025 769c0 35.262-26.762 63.667-58.975 63.667h-569.433c-32.213 0-58.975-28.405-58.975-63.667v-296.785c-9.416-1.469-18.832-3.428-28.744-4.408-9.416-1.469-19.824-4.897-30.231-8.815v310.008c0 70.523 53.028 127.333 117.95 127.333v63.667h59.471v-63.667h195.758v63.667h58.975v-63.667h196.254v63.667h58.975v-63.667c64.922 0 117.95-56.81 117.95-127.333v-700.333c0-70.523-53.028-127.333-117.95-127.333h-451.978c22.302 21.059 44.107 42.118 65.913 63.667h386.064c32.213 0 58.975 28.405 58.975 63.667v700.333zM876.314 196h-167.509l62.94 63.667h104.569c16.354 0 29.735-14.203 29.735-31.833s-13.381-31.833-29.735-31.833zM876.314 387h-214.59l-61.949 63.667h276.539c16.354 0 29.735-14.203 29.735-31.833s-13.381-31.833-29.735-31.833zM876.314 578h-403.41l-58.48 56.81c-2.478 2.938-4.46 5.387-6.443 6.856h468.332c16.354 0 29.735-14.203 29.735-31.833s-13.381-31.833-29.735-31.833zM351.716 551.669v-135.574c-16.68-2.016-35.267-6.552-53.854-9.072-14.297-2.016-30.501-11.088-45.275-15.624-86.261-27.216-209.219-167.326-230.188-264.597-3.813-22.68-11.915-47.375-16.204-72.575-1.906-13.608-4.289-31.752-6.196-47.375l1.906-65.519c70.057 121.966 176.811 171.862 265.455 182.95 12.391 0 36.697 4.536 42.892 4.536h41.462v-128.518c5.719-25.2 28.595-38.807 42.892-38.807 10.485 0 16.68 0 28.595 13.608 94.839 95.255 183.007 197.061 275.463 298.364-90.074 101.807-180.624 203.613-275.463 303.404-10.008 13.608-14.297 9.072-28.595 9.072-12.391 0-42.892-7.056-42.892-34.272z" />
<glyph unicode="&#xe902;" glyph-name="homework" d="M804.513-64h-579.692c-71.146 0-128.821 57.308-128.821 128v704c0 70.692 57.675 128 128.821 128v64h64.41v-64h193.231v64h64.41v-64h193.231v64h64.41v-64c71.146 0 128.821-57.308 128.821-128v-704c0-70.692-57.675-128-128.821-128zM869.333 768c0 35.346-35.287 64-78.815 64h-551.704c-43.528 0-78.815-28.654-78.815-64v-704c0-35.346 35.287-64 78.815-64h551.704c43.528 0 78.815 28.654 78.815 64v704zM708.952 192h-388.571c-17.884 0-32.381 14.327-32.381 32s14.497 32 32.381 32h388.571c17.884 0 32.381-14.327 32.381-32s-14.497-32-32.381-32zM708.952 384h-388.571c-17.884 0-32.381 14.327-32.381 32s14.497 32 32.381 32h388.571c17.884 0 32.381-14.327 32.381-32s-14.497-32-32.381-32zM708.952 576h-388.571c-17.884 0-32.381 14.327-32.381 32s14.497 32 32.381 32h388.571c17.884 0 32.381-14.327 32.381-32s-14.497-32-32.381-32z" />
<glyph unicode="&#xe903;" glyph-name="book" d="M896.359 957.333c-0.203-0.056-0.549-0.151-1.353-0.372-1.956-0.538-1.956-0.538-4.964-1.365-5.437-1.495-11.75-3.229-18.867-5.182-20.335-5.58-43.041-11.798-67.554-18.494-70.036-19.132-140.516-38.264-206.918-56.121-3.741-1.006-7.462-2.006-11.16-2.999-14.514-3.899-28.675-7.693-42.454-11.375l-0.583-0.088c-10.23-0.404-20.306-0.451-35.382-0.276-1.963 0.023-3.539 0.043-7.062 0.089-10.58 0.139-15.267 0.185-21.117 0.185l-0.691 0.091c-21.178 5.679-43.529 11.706-66.911 18.039-3.569 0.967-7.16 1.94-10.772 2.92-60.528 16.417-124.738 34.006-188.522 51.595-22.324 6.156-43.001 11.873-61.516 17.003-6.48 1.796-12.227 3.39-17.177 4.764-2.739 0.76-2.739 0.76-4.519 1.255-0.688 0.191-1.008 0.28-1.197 0.333-69.053-0.195-124.971-56.234-124.971-125.333v-672c0-60.717 43.756-98.659 126.048-125.431 0.337-0.094 0.337-0.094 1.981-0.551 2.278-0.633 2.278-0.633 5.781-1.605 6.334-1.758 13.69-3.797 21.987-6.093 23.706-6.562 50.199-13.874 78.828-21.749 81.677-22.466 164.075-44.932 242.005-65.905h64.098c78.573 20.972 161.355 43.439 243.212 65.905 28.691 7.874 55.217 15.187 78.933 21.749 8.3 2.297 15.657 4.336 21.988 6.093 2.216 0.615 3.502 0.973 5.779 1.605 1.643 0.457 1.643 0.457 1.979 0.551l0.047 0.013c76.467 19.778 126.001 63.59 126.001 125.418v672c0 69.1-55.92 125.139-124.975 125.333zM128 898.667l0.702-0.094 353.965-96.536v-805.516l-3.36 0.904c-3.55 0.955-3.55 0.955-7.1 1.911-4.205 1.132-8.434 2.272-12.689 3.42-73.556 19.835-151.61 41.086-229.161 62.338-27.143 7.438-52.284 14.345-74.798 20.543-7.88 2.169-14.869 4.095-20.888 5.756-3.33 0.919-3.33 0.919-5.496 1.516-1.564 0.432-1.564 0.432-1.881 0.519-42.384 11.641-65.96 32.904-65.96 66.571v672c0 36.819 29.848 66.667 66.667 66.667zM962.667 831.945v-672.576c0-32.739-23.077-52.869-65.951-66.624-0.318-0.089-0.318-0.089-1.867-0.519-2.146-0.597-3.359-0.934-5.448-1.513-5.97-1.657-12.908-3.579-20.74-5.744-22.378-6.186-47.431-13.078-74.562-20.501-77.515-21.208-156.14-42.416-231.077-62.21-6.16-1.627-12.275-3.239-18.343-4.836l-3.345-0.88v805.413l354.667 96.713c36.819 0 66.667-29.873 66.667-66.722z" />
<glyph unicode="&#xe904;" glyph-name="teaching" d="M994.72 376.54l-434.432-207.429c-29.63-19.259-66.914-19.259-96.544 0l-434.464 207.429c-23.040 12.99-29.28 61.209-29.28 87.46 28.992-17.614 69.792-37.235 68.256-36.249l443.744-217.358 443.744 217.358c0.768 0.204 40.32 21.389 68.256 36.249 0-26.898-7.84-76.851-29.28-87.46zM994.297 596.254l-433.7-208.457c-29.598-19.284-66.783-19.284-96.381 0l-433.732 208.457c-15.756 11.722-25.151 30.952-25.151 51.482s9.395 39.76 25.151 51.482l433.732 244.989c29.112 21.058 67.27 21.058 96.381 0l433.7-244.989c15.32-12.033 24.369-31.15 24.369-51.482s-9.049-39.449-24.369-51.482zM512 901.333l-442.667-254.242 442.667-199.092 442.667 199.16-442.667 254.173zM512-8.274l443.744 217.392c0.768 0 40.32 21.355 68.256 36.215 0-26.898-7.84-76.851-29.28-87.46l-434.432-207.429c-29.63-19.259-66.914-19.259-96.544 0l-434.464 207.429c-23.040 12.99-29.28 61.209-29.28 87.46 28.992-17.614 69.792-37.235 68.256-36.215l443.744-217.392z" />
<glyph unicode="&#xe905;" glyph-name="present" d="M896-64h-768c-70.692 0-128 57.308-128 128v768c0 70.692 57.308 128 128 128h768c70.692 0 128-57.308 128-128v-768c0-70.692-57.308-128-128-128zM896.159 0c35.259 0 63.841 28.654 63.841 64v256l-191.524 192-272.476-273.152 235.192-238.848h164.966zM64 63.65c0-35.153 28.654-63.65 64-63.65h512l-321.792 320-254.208-226.435v-29.915zM960 832.008c0 35.342-28.654 63.992-64 63.992h-768c-35.346 0-64-28.65-64-63.992v-650.674l256 234.724 129.856-131.536 318.144 323.513 192-196.073v420.046zM256 576c-70.692 0-128 57.308-128 128s57.308 128 128 128c70.692 0 128-57.308 128-128s-57.308-128-128-128zM256 768c-35.346 0-64-28.654-64-64s28.654-64 64-64c35.346 0 64 28.654 64 64s-28.654 64-64 64z" />
<glyph unicode="&#xe906;" glyph-name="subj" d="M768.48 306.56l60.48-370.56-316.96 175.040-316.8-175.040 60.48 370.56-255.68 261.632 353.216 53.888 158.784 337.92 158.784-337.92 353.216-53.888-255.52-261.632zM635.167 566.29l-119.505 255.044-120.565-255.044-277.764-35.866 205.49-208.147-45.529-267.796 238.368 132.75 235.51-133.898-42.511 267.796 203.338 206.011-276.833 39.149z" />
<glyph unicode="&#xe907;" glyph-name="obj" d="M890.841-64h-759.002c-33.56 0.008-65.742 13.348-89.466 37.084s-37.048 55.925-37.039 89.485v759.511c-0.089 71.235 56.153 129.797 127.333 132.586h764c70.194-0.314 127.020-57.139 127.333-127.333v-764c-3.056-71.286-61.807-127.467-133.159-127.333zM954.667 821.742c-0.157 35.056-28.535 63.435-63.59 63.592h-763.074c-36.089-2.602-64.030-32.654-64.003-68.838v-758.618c0-34.898 28.28-63.193 63.176-63.21h758.082c36.294-0.081 66.534 27.792 69.408 63.973v763.101zM773.63 256h-507.259c-17.509 0-31.704 14.327-31.704 32s14.194 32 31.704 32h507.259c17.509 0 31.704-14.327 31.704-32s-14.194-32-31.704-32zM773.63 442.667h-507.259c-17.509 0-31.704 14.327-31.704 32s14.194 32 31.704 32h507.259c17.509 0 31.704-14.327 31.704-32s-14.194-32-31.704-32zM773.63 634.667h-507.259c-17.509 0-31.704 14.327-31.704 32s14.194 32 31.704 32h507.259c17.509 0 31.704-14.327 31.704-32s-14.194-32-31.704-32z" />
<glyph unicode="&#xe908;" glyph-name="table-view" horiz-adv-x="1161" d="M351.086 45.714v131.657c0 6.4-2.057 11.657-6.171 15.771s-9.371 6.171-15.771 6.171h-219.429c-6.4 0-11.657-2.057-15.771-6.171s-6.171-9.371-6.171-15.771v-131.657c0-6.4 2.057-11.657 6.171-15.771s9.371-6.171 15.771-6.171h219.429c6.4 0 11.657 2.057 15.771 6.171s6.171 9.371 6.171 15.771zM351.086 309.029v131.657c0 6.4-2.057 11.657-6.171 15.771s-9.371 6.171-15.771 6.171h-219.429c-6.4 0-11.657-2.057-15.771-6.171s-6.171-9.371-6.171-15.771v-131.657c0-6.4 2.057-11.657 6.171-15.771s9.371-6.171 15.771-6.171h219.429c6.4 0 11.657 2.057 15.771 6.171s6.171 9.371 6.171 15.771zM702.171 45.714v131.657c0 6.4-2.057 11.657-6.171 15.771s-9.371 6.171-15.771 6.171h-219.429c-6.4 0-11.657-2.057-15.771-6.171s-6.171-9.371-6.171-15.771v-131.657c0-6.4 2.057-11.657 6.171-15.771s9.371-6.171 15.771-6.171h219.429c6.4 0 11.657 2.057 15.771 6.171s6.171 9.371 6.171 15.771zM351.086 572.343v131.657c0 6.4-2.057 11.657-6.171 15.771s-9.371 6.171-15.771 6.171h-219.429c-6.4 0-11.657-2.057-15.771-6.171s-6.171-9.371-6.171-15.771v-131.657c0-6.4 2.057-11.657 6.171-15.771s9.371-6.171 15.771-6.171h219.429c6.4 0 11.657 2.057 15.771 6.171s6.171 9.371 6.171 15.771zM702.171 309.029v131.657c0 6.4-2.057 11.657-6.171 15.771s-9.371 6.171-15.771 6.171h-219.429c-6.4 0-11.657-2.057-15.771-6.171s-6.171-9.371-6.171-15.771v-131.657c0-6.4 2.057-11.657 6.171-15.771s9.371-6.171 15.771-6.171h219.429c6.4 0 11.657 2.057 15.771 6.171s6.171 9.371 6.171 15.771zM1053.257 45.714v131.657c0 6.4-2.057 11.657-6.171 15.771s-9.371 6.171-15.771 6.171h-219.429c-6.4 0-11.657-2.057-15.771-6.171s-6.171-9.371-6.171-15.771v-131.657c0-6.4 2.057-11.657 6.171-15.771s9.371-6.171 15.771-6.171h219.429c6.4 0 11.657 2.057 15.771 6.171s6.171 9.371 6.171 15.771zM702.171 572.343v131.657c0 6.4-2.057 11.657-6.171 15.771s-9.371 6.171-15.771 6.171h-219.429c-6.4 0-11.657-2.057-15.771-6.171s-6.171-9.371-6.171-15.771v-131.657c0-6.4 2.057-11.657 6.171-15.771s9.371-6.171 15.771-6.171h219.429c6.4 0 11.657 2.057 15.771 6.171s6.171 9.371 6.171 15.771zM1053.257 309.029v131.657c0 6.4-2.057 11.657-6.171 15.771s-9.371 6.171-15.771 6.171h-219.429c-6.4 0-11.657-2.057-15.771-6.171s-6.171-9.371-6.171-15.771v-131.657c0-6.4 2.057-11.657 6.171-15.771s9.371-6.171 15.771-6.171h219.429c6.4 0 11.657 2.057 15.771 6.171s6.171 9.371 6.171 15.771zM1053.257 572.343v131.657c0 6.4-2.057 11.657-6.171 15.771s-9.371 6.171-15.771 6.171h-219.429c-6.4 0-11.657-2.057-15.771-6.171s-6.171-9.371-6.171-15.771v-131.657c0-6.4 2.057-11.657 6.171-15.771s9.371-6.171 15.771-6.171h219.429c6.4 0 11.657 2.057 15.771 6.171s6.171 9.371 6.171 15.771zM1141.029 791.771v-746.057c0-30.172-10.743-56-32.229-77.486s-47.314-32.229-77.486-32.229h-921.6c-30.172 0-56 10.743-77.486 32.229s-32.229 47.314-32.229 77.486v746.057c0 30.172 10.743 56 32.229 77.486s47.314 32.229 77.486 32.229h921.6c30.172 0 56-10.743 77.486-32.229s32.229-47.314 32.229-77.486z" />
<glyph unicode="&#xe909;" glyph-name="card-view" horiz-adv-x="1170" d="M733.378 170.057h327.682c60.228 0 109.226 70.873 109.226 157.987v473.968c0 87.115-48.998 157.987-109.226 157.987h-327.682c-60.228 0-109.226-70.873-109.226-157.987v-473.968c0-87.115 48.998-157.987 109.226-157.987zM109.226-5.486h327.682c60.228 0 109.226 68.386 109.226 152.444v660.597c0 84.058-48.998 152.444-109.226 152.444h-327.682c-60.228 0-109.226-68.386-109.226-152.444v-660.597c0-84.058 48.998-152.444 109.226-152.444z" />
<glyph unicode="&#xe90a;" glyph-name="activity" d="M938.667 490.667h-170.667c-18.731 0-34.645-12.075-40.491-29.184l-87.509-262.571-215.509 646.571c-7.467 22.357-31.616 34.432-53.973 27.008-13.227-4.395-22.827-14.635-27.008-27.008l-118.272-354.816h-139.904c-23.552 0-42.667-19.115-42.667-42.667s19.115-42.667 42.667-42.667h170.667c18.048 0.128 34.56 11.392 40.491 29.184l87.509 262.571 215.509-646.571c4.181-12.373 13.781-22.571 26.965-26.965 22.357-7.467 46.507 4.651 53.973 26.965l118.315 354.816h139.904c23.552 0 42.667 19.115 42.667 42.667s-19.115 42.667-42.667 42.667z" />
<glyph unicode="&#xe90b;" glyph-name="cut" d="M684.5 272.5c-3.333-4-6.5-8.167-9.5-12.5s-5.5-8.833-7.5-13.5c-2-5.333-3.5-10.667-4.5-16s-1.5-11-1.5-17c0-6 0.5-11.667 1.5-17s2.5-10.667 4.5-16c2-4.667 4.667-9.333 8-14s7-9 11-13c4-4 8.333-7.667 13-11s9.333-6 14-8c5.333-2 10.667-3.5 16-4.5s11-1.5 17-1.5c6 0 11.667 0.5 17 1.5s10.667 2.5 16 4.5c4.667 2 9.333 4.667 14 8s9 7 13 11c4 4 7.667 8.333 11 13s6 9.333 8 14c2 5.333 3.5 10.667 4.5 16s1.5 11 1.5 17c0 6-0.5 11.667-1.5 17s-2.5 10.667-4.5 16c-2 4.667-4.667 9.333-8 14s-7 9-11 13c-4 4-8.333 7.667-13 11s-9.333 6-14 8c-5.333 2-10.667 3.5-16 4.5s-11 1.5-17 1.5c-6 0-11.667-0.5-17-1.5s-10.667-2.5-16-4.5c-4.667-2-9.167-4.5-13.5-7.5s-8.5-6.167-12.5-9.5c0-0.667-0.167-1-0.5-1s-0.5-0.333-0.5-1c-0.667 0-1-0.167-1-0.5s-0.333-0.5-1-0.5zM626.5 544.5c-8-8-18-12-30-12s-22 4-30 12c-8.667 8.667-13 18.833-13 30.5s4.333 21.833 13 30.5l235 235c8.667 8.667 18.833 13 30.5 13s21.5-4 29.5-12c8.667-8.667 13-18.833 13-30.5s-4-21.833-12-30.5l-236-236zM293.5 275.5c-4 3.333-8.167 6.5-12.5 9.5s-8.833 5.5-13.5 7.5c-5.333 2-10.667 3.5-16 4.5s-11 1.5-17 1.5c-6 0-11.667-0.5-17-1.5s-10.667-2.5-16-4.5c-4.667-2-9.333-4.667-14-8s-9-7-13-11c-4-4-7.667-8.333-11-13s-6-9.333-8-14c-2-5.333-3.5-10.667-4.5-16s-1.5-11-1.5-17c0-6 0.5-11.667 1.5-17s2.5-10.667 4.5-16c2-4.667 4.667-9.333 8-14s7-9 11-13c4-4 8.333-7.667 13-11s9.333-6 14-8c5.333-2 10.667-3.5 16-4.5s11-1.5 17-1.5c6 0 11.667 0.5 17 1.5s10.667 2.5 16 4.5c4.667 2 9.333 4.667 14 8s9 7 13 11c4 4 7.667 8.333 11 13s6 9.333 8 14c2 5.333 3.5 10.667 4.5 16s1.5 11 1.5 17c0 6-0.5 11.667-1.5 17s-2.5 10.667-4.5 16c-2 4.667-4.5 9.167-7.5 13.5s-6.167 8.5-9.5 12.5c-0.667 0-1 0.167-1 0.5s-0.333 0.5-1 0.5c0 0.667-0.167 1-0.5 1s-0.5 0.333-0.5 1zM381.5 300.5c2-3.333 3.833-6.833 5.5-10.5s3.5-7.5 5.5-11.5c4-10 7.167-20.5 9.5-31.5s3.5-22.167 3.5-33.5c0-11.333-1.167-22.5-3.5-33.5s-5.5-21.5-9.5-31.5c-4.667-10.667-10.167-20.667-16.5-30s-13.167-18-20.5-26c-8-7.333-16.667-14.167-26-20.5s-19.333-11.833-30-16.5c-10-4-20.5-7.167-31.5-9.5s-22.167-3.5-33.5-3.5c-11.333 0-22.5 1.167-33.5 3.5s-21.5 5.5-31.5 9.5c-10.667 4.667-20.667 10.167-30 16.5s-18 13.167-26 20.5c-7.333 8-14.167 16.667-20.5 26s-11.833 19.333-16.5 30c-4 10-7.167 20.5-9.5 31.5s-3.5 22.167-3.5 33.5c0 11.333 1.167 22.5 3.5 33.5s5.5 21.5 9.5 31.5c4.667 10.667 10.167 20.667 16.5 30s13.167 18 20.5 26c8 7.333 16.667 14.167 26 20.5s19.333 11.833 30 16.5c10 4 20.5 7.167 31.5 9.5s22.167 3.5 33.5 3.5c11.333 0 22.5-1.167 33.5-3.5s21.5-5.5 31.5-9.5c4-2 7.833-3.833 11.5-5.5s7.167-3.5 10.5-5.5l109 109-311 311c-8.667 8.667-13 18.833-13 30.5s4.333 21.5 13 29.5c8 8.667 17.833 13 29.5 13s21.833-4.333 30.5-13l480-480c3.333 2 6.833 3.833 10.5 5.5s7.5 3.5 11.5 5.5c10 4 20.5 7.167 31.5 9.5s22.167 3.5 33.5 3.5c11.333 0 22.5-1.167 33.5-3.5s21.5-5.5 31.5-9.5c10.667-4.667 20.667-10.167 30-16.5s18-13.167 26-20.5c7.333-8 14.167-16.667 20.5-26s11.833-19.333 16.5-30c4-10 7.167-20.5 9.5-31.5s3.5-22.167 3.5-33.5c0-11.333-1.167-22.5-3.5-33.5s-5.5-21.5-9.5-31.5c-4.667-10.667-10.167-20.667-16.5-30s-13.167-18-20.5-26c-8-7.333-16.667-14.167-26-20.5s-19.333-11.833-30-16.5c-10-4-20.5-7.167-31.5-9.5s-22.167-3.5-33.5-3.5c-11.333 0-22.5 1.167-33.5 3.5s-21.5 5.5-31.5 9.5c-10.667 4.667-20.667 10.167-30 16.5s-18 13.167-26 20.5c-7.333 8-14.167 16.667-20.5 26s-11.833 19.333-16.5 30c-4 10-7.167 20.5-9.5 31.5s-3.5 22.167-3.5 33.5c0 11.333 1.167 22.5 3.5 33.5s5.5 21.5 9.5 31.5c2 4 3.833 7.833 5.5 11.5s3.5 7.167 5.5 10.5l-109 109-109-109z" />
<glyph unicode="&#xe90c;" glyph-name="airplay" d="M213.333 277.333h-42.667c-5.845 0-11.349 1.152-16.299 3.2-5.205 2.133-9.899 5.333-13.867 9.301s-7.125 8.661-9.301 13.867c-2.048 4.949-3.2 10.453-3.2 16.299v426.667c0 5.845 1.152 11.349 3.2 16.299 2.133 5.205 5.333 9.899 9.301 13.867s8.661 7.125 13.867 9.301c4.949 2.048 10.453 3.2 16.299 3.2h682.667c5.845 0 11.349-1.152 16.299-3.2 5.205-2.133 9.899-5.333 13.867-9.301s7.125-8.661 9.301-13.867c2.048-4.949 3.2-10.453 3.2-16.299v-426.667c0-5.845-1.152-11.349-3.2-16.299-2.133-5.205-5.333-9.899-9.301-13.867s-8.661-7.125-13.867-9.301c-4.949-2.048-10.453-3.2-16.299-3.2h-42.667c-23.552 0-42.667-19.115-42.667-42.667s19.115-42.667 42.667-42.667h42.667c17.28 0 33.835 3.456 48.981 9.728 15.701 6.485 29.781 16 41.557 27.776s21.291 25.856 27.776 41.557c6.229 15.104 9.685 31.659 9.685 48.939v426.667c0 17.28-3.456 33.835-9.728 48.981-6.485 15.701-16 29.781-27.776 41.557s-25.856 21.291-41.557 27.776c-15.104 6.229-31.659 9.685-48.939 9.685h-682.667c-17.28 0-33.835-3.456-48.981-9.728-15.659-6.485-29.739-16-41.515-27.776s-21.291-25.856-27.776-41.515c-6.272-15.147-9.728-31.701-9.728-48.981v-426.667c0-17.28 3.456-33.835 9.728-48.981 6.485-15.701 16-29.781 27.776-41.557s25.856-21.291 41.557-27.776c15.104-6.229 31.659-9.685 48.939-9.685h42.667c23.552 0 42.667 19.115 42.667 42.667s-19.115 42.667-42.667 42.667zM544.768 347.307c-1.493 1.835-3.371 3.712-5.461 5.461-18.091 15.104-45.013 12.629-60.075-5.461l-213.333-256c-6.144-7.339-9.899-16.896-9.899-27.307 0-23.552 19.115-42.667 42.667-42.667h426.667c9.6-0.043 19.328 3.2 27.307 9.899 18.091 15.104 20.565 41.984 5.461 60.075zM512 253.355l122.24-146.688h-244.48z" />
<glyph unicode="&#xe90d;" glyph-name="pointer" horiz-adv-x="940" d="M358.251 870.437c-19.779 0-36.665-6.997-50.659-20.991s-20.991-30.88-20.991-50.659v-501.551l-84.525 113.073c-15.3 20.152-35.265 30.227-59.895 30.227-19.405 0-36.012-7.090-49.819-21.271s-20.711-30.974-20.711-50.379c0-16.047 4.851-30.414 14.554-43.102l214.95-286.601c14.181-19.032 33.213-28.548 57.096-28.548h401.912c8.21 0 15.58 2.519 22.111 7.557s10.729 11.475 12.595 19.312l51.499 205.994c8.956 35.825 13.434 72.023 13.434 108.595v121.469c0 15.3-5.224 28.548-15.673 39.744s-23.137 16.793-38.064 16.793c-14.927 0-27.615-5.224-38.064-15.673s-15.673-23.137-15.673-38.064h-17.912v34.146c0 17.913-5.971 33.12-17.913 45.621s-26.869 18.752-44.781 18.752c-17.166 0-31.907-6.157-44.222-18.472s-18.472-27.055-18.472-44.222v-35.825h-17.913v50.379c0 20.525-6.904 38.157-20.711 52.898s-30.787 22.111-50.939 22.111c-19.778 0-36.665-6.997-50.659-20.991s-20.991-30.88-20.991-50.659v-53.738h-17.912v319.067c0 20.525-6.904 38.157-20.711 52.898s-30.787 22.111-50.939 22.111zM358.251 942.088c39.93 0 73.796-14.461 101.598-43.382s41.703-63.347 41.703-103.277v-123.149c8.21 0.746 14.181 1.12 17.912 1.12 36.945 0 69.224-12.874 96.84-38.624 17.539 7.837 36.012 11.755 55.417 11.755 42.169 0 76.501-16.233 102.997-48.7 10.076 2.612 20.525 3.918 31.347 3.918 35.079 0 64.746-12.595 89.003-37.784s36.385-55.324 36.385-90.402v-121.469c0-43.289-5.224-85.271-15.673-125.947l-51.499-205.994c-5.971-23.884-18.659-43.382-38.064-58.496s-41.422-22.671-66.052-22.671h-401.912c-22.391 0-43.755 5.131-64.093 15.393s-37.224 24.163-50.659 41.703l-214.951 286.601c-19.032 25.376-28.548 54.11-28.548 86.204 0 39.184 13.901 72.863 41.703 101.038s61.294 42.262 100.478 42.262c26.496 0 50.752-6.531 72.77-19.592v306.192c0 39.557 13.994 73.329 41.983 101.318s61.761 41.983 101.318 41.983zM411.988 153.936v214.951h17.912v-214.951h-17.912zM555.289 153.936v214.951h17.912v-214.951h-17.912zM698.589 153.936v214.951h17.912v-214.951h-17.912z" />
<glyph unicode="&#xe90e;" glyph-name="scr-capture" horiz-adv-x="1078" d="M107.789 189.715c-2.286 0.721-4.531 1.483-6.737 2.285-8.983 3.743-17.403 8.234-25.263 13.474s-15.158 11.228-21.895 17.965c-6.737 6.737-12.725 14.035-17.965 21.895s-9.731 16.281-13.474 25.263c-2.994 8.234-5.427 17.029-7.298 26.386s-2.807 18.901-2.807 28.632v478.316c0 9.731 0.936 19.275 2.807 28.632s4.304 18.152 7.298 26.386c3.743 8.983 8.234 17.403 13.474 25.263s11.228 15.158 17.965 21.895c6.737 6.737 14.035 12.725 21.895 17.965s16.281 9.731 25.263 13.474c8.234 2.994 17.029 5.427 26.386 7.298s18.901 2.807 28.632 2.807h765.754c9.731 0 19.275-0.936 28.632-2.807s18.152-4.304 26.386-7.298c8.983-3.743 17.403-8.234 25.263-13.474s15.158-11.228 21.895-17.965c6.737-6.737 12.725-14.035 17.965-21.895s9.731-16.281 13.474-25.263c2.994-8.234 5.427-17.029 7.298-26.386s2.807-18.901 2.807-28.632v-478.316c0-9.731-0.936-19.275-2.807-28.632s-4.304-18.152-7.298-26.386c-3.743-8.983-8.234-17.403-13.474-25.263s-11.228-15.158-17.965-21.895c-6.737-6.737-14.035-12.725-21.895-17.965s-16.281-9.731-25.263-13.474c-2.205-0.802-4.451-1.564-6.737-2.285v614.215c0 3.743-0.374 7.111-1.123 10.105l-2.246 8.982c-1.497 2.994-3.181 5.801-5.053 8.421s-3.93 4.678-6.175 6.175c-1.497 2.246-3.556 4.304-6.175 6.175s-5.427 3.556-8.421 5.053l-8.982 2.246c-2.994 0.749-6.363 1.123-10.105 1.123h-765.754c-3.743 0-7.111-0.374-10.105-1.123l-8.982-2.246c-2.994-1.497-5.801-3.181-8.421-5.053s-5.053-3.93-7.298-6.175c-1.497-1.497-3.181-3.556-5.053-6.175s-3.556-5.427-5.053-8.421l-2.246-8.982c-0.749-2.994-1.123-6.363-1.123-10.105v-614.215zM726.989 159.739c0.496 0.456 1.034 0.956 1.488 1.455s0.949 0.998 1.447 1.498c7.314 7.032 15.909 12.687 25.371 16.642 9.669 4.037 20.287 6.281 31.567 6.281s21.9-2.246 31.609-6.281c10.081-4.202 19.173-10.4 26.856-18.097s13.8-16.89 17.974-27.042c3.967-9.735 6.198-20.427 6.198-31.783s-2.231-22.048-6.239-31.825c-4.172-10.152-10.331-19.302-17.974-27.042s-16.775-13.896-26.856-18.097c-9.669-3.994-20.287-6.24-31.567-6.24s-21.9 2.246-31.609 6.283c-10.081 4.2-19.173 10.402-26.856 18.097s-13.8 16.892-17.974 27.042c-3.967 9.735-6.198 20.427-6.198 31.783s2.231 22.048 6.239 31.825c3.924 9.485 9.545 18.14 16.529 25.544l-0.004-0.043zM652.705 407.442l102.329 104.305c16.115 16.266 16.115 42.602-0.043 58.826s-42.312 16.225-58.427-0.043l-102.329-104.305c-16.115-16.266-16.115-42.602 0.043-58.826s42.312-16.225 58.427 0.043zM347.967 162.692c0.453-0.499 0.949-0.998 1.445-1.498s0.992-0.998 1.488-1.455c6.984-7.364 12.601-16.018 16.529-25.544 4.009-9.735 6.239-20.427 6.239-31.783s-2.231-22.048-6.239-31.825c-4.174-10.152-10.329-19.302-17.974-27.042s-16.775-13.896-26.858-18.097c-9.669-3.994-20.289-6.24-31.567-6.24s-21.898 2.246-31.609 6.283c-10.083 4.2-19.171 10.402-26.858 18.097s-13.802 16.892-17.974 27.042c-3.967 9.735-6.198 20.427-6.198 31.783s2.231 22.048 6.241 31.825c4.172 10.152 10.331 19.304 17.974 27.042s16.777 13.894 26.858 18.097c9.669 3.994 20.289 6.24 31.567 6.24s21.898-2.246 31.609-6.281c9.421-3.951 18.017-9.61 25.371-16.642l-0.043-0.002zM538.944 293.199l105.531-106.252c-3.924-6.656-7.395-13.647-10.37-20.883-8.057-19.676-12.52-41.186-12.52-63.651s4.463-43.972 12.52-63.651c8.387-20.386 20.658-38.69 35.865-54s33.428-27.707 53.674-36.151c19.545-8.112 40.906-12.605 63.219-12.605s43.676 4.493 63.219 12.605c20.248 8.446 38.427 20.8 53.631 36.11s27.478 33.614 35.865 54c8.1 19.719 12.562 41.229 12.562 63.692s-4.463 43.972-12.52 63.651c-8.387 20.384-20.658 38.69-35.865 53.998s-33.387 27.664-53.631 36.11c-19.585 8.153-40.949 12.648-63.259 12.648s-43.676-4.493-63.219-12.605c-7.19-2.995-14.131-6.49-20.742-10.443l-321.578 324.758c-16.155 16.266-42.312 16.266-58.427 0s-16.155-42.602 0-58.826l157.624-159.683-105.531-106.252c-6.61 3.951-13.554 7.447-20.742 10.443-19.543 8.112-40.906 12.605-63.219 12.605s-43.674-4.493-63.219-12.605c-20.248-8.446-38.427-20.802-53.633-36.112s-27.519-33.655-35.905-54.041c-8.057-19.676-12.52-41.186-12.52-63.651s4.463-43.972 12.52-63.651c8.388-20.386 20.658-38.69 35.865-54s33.426-27.707 53.674-36.151c19.545-8.112 40.906-12.605 63.219-12.605s43.674 4.493 63.219 12.605c20.246 8.446 38.427 20.8 53.631 36.11s27.519 33.655 35.905 54.041c8.057 19.678 12.52 41.186 12.52 63.651s-4.463 43.972-12.52 63.651c-2.975 7.239-6.446 14.228-10.372 20.883l105.529 106.258z" />
<glyph unicode="&#xe90f;" glyph-name="scr-disconnect" d="M800.582 834.327h-484.073c-51.2 0-93.091-37.236-93.091-88.436v-269.964h-83.782c-69.818 0-125.673-55.855-125.673-125.673v-274.618c0-69.818 55.855-125.673 125.673-125.673h363.055c69.818 0 125.673 55.855 125.673 125.673v186.182l79.127-4.655h93.091c51.2 0 93.091 37.236 93.091 88.436v400.291c0 46.545-41.891 88.436-93.091 88.436zM539.927 89.6c0-32.582-23.273-55.855-55.855-55.855h-325.818c-32.582 0-55.855 23.273-55.855 55.855v242.036c0 32.582 23.273 55.855 55.855 55.855h325.818c32.582 0 55.855-23.273 55.855-55.855v-242.036zM926.255 289.745v507.345c0 32.582-27.927 60.509-60.509 60.509h-600.436c-32.582 0-60.509-27.927-60.509-60.509v-214.109h-88.436v242.036c0 69.818 55.855 125.673 125.673 125.673h646.982c69.818 0 125.673-55.855 125.673-125.673v-558.545c0-69.818-55.855-125.673-125.673-125.673h-125.673v88.436h97.745c37.236 0 65.164 27.927 65.164 60.509z" />
<glyph unicode="&#xe910;" glyph-name="scr-monitor" d="M754.802 792.902h-585.5c-38.684 0-70.087-30.839-70.087-68.935v-534.927c0-38.096 31.403-69.162 70.087-69.162h53.020l114.233-97.053h-195.925c-77.596 0-140.629 61.905-140.629 138.324v590.71c0 76.418 63.033 138.324 140.629 138.324h642.844c77.596 0 140.629-61.905 140.629-138.324v-125.852l-99.214 37.189v60.772c0 38.096-31.403 68.935-70.087 68.935zM652.857 487.461c90.34 0 163.612-74.377 163.612-166.215s-73.273-166.215-163.612-166.215c-90.34 0-163.385 74.377-163.385 166.215s73.045 166.215 163.385 166.215zM652.629 92.672c218.226 0 371.371 155.784 371.371 228.574 0 75.738-151.324 228.574-371.371 228.574-212.082 0-371.598-152.836-371.598-228.574 0-75.284 158.834-228.574 371.598-228.574z" />
<glyph unicode="&#xe911;" glyph-name="halflock" d="M801.182-45.695l-568.965-9.492c-42.926-0.716-78.533 35.77-79.358 81.33l-6.559 362.186c-0.813 44.853 32.375 82.029 74.361 83.872l-3.242 178.973c-3.035 167.603 123.018 306.108 280.982 308.744 157.97 2.635 287.637-58.334 290.673-225.937 0.624-34.472-6.597-64.697-57.786-63.488 0 0-62.205 27.004-62.83 61.475-1.384 76.486-95.638 100.522-167.727 99.32s-128.945-101.030-127.559-177.515l3.241-178.951 415.216 6.928c42.932 0.716 78.539-35.771 79.363-81.331l6.561-362.186c0.825-45.559-33.439-83.212-76.371-83.928z" />
<glyph unicode="&#xe912;" glyph-name="lock" d="M818.576-25.983l-606.61-10.272c-44.976-0.764-82.268 37.555-83.124 85.419l-6.922 387.225c-0.851 47.611 34.664 87.012 79.327 88.17l-1.909 106.814c-3.188 178.34 130.597 325.748 298.216 328.586 167.625 2.84 306.593-139.948 309.781-318.288l1.909-106.814c44.678 0.354 81.58-37.818 82.431-85.431l6.923-387.224c0.856-47.864-35.045-87.421-80.021-88.184zM688.725 488.276l-2.705 151.34c-1.916 107.171-85.417 192.974-186.159 191.269-100.741-1.706-181.12-90.287-179.203-197.458l2.705-151.338 365.361 6.187z" />
<glyph unicode="&#xe913;" glyph-name="unlock" d="M553.172 467.97l349.548 4.934c42.22 0.591 77.312-34.319 78.209-77.816l7.138-345.788c0.896-43.497-32.727-79.37-74.947-79.96l-559.55-7.837c-42.216-0.591-77.308 34.318-78.206 77.816l-7.137 345.788c-0.886 42.822 31.683 78.243 72.972 79.912l46.659 0.703 2.548 29.163 11.048 169.595c4.719 72.435-47.161 169.485-117.987 173.74-70.35 4.227-162.746-14.208-167.458-85.61-2.125-32.188-63.165-54.365-63.165-54.365-49.041 1.388-54.594 29.84-52.47 61.847 10.322 155.544 137.472 207.39 291.018 199.059 155.827-8.456 275.936-145.384 265.599-305.25l-11.051-170.879c6.601-0.674 8.681-6.201 7.233-15.049z" />
<glyph unicode="&#xe914;" glyph-name="scr-proj" d="M129.738 472.381h374.43c71.651 0 129.737-57.814 129.737-129.13v-278.119c0-71.32-58.085-129.132-129.737-129.132h-374.43c-71.651 0-129.738 57.812-129.738 129.132v278.119c0 71.317 58.087 129.13 129.738 129.13zM92.599 80.428c0-31.74 25.848-57.466 57.733-57.466h333.243c31.884 0 57.733 25.725 57.733 57.466v247.526c0 31.733-25.849 57.462-57.733 57.462h-333.243c-31.885 0-57.733-25.729-57.733-57.462v-247.526zM924.623 297.464v502.401c0 33.814-27.677 61.228-61.817 61.228h-594.697c-34.142 0-61.817-27.414-61.817-61.228v-211.952h-86.857v237.071c0 67.628 55.353 122.455 123.635 122.455h644.776c68.281 0 123.634-54.828 123.634-122.455v-552.64c0-67.632-55.352-122.458-123.634-122.458h-124.417v86.351h99.378c34.141 0 61.817 27.41 61.817 61.226zM806.514 684.823l-5.219-76.992c-0.658-9.57 8.416-17.384 20.388-17.537 11.985-0.151 22.079 7.384 22.722 16.968l7.837 119.92c0.629 9.44-8.422 17.084-20.302 17.166l-148.878 1.172c-11.733 0.079-21.679-7.33-22.413-16.702-0.734-9.382 8.116-16.999 19.874-17.097l99.547-0.915-163.116-146.107c-8.84-6.594-9.803-17.553-2.146-24.481 7.672-6.943 21.085-7.215 29.943-0.601l161.764 145.206z" />
<glyph unicode="&#xe915;" glyph-name="eraser" horiz-adv-x="1078" d="M1018.611 636.632l-269.474 269.474c-43.116 43.116-107.789 43.116-150.905 0l-538.947-538.947c-21.558-21.558-32.337-48.505-32.337-75.453s10.779-53.895 32.337-75.453l199.411-194.021c37.726-37.726 91.621-59.284 145.516-59.284s107.789 21.558 145.516 59.284l468.884 463.495c21.558 21.558 32.337 48.505 32.337 75.453s-10.779 53.895-32.337 75.453zM549.726 162.358l-274.863 280.253 247.916 247.916 280.253-280.253-253.305-247.916zM328.758 92.295l-199.411 194.021v10.779l91.621 91.621 280.253-280.253-16.168-16.168c-48.505-43.116-113.179-43.116-156.295 0zM948.547 555.789l-97.011-97.011-280.253 280.253 91.621 91.621c0 0 5.389 0 5.389 0l274.863-269.474v-5.389z" />
<glyph unicode="&#xe916;" glyph-name="import-template" horiz-adv-x="1097" d="M53.381 886.251c9.519 0 20.364-21.74 26.028-39.109 31.209-107.731 172.313-221.777 299.56-235.866v1.336c0 35.951 12.773 61.578 38.198 78.217 13.375 8.38 27.353 12.874 41.934 12.874 16.508 0 33.017-5.83 47.115-16.639l190.87-152.062c21.569-16.032 34.342-42.266 34.342-69.837 0-26.963-12.773-53.197-33.74-69.229l-191.473-152.669c-1.928-1.336-3.133-2.551-5.061-3.158-8.917-5.101-23.497-11.538-41.331-11.538-14.58 0-28.558 3.887-41.331 12.146-31.812 20.526-36.873 53.197-38.801 67.286l-0.602 2.551c-0.602 1.943-0.602 4.494-0.602 6.437v6.437c-195.931 32.671-378.487 233.923-378.487 427.522 0 35.951 5.061 72.387 15.303 107.002 5.061 16.761 22.172 32.186 38.078 28.299zM457.293 318.934c0.602-3.158 1.325-8.38 2.53-10.202l188.219 149.997c1.928 1.336 3.133 3.887 3.133 6.437s-0.602 4.494-3.133 6.437l-189.545 151.212c0-1.336-0.602-3.887-0.602-9.595v-42.266c0-21.133-15.906-38.501-36.873-39.716-125.921-8.988-257.627 74.331-337.759 176.96 26.751-149.39 185.689-300.601 337.036-308.982 20.967-1.336 37.475-18.583 37.475-39.716v-39.716l-0.482-0.85zM296.083-64c-82.672 0-149.798 69.242-149.798 153.114v254.392h85.264v-254.266c0-36.576 29.367-65.963 64.534-65.963h650.645c35.784 0 64.534 30.017 64.534 65.963v716.888c0 36.576-29.367 65.963-64.534 65.963h-538.605v87.908h538.605c82.673 0 150.415-69.242 150.415-153.745v-716.258c0-84.503-67.742-153.745-150.415-153.745l-650.645-0.252zM950.857 268.396h-138.949v71.377h138.826v-71.377h0.124zM950.857 82.286h-365.714v71.377h365.714v-71.377zM950.857 596.052h-292.72v71.377h292.72v-71.377zM950.857 425.884h-138.949v71.377h138.826v-71.377h0.124z" />
<glyph unicode="&#xe917;" glyph-name="import-docx" horiz-adv-x="1170" d="M336.816 338.286c10.208-8.344 19.84-16.176 28.898-23.498v-305.645h731.429v585.143h-237.714c-15.238 0-28.19 5.333-38.857 16s-16 23.619-16 38.857v237.714h-438.857v-100.571h-73.143v118.857c0 15.238 5.333 28.19 16 38.857s23.619 16 38.857 16h512c15.238 0 32-3.809 50.286-11.429s32.762-16.762 43.429-27.429l178.286-178.286c10.667-10.667 19.809-25.143 27.429-43.429s11.429-35.048 11.429-50.286v-658.286c0-15.238-5.333-28.19-16-38.857s-23.619-16-38.857-16h-768c-15.238 0-28.19 5.333-38.857 16s-16 23.619-16 38.857v347.429h44.245zM588.558 270.448l13.727-60.734c1.905-7.619 3.238-16.381 4-26.286l1.143-12h2.286l2.286 12c0.381 2.286 1.048 6.381 2 12.286s1.81 10.571 2.571 14l27.958 105.812 84.337 67.924c-1.163-8.981-2.976-16.989-5.437-24.022l-73.143-277.143h-90.857l-36.73 148.040c11.938 2.475 21.758 7.128 28.572 11.066 2.121 0.675 3.446 2.024 5.567 3.509l31.721 25.548zM786.778 434.934l59.507-225.219c0.762-3.429 1.714-8.19 2.857-14.286s1.905-10.095 2.286-12c0-0.762 0.19-2 0.571-3.714s0.667-3.238 0.857-4.571c0.19-1.333 0.286-2.571 0.286-3.714h2.286l1.143 12c0.762 9.905 2.095 18.667 4 26.286l56.571 250.286h-51.429v61.143h171.429v-61.143h-40l-93.714-377.714h-90.857l-73.143 277.143c-1.143 3.429-2.19 8.381-3.143 14.857s-1.619 10.286-2 11.429l-0.239 1.91 33.411 26.909c7.432 5.741 13.929 12.658 19.32 20.401zM877.714 882.286v-214.857h214.857c-3.81 11.048-8 18.857-12.571 23.429l-178.857 178.857c-4.571 4.571-12.381 8.762-23.429 12.571zM53.381 959.394c9.519 0 20.364-21.74 26.028-39.109 31.209-107.731 172.313-221.777 299.56-235.866v1.336c0 35.951 12.773 61.578 38.198 78.217 13.375 8.38 27.353 12.874 41.934 12.874 16.508 0 33.017-5.83 47.115-16.639l190.87-152.062c21.569-16.032 34.342-42.266 34.342-69.837 0-26.963-12.773-53.197-33.74-69.229l-191.473-152.669c-1.928-1.336-3.133-2.551-5.061-3.158-8.917-5.101-23.497-11.538-41.331-11.538-14.58 0-28.558 3.887-41.331 12.146-31.812 20.526-36.873 53.197-38.801 67.286l-0.602 2.551c-0.602 1.943-0.602 4.494-0.602 6.437v6.437c-195.931 32.671-378.487 233.923-378.487 427.522 0 35.951 5.061 72.387 15.303 107.002 5.061 16.761 22.172 32.186 38.078 28.299zM457.293 392.077c0.602-3.158 1.325-8.38 2.53-10.202l188.219 149.997c1.928 1.336 3.133 3.887 3.133 6.437s-0.602 4.494-3.133 6.437l-189.545 151.212c0-1.336-0.602-3.887-0.602-9.595v-42.266c0-21.133-15.906-38.501-36.873-39.716-125.921-8.988-257.627 74.331-337.759 176.96 26.751-149.39 185.689-300.601 337.036-308.982 20.967-1.336 37.475-18.583 37.475-39.716v-39.716l-0.482-0.85z" />
<glyph unicode="&#xe918;" glyph-name="alert-circle" d="M981.333 448c0 63.488-12.629 124.16-35.541 179.499-23.808 57.472-58.667 109.141-101.888 152.363s-94.891 78.123-152.363 101.888c-55.381 22.955-116.053 35.584-179.541 35.584s-124.16-12.629-179.499-35.541c-57.472-23.808-109.141-58.667-152.363-101.931s-78.123-94.891-101.931-152.363c-22.912-55.339-35.541-116.011-35.541-179.499s12.629-124.16 35.541-179.499c23.808-57.472 58.667-109.141 101.888-152.363s94.891-78.123 152.363-101.888c55.381-22.955 116.053-35.584 179.541-35.584s124.16 12.629 179.499 35.541c57.472 23.808 109.141 58.667 152.363 101.888s78.123 94.891 101.888 152.363c22.955 55.381 35.584 116.053 35.584 179.541zM896 448c0-52.096-10.368-101.675-29.056-146.859-19.456-46.976-47.957-89.259-83.413-124.672s-77.739-63.957-124.672-83.413c-45.184-18.688-94.763-29.056-146.859-29.056s-101.675 10.368-146.859 29.056c-46.976 19.456-89.259 47.957-124.672 83.413-35.456 35.456-63.957 77.739-83.413 124.672-18.688 45.184-29.056 94.763-29.056 146.859s10.368 101.675 29.056 146.859c19.456 46.976 47.957 89.259 83.413 124.672s77.739 63.957 124.672 83.413c45.184 18.688 94.763 29.056 146.859 29.056s101.675-10.368 146.859-29.056c46.976-19.456 89.259-47.957 124.672-83.413 35.456-35.456 63.957-77.739 83.413-124.672 18.688-45.184 29.056-94.763 29.056-146.859zM469.333 618.667v-170.667c0-23.552 19.115-42.667 42.667-42.667s42.667 19.115 42.667 42.667v170.667c0 23.552-19.115 42.667-42.667 42.667s-42.667-19.115-42.667-42.667zM554.667 277.333c0 23.552-19.115 42.667-42.667 42.667s-42.667-19.115-42.667-42.667 19.115-42.667 42.667-42.667 42.667 19.115 42.667 42.667z" />
<glyph unicode="&#xe919;" glyph-name="alert-octagon" d="M335.36 917.333c-10.923 0-21.845-4.181-30.165-12.501l-250.027-250.027c-7.723-7.723-12.501-18.389-12.501-30.165v-353.28c0-10.923 4.181-21.845 12.501-30.165l250.027-250.027c7.723-7.723 18.389-12.501 30.165-12.501h353.28c10.923 0 21.845 4.181 30.165 12.501l250.027 250.027c7.723 7.723 12.501 18.389 12.501 30.165v353.28c0 10.923-4.181 21.845-12.501 30.165l-250.027 250.027c-7.723 7.723-18.389 12.501-30.165 12.501zM353.024 832h317.952l225.024-225.024v-317.952l-225.024-225.024h-317.952l-225.024 225.024v317.952zM469.333 618.667v-170.667c0-23.552 19.115-42.667 42.667-42.667s42.667 19.115 42.667 42.667v170.667c0 23.552-19.115 42.667-42.667 42.667s-42.667-19.115-42.667-42.667zM554.667 277.333c0 23.552-19.115 42.667-42.667 42.667s-42.667-19.115-42.667-42.667 19.115-42.667 42.667-42.667 42.667 19.115 42.667 42.667z" />
<glyph unicode="&#xe91a;" glyph-name="alert-triangle" d="M475.648 773.376c3.115 5.248 7.893 10.325 14.251 14.165 4.992 3.029 10.283 4.907 15.616 5.717 5.547 0.853 11.221 0.597 16.683-0.725s10.581-3.712 15.147-7.040c4.352-3.2 8.149-7.253 11.093-12.075l361.216-603.008c3.285-5.589 5.461-12.715 5.547-20.565 0.085-5.845-1.024-11.349-3.029-16.341-2.091-5.205-5.205-9.941-9.131-13.952s-8.619-7.211-13.781-9.429c-4.949-2.091-10.411-3.328-15.787-3.371l-722.731-0.085c-6.485 0.043-13.696 1.749-20.523 5.717-5.077 2.944-9.259 6.656-12.501 10.923-3.413 4.437-5.931 9.557-7.381 14.976s-1.835 11.093-1.109 16.64c0.683 5.333 2.432 10.667 5.035 15.147zM402.432 817.237l-361.387-603.307c-8.96-15.531-14.293-31.616-16.427-47.829-2.219-16.853-1.024-33.792 3.285-49.877s11.733-31.36 22.101-44.843c9.984-13.013 22.613-24.277 37.547-32.896 19.797-11.435 41.643-17.067 62.933-17.152h722.901c17.707 0.213 34.261 3.797 49.323 10.24 15.616 6.656 29.611 16.341 41.259 28.245s20.992 26.069 27.307 41.856c6.101 15.189 9.344 31.787 9.173 49.067-0.256 22.869-6.528 44.544-17.323 62.891l-361.557 603.605c-9.088 14.976-20.608 27.349-33.835 37.035-13.696 10.069-29.141 17.152-45.312 21.12s-33.152 4.779-49.92 2.219c-16.213-2.475-32.128-8.149-46.891-17.109-18.304-11.093-33.067-26.24-43.179-43.264zM469.333 576v-170.667c0-23.552 19.115-42.667 42.667-42.667s42.667 19.115 42.667 42.667v170.667c0 23.552-19.115 42.667-42.667 42.667s-42.667-19.115-42.667-42.667zM554.667 234.667c0 23.552-19.115 42.667-42.667 42.667s-42.667-19.115-42.667-42.667 19.115-42.667 42.667-42.667 42.667 19.115 42.667 42.667z" />
<glyph unicode="&#xe91b;" glyph-name="align-center" d="M768 576h-512c-23.552 0-42.667-19.115-42.667-42.667s19.115-42.667 42.667-42.667h512c23.552 0 42.667 19.115 42.667 42.667s-19.115 42.667-42.667 42.667zM896 746.667h-768c-23.552 0-42.667-19.115-42.667-42.667s19.115-42.667 42.667-42.667h768c23.552 0 42.667 19.115 42.667 42.667s-19.115 42.667-42.667 42.667zM896 405.333h-768c-23.552 0-42.667-19.115-42.667-42.667s19.115-42.667 42.667-42.667h768c23.552 0 42.667 19.115 42.667 42.667s-19.115 42.667-42.667 42.667zM768 234.667h-512c-23.552 0-42.667-19.115-42.667-42.667s19.115-42.667 42.667-42.667h512c23.552 0 42.667 19.115 42.667 42.667s-19.115 42.667-42.667 42.667z" />
<glyph unicode="&#xe91c;" glyph-name="align-justify" d="M896 576h-768c-23.552 0-42.667-19.115-42.667-42.667s19.115-42.667 42.667-42.667h768c23.552 0 42.667 19.115 42.667 42.667s-19.115 42.667-42.667 42.667zM896 746.667h-768c-23.552 0-42.667-19.115-42.667-42.667s19.115-42.667 42.667-42.667h768c23.552 0 42.667 19.115 42.667 42.667s-19.115 42.667-42.667 42.667zM896 405.333h-768c-23.552 0-42.667-19.115-42.667-42.667s19.115-42.667 42.667-42.667h768c23.552 0 42.667 19.115 42.667 42.667s-19.115 42.667-42.667 42.667zM896 234.667h-768c-23.552 0-42.667-19.115-42.667-42.667s19.115-42.667 42.667-42.667h768c23.552 0 42.667 19.115 42.667 42.667s-19.115 42.667-42.667 42.667z" />
<glyph unicode="&#xe91d;" glyph-name="align-left" d="M725.333 576h-597.333c-23.552 0-42.667-19.115-42.667-42.667s19.115-42.667 42.667-42.667h597.333c23.552 0 42.667 19.115 42.667 42.667s-19.115 42.667-42.667 42.667zM896 746.667h-768c-23.552 0-42.667-19.115-42.667-42.667s19.115-42.667 42.667-42.667h768c23.552 0 42.667 19.115 42.667 42.667s-19.115 42.667-42.667 42.667zM896 405.333h-768c-23.552 0-42.667-19.115-42.667-42.667s19.115-42.667 42.667-42.667h768c23.552 0 42.667 19.115 42.667 42.667s-19.115 42.667-42.667 42.667zM725.333 234.667h-597.333c-23.552 0-42.667-19.115-42.667-42.667s19.115-42.667 42.667-42.667h597.333c23.552 0 42.667 19.115 42.667 42.667s-19.115 42.667-42.667 42.667z" />
<glyph unicode="&#xe91e;" glyph-name="align-right" d="M896 576h-597.333c-23.552 0-42.667-19.115-42.667-42.667s19.115-42.667 42.667-42.667h597.333c23.552 0 42.667 19.115 42.667 42.667s-19.115 42.667-42.667 42.667zM896 746.667h-768c-23.552 0-42.667-19.115-42.667-42.667s19.115-42.667 42.667-42.667h768c23.552 0 42.667 19.115 42.667 42.667s-19.115 42.667-42.667 42.667zM896 405.333h-768c-23.552 0-42.667-19.115-42.667-42.667s19.115-42.667 42.667-42.667h768c23.552 0 42.667 19.115 42.667 42.667s-19.115 42.667-42.667 42.667zM896 234.667h-597.333c-23.552 0-42.667-19.115-42.667-42.667s19.115-42.667 42.667-42.667h597.333c23.552 0 42.667 19.115 42.667 42.667s-19.115 42.667-42.667 42.667z" />
<glyph unicode="&#xe91f;" glyph-name="anchor" d="M597.333 746.667c0-11.648-2.304-22.613-6.443-32.64-4.309-10.411-10.667-19.797-18.56-27.733s-17.323-14.251-27.733-18.56c-9.984-4.096-20.949-6.4-32.597-6.4s-22.613 2.304-32.64 6.443c-10.411 4.309-19.797 10.667-27.733 18.56s-14.251 17.323-18.56 27.733c-4.096 9.984-6.4 20.949-6.4 32.597s2.304 22.613 6.443 32.64c4.309 10.411 10.667 19.797 18.56 27.733s17.323 14.251 27.733 18.56c9.984 4.096 20.949 6.4 32.597 6.4s22.613-2.304 32.64-6.443c10.411-4.309 19.797-10.667 27.733-18.56s14.251-17.323 18.56-27.733c4.096-9.984 6.4-20.949 6.4-32.597zM213.333 490.667h-128c-23.552 0-42.667-19.115-42.667-42.667 0-63.488 12.629-124.16 35.541-179.499 23.808-57.472 58.667-109.141 101.888-152.363s94.891-78.123 152.363-101.888c55.381-22.955 116.053-35.584 179.541-35.584s124.16 12.629 179.499 35.541c57.472 23.808 109.141 58.667 152.363 101.888s78.123 94.891 101.888 152.363c22.955 55.381 35.584 116.053 35.584 179.541 0 23.552-19.115 42.667-42.667 42.667h-128c-23.552 0-42.667-19.115-42.667-42.667s19.115-42.667 42.667-42.667h82.987c-4.053-36.565-13.184-71.509-26.709-104.192-19.456-46.976-47.957-89.259-83.413-124.672s-77.739-63.957-124.672-83.413c-32.683-13.525-67.627-22.699-104.192-26.709v515.029c7.765 2.005 15.317 4.523 22.613 7.552 20.907 8.661 39.68 21.333 55.381 37.035s28.373 34.475 37.035 55.381c8.363 20.224 12.971 42.283 12.971 65.323s-4.608 45.099-12.928 65.28c-8.661 20.907-21.333 39.68-37.035 55.381s-34.517 28.416-55.424 37.077c-20.181 8.32-42.24 12.928-65.28 12.928s-45.099-4.608-65.28-12.928c-20.907-8.661-39.68-21.333-55.381-37.035s-28.416-34.517-37.077-55.424c-8.32-20.181-12.928-42.24-12.928-65.28s4.608-45.099 12.928-65.28c8.661-20.907 21.333-39.68 37.035-55.381s34.517-28.416 55.424-37.077c7.296-3.029 14.848-5.547 22.613-7.552v-515.029c-36.565 4.053-71.509 13.184-104.192 26.709-46.976 19.456-89.259 47.957-124.672 83.413-35.456 35.456-63.957 77.739-83.413 124.672-13.525 32.683-22.699 67.627-26.709 104.192h82.987c23.552 0 42.667 19.115 42.667 42.667s-19.115 42.667-42.667 42.667z" />
<glyph unicode="&#xe920;" glyph-name="aperture" d="M487.339 661.333l94.848 164.267c26.624-4.907 52.267-12.587 76.629-22.656 46.976-19.456 89.259-47.957 124.672-83.413 17.792-17.749 33.835-37.248 47.872-58.197h-221.611zM314.88 533.333l-94.805 164.139c6.528 7.637 13.312 14.976 20.395 22.059 35.456 35.456 77.739 63.957 124.672 83.413 37.845 15.701 78.805 25.472 121.728 28.245l-110.592-191.573zM339.541 320h-189.696c-14.123 39.979-21.845 83.072-21.845 128 0 52.096 10.368 101.675 29.056 146.859 3.243 7.808 6.741 15.488 10.453 23.040l110.933-192.171zM745.515 470.272l-61.056 105.728h189.696c14.123-39.979 21.845-83.072 21.845-128 0-52.096-10.368-101.675-29.056-146.859-3.243-7.808-6.741-15.488-10.453-23.040l-109.909 190.379zM537.088 64.811l172.032 297.856 94.805-164.181c-6.528-7.595-13.312-14.976-20.395-22.016-35.456-35.456-77.739-63.957-124.672-83.413-37.845-15.701-78.805-25.472-121.728-28.245zM456.491-18.091c1.963-0.384 3.968-0.597 5.973-0.683 16.299-1.664 32.811-2.56 49.536-2.56 63.488 0 124.16 12.629 179.499 35.541 57.472 23.808 109.141 58.667 152.363 101.888 15.616 15.616 30.123 32.299 43.435 50.005 1.749 1.963 3.328 4.096 4.693 6.357 21.504 29.568 39.595 61.781 53.803 96.043 22.912 55.339 35.541 116.011 35.541 179.499s-12.629 124.16-35.541 179.499c-0.768 1.835-1.536 3.669-2.304 5.504-0.683 1.835-1.451 3.669-2.347 5.376-23.595 53.12-56.747 100.992-97.237 141.483-43.221 43.221-94.891 78.123-152.363 101.888-38.997 16.171-80.597 27.179-123.989 32.299-1.963 0.384-3.968 0.597-5.973 0.683-16.299 1.707-32.853 2.603-49.579 2.603-63.488 0-124.16-12.629-179.499-35.541-57.472-23.808-109.141-58.667-152.363-101.931-15.616-15.616-30.123-32.299-43.435-49.963-1.749-2.005-3.328-4.096-4.693-6.357-21.461-29.568-39.595-61.781-53.803-96.043-22.912-55.339-35.541-116.011-35.541-179.499s12.629-124.16 35.541-179.499c0.768-1.835 1.536-3.669 2.304-5.504 0.683-1.835 1.451-3.669 2.347-5.376 23.595-53.12 56.747-100.992 97.237-141.483 43.221-43.221 94.891-78.123 152.363-101.888 38.997-16.128 80.597-27.179 123.989-32.299zM536.661 234.667l-94.848-164.267c-26.624 4.907-52.267 12.587-76.629 22.656-46.976 19.456-89.259 47.957-124.672 83.413-17.792 17.749-33.835 37.248-47.872 58.197h221.611zM659.84 448l-73.899-128h-147.883l-73.899 128 73.899 128h147.883z" />
<glyph unicode="&#xe921;" glyph-name="archive" d="M170.667 576h682.667v-469.333h-682.667zM42.667 874.667c-23.552 0-42.667-19.115-42.667-42.667v-213.333c0-23.552 19.115-42.667 42.667-42.667h42.667v-512c0-23.552 19.115-42.667 42.667-42.667h768c23.552 0 42.667 19.115 42.667 42.667v512h42.667c23.552 0 42.667 19.115 42.667 42.667v213.333c0 23.552-19.115 42.667-42.667 42.667zM85.333 789.333h853.333v-128h-853.333zM426.667 405.333h170.667c23.552 0 42.667 19.115 42.667 42.667s-19.115 42.667-42.667 42.667h-170.667c-23.552 0-42.667-19.115-42.667-42.667s19.115-42.667 42.667-42.667z" />
<glyph unicode="&#xe922;" glyph-name="arrow-down-circle" d="M981.333 448c0 63.488-12.629 124.16-35.541 179.499-23.808 57.472-58.667 109.141-101.888 152.363s-94.891 78.123-152.363 101.888c-55.381 22.955-116.053 35.584-179.541 35.584s-124.16-12.629-179.499-35.541c-57.472-23.808-109.141-58.667-152.363-101.931s-78.123-94.891-101.931-152.363c-22.912-55.339-35.541-116.011-35.541-179.499s12.629-124.16 35.541-179.499c23.808-57.472 58.667-109.141 101.888-152.363s94.891-78.123 152.363-101.888c55.381-22.955 116.053-35.584 179.541-35.584s124.16 12.629 179.499 35.541c57.472 23.808 109.141 58.667 152.363 101.888s78.123 94.891 101.888 152.363c22.955 55.381 35.584 116.053 35.584 179.541zM896 448c0-52.096-10.368-101.675-29.056-146.859-19.456-46.976-47.957-89.259-83.413-124.672s-77.739-63.957-124.672-83.413c-45.184-18.688-94.763-29.056-146.859-29.056s-101.675 10.368-146.859 29.056c-46.976 19.456-89.259 47.957-124.672 83.413-35.456 35.456-63.957 77.739-83.413 124.672-18.688 45.184-29.056 94.763-29.056 146.859s10.368 101.675 29.056 146.859c19.456 46.976 47.957 89.259 83.413 124.672s77.739 63.957 124.672 83.413c45.184 18.688 94.763 29.056 146.859 29.056s101.675-10.368 146.859-29.056c46.976-19.456 89.259-47.957 124.672-83.413 35.456-35.456 63.957-77.739 83.413-124.672 18.688-45.184 29.056-94.763 29.056-146.859zM469.333 618.667v-238.336l-97.835 97.835c-16.683 16.683-43.691 16.683-60.331 0s-16.683-43.691 0-60.331l170.667-170.667c4.096-4.096 8.832-7.168 13.867-9.259 5.12-2.091 10.539-3.2 15.957-3.243 0.213 0 0.469 0 0.683 0 5.419 0.043 10.88 1.109 15.957 3.243 5.035 2.091 9.771 5.163 13.867 9.259l170.667 170.667c16.683 16.683 16.683 43.691 0 60.331s-43.691 16.683-60.331 0l-97.835-97.835v238.336c0 23.552-19.115 42.667-42.667 42.667s-42.667-19.115-42.667-42.667z" />
<glyph unicode="&#xe923;" glyph-name="arrow-down-left" d="M725.333 277.333h-323.669l353.835 353.835c16.683 16.683 16.683 43.691 0 60.331s-43.691 16.683-60.331 0l-353.835-353.835v323.669c0 23.552-19.115 42.667-42.667 42.667s-42.667-19.115-42.667-42.667v-426.667c0-0.128 0-0.256 0-0.384 0.043-5.632 1.195-11.008 3.243-15.915 4.309-10.453 12.672-18.816 23.168-23.168 4.864-2.005 10.283-3.157 15.915-3.2 0.128 0 0.213 0 0.341 0h426.667c23.552 0 42.667 19.115 42.667 42.667s-19.115 42.667-42.667 42.667z" />
<glyph unicode="&#xe924;" glyph-name="arrow-down-right" d="M682.667 661.333v-323.669l-353.835 353.835c-16.683 16.683-43.691 16.683-60.331 0s-16.683-43.691 0-60.331l353.835-353.835h-323.669c-23.552 0-42.667-19.115-42.667-42.667s19.115-42.667 42.667-42.667h426.667c5.76 0 11.264 1.152 16.299 3.2 10.453 4.309 18.816 12.715 23.168 23.168 2.048 4.907 3.157 10.283 3.2 15.957 0 0.128 0 0.213 0 0.341v426.667c0 23.552-19.115 42.667-42.667 42.667s-42.667-19.115-42.667-42.667z" />
<glyph unicode="&#xe925;" glyph-name="arrow-down" d="M780.501 478.165l-225.835-225.835v494.336c0 23.552-19.115 42.667-42.667 42.667s-42.667-19.115-42.667-42.667v-494.336l-225.835 225.835c-16.683 16.683-43.691 16.683-60.331 0s-16.683-43.691 0-60.331l298.667-298.667c4.096-4.096 8.832-7.168 13.867-9.259 5.12-2.091 10.539-3.2 15.957-3.243 5.675-0.043 11.349 1.024 16.64 3.243 5.035 2.091 9.771 5.163 13.867 9.259l298.667 298.667c16.683 16.683 16.683 43.691 0 60.331s-43.691 16.683-60.331 0z" />
<glyph unicode="&#xe926;" glyph-name="arrow-left-circle" d="M981.333 448c0 63.488-12.629 124.16-35.541 179.499-23.808 57.472-58.667 109.141-101.888 152.363s-94.891 78.123-152.363 101.888c-55.381 22.955-116.053 35.584-179.541 35.584s-124.16-12.629-179.499-35.541c-57.472-23.808-109.141-58.667-152.363-101.931s-78.123-94.891-101.931-152.363c-22.912-55.339-35.541-116.011-35.541-179.499s12.629-124.16 35.541-179.499c23.808-57.472 58.667-109.141 101.888-152.363s94.891-78.123 152.363-101.888c55.381-22.955 116.053-35.584 179.541-35.584s124.16 12.629 179.499 35.541c57.472 23.808 109.141 58.667 152.363 101.888s78.123 94.891 101.888 152.363c22.955 55.381 35.584 116.053 35.584 179.541zM896 448c0-52.096-10.368-101.675-29.056-146.859-19.456-46.976-47.957-89.259-83.413-124.672s-77.739-63.957-124.672-83.413c-45.184-18.688-94.763-29.056-146.859-29.056s-101.675 10.368-146.859 29.056c-46.976 19.456-89.259 47.957-124.672 83.413-35.456 35.456-63.957 77.739-83.413 124.672-18.688 45.184-29.056 94.763-29.056 146.859s10.368 101.675 29.056 146.859c19.456 46.976 47.957 89.259 83.413 124.672s77.739 63.957 124.672 83.413c45.184 18.688 94.763 29.056 146.859 29.056s101.675-10.368 146.859-29.056c46.976-19.456 89.259-47.957 124.672-83.413 35.456-35.456 63.957-77.739 83.413-124.672 18.688-45.184 29.056-94.763 29.056-146.859zM682.667 490.667h-238.336l97.835 97.835c16.683 16.683 16.683 43.691 0 60.331s-43.691 16.683-60.331 0l-170.667-170.667c-0.085-0.085-0.128-0.128-0.213-0.213-3.968-4.053-6.997-8.661-9.045-13.611-4.309-10.453-4.309-22.229 0-32.683 2.048-4.949 5.077-9.557 9.045-13.611 0.085-0.085 0.128-0.128 0.213-0.213l170.667-170.667c16.683-16.683 43.691-16.683 60.331 0s16.683 43.691 0 60.331l-97.835 97.835h238.336c23.552 0 42.667 19.115 42.667 42.667s-19.115 42.667-42.667 42.667z" />
<glyph unicode="&#xe927;" glyph-name="arrow-left" d="M542.165 179.499l-225.835 225.835h494.336c23.552 0 42.667 19.115 42.667 42.667s-19.115 42.667-42.667 42.667h-494.336l225.835 225.835c16.683 16.683 16.683 43.691 0 60.331s-43.691 16.683-60.331 0l-298.667-298.667c-4.096-4.096-7.168-8.789-9.259-13.824-4.309-10.453-4.309-22.272 0-32.725 2.048-4.949 5.077-9.557 9.045-13.611 0.085-0.085 0.128-0.128 0.213-0.213l298.667-298.667c16.683-16.683 43.691-16.683 60.331 0s16.683 43.691 0 60.331z" />
<glyph unicode="&#xe928;" glyph-name="arrow-right-circle" d="M981.333 448c0 63.488-12.629 124.16-35.541 179.499-23.808 57.472-58.667 109.141-101.888 152.363s-94.891 78.123-152.363 101.888c-55.381 22.955-116.053 35.584-179.541 35.584s-124.16-12.629-179.499-35.541c-57.472-23.808-109.141-58.667-152.363-101.931s-78.123-94.891-101.931-152.363c-22.912-55.339-35.541-116.011-35.541-179.499s12.629-124.16 35.541-179.499c23.808-57.472 58.667-109.141 101.888-152.363s94.891-78.123 152.363-101.888c55.381-22.955 116.053-35.584 179.541-35.584s124.16 12.629 179.499 35.541c57.472 23.808 109.141 58.667 152.363 101.888s78.123 94.891 101.888 152.363c22.955 55.381 35.584 116.053 35.584 179.541zM896 448c0-52.096-10.368-101.675-29.056-146.859-19.456-46.976-47.957-89.259-83.413-124.672s-77.739-63.957-124.672-83.413c-45.184-18.688-94.763-29.056-146.859-29.056s-101.675 10.368-146.859 29.056c-46.976 19.456-89.259 47.957-124.672 83.413-35.456 35.456-63.957 77.739-83.413 124.672-18.688 45.184-29.056 94.763-29.056 146.859s10.368 101.675 29.056 146.859c19.456 46.976 47.957 89.259 83.413 124.672s77.739 63.957 124.672 83.413c45.184 18.688 94.763 29.056 146.859 29.056s101.675-10.368 146.859-29.056c46.976-19.456 89.259-47.957 124.672-83.413 35.456-35.456 63.957-77.739 83.413-124.672 18.688-45.184 29.056-94.763 29.056-146.859zM341.333 405.333h238.336l-97.835-97.835c-16.683-16.683-16.683-43.691 0-60.331s43.691-16.683 60.331 0l170.667 170.667c4.096 4.096 7.168 8.832 9.259 13.867 2.091 5.12 3.2 10.539 3.243 15.957 0 0.213 0 0.469 0 0.683-0.043 5.419-1.109 10.88-3.243 15.957-2.091 5.035-5.163 9.771-9.259 13.867l-170.667 170.667c-16.683 16.683-43.691 16.683-60.331 0s-16.683-43.691 0-60.331l97.835-97.835h-238.336c-23.552 0-42.667-19.115-42.667-42.667s19.115-42.667 42.667-42.667z" />
<glyph unicode="&#xe929;" glyph-name="arrow-right" d="M481.835 716.501l225.835-225.835h-494.336c-23.552 0-42.667-19.115-42.667-42.667s19.115-42.667 42.667-42.667h494.336l-225.835-225.835c-16.683-16.683-16.683-43.691 0-60.331s43.691-16.683 60.331 0l298.667 298.667c4.096 4.096 7.168 8.832 9.259 13.867 2.091 5.12 3.2 10.539 3.243 15.957 0.043 5.675-1.024 11.349-3.243 16.64-2.091 5.035-5.163 9.771-9.259 13.867l-298.667 298.667c-16.683 16.683-43.691 16.683-60.331 0s-16.683-43.691 0-60.331z" />
<glyph unicode="&#xe92a;" glyph-name="arrow-up-circle" d="M981.333 448c0 63.488-12.629 124.16-35.541 179.499-23.808 57.472-58.667 109.141-101.888 152.363s-94.891 78.123-152.363 101.888c-55.381 22.955-116.053 35.584-179.541 35.584s-124.16-12.629-179.499-35.541c-57.472-23.808-109.141-58.667-152.363-101.931s-78.123-94.891-101.931-152.363c-22.912-55.339-35.541-116.011-35.541-179.499s12.629-124.16 35.541-179.499c23.808-57.472 58.667-109.141 101.888-152.363s94.891-78.123 152.363-101.888c55.381-22.955 116.053-35.584 179.541-35.584s124.16 12.629 179.499 35.541c57.472 23.808 109.141 58.667 152.363 101.888s78.123 94.891 101.888 152.363c22.955 55.381 35.584 116.053 35.584 179.541zM896 448c0-52.096-10.368-101.675-29.056-146.859-19.456-46.976-47.957-89.259-83.413-124.672s-77.739-63.957-124.672-83.413c-45.184-18.688-94.763-29.056-146.859-29.056s-101.675 10.368-146.859 29.056c-46.976 19.456-89.259 47.957-124.672 83.413-35.456 35.456-63.957 77.739-83.413 124.672-18.688 45.184-29.056 94.763-29.056 146.859s10.368 101.675 29.056 146.859c19.456 46.976 47.957 89.259 83.413 124.672s77.739 63.957 124.672 83.413c45.184 18.688 94.763 29.056 146.859 29.056s101.675-10.368 146.859-29.056c46.976-19.456 89.259-47.957 124.672-83.413 35.456-35.456 63.957-77.739 83.413-124.672 18.688-45.184 29.056-94.763 29.056-146.859zM554.667 277.333v238.336l97.835-97.835c16.683-16.683 43.691-16.683 60.331 0s16.683 43.691 0 60.331l-170.667 170.667c-0.085 0.085-0.128 0.128-0.213 0.213-4.053 3.968-8.661 6.997-13.611 9.045-10.453 4.309-22.229 4.309-32.683 0-4.949-2.048-9.557-5.077-13.611-9.045-0.085-0.085-0.128-0.128-0.213-0.213l-170.667-170.667c-16.683-16.683-16.683-43.691 0-60.331s43.691-16.683 60.331 0l97.835 97.835v-238.336c0-23.552 19.115-42.667 42.667-42.667s42.667 19.115 42.667 42.667z" />
<glyph unicode="&#xe92b;" glyph-name="arrow-up-left" d="M341.333 234.667v323.669l353.835-353.835c16.683-16.683 43.691-16.683 60.331 0s16.683 43.691 0 60.331l-353.835 353.835h323.669c23.552 0 42.667 19.115 42.667 42.667s-19.115 42.667-42.667 42.667h-426.667c-5.803 0-11.307-1.152-16.341-3.243-5.12-2.133-9.771-5.248-13.653-9.088-4.011-3.968-7.253-8.704-9.429-13.995-2.091-5.035-3.243-10.539-3.243-16.341v-426.667c0-23.552 19.115-42.667 42.667-42.667s42.667 19.115 42.667 42.667z" />
<glyph unicode="&#xe92c;" glyph-name="arrow-up-right" d="M298.667 618.667h323.669l-353.835-353.835c-16.683-16.683-16.683-43.691 0-60.331s43.691-16.683 60.331 0l353.835 353.835v-323.669c0-23.552 19.115-42.667 42.667-42.667s42.667 19.115 42.667 42.667v426.667c0 5.76-1.152 11.264-3.2 16.299-4.309 10.453-12.672 18.816-23.168 23.168-4.907 2.005-10.283 3.157-15.915 3.2-0.128 0-0.256 0-0.384 0h-426.667c-23.552 0-42.667-19.115-42.667-42.667s19.115-42.667 42.667-42.667z" />
<glyph unicode="&#xe92d;" glyph-name="arrow-up" d="M243.499 417.835l225.835 225.835v-494.336c0-23.552 19.115-42.667 42.667-42.667s42.667 19.115 42.667 42.667v494.336l225.835-225.835c16.683-16.683 43.691-16.683 60.331 0s16.683 43.691 0 60.331l-298.667 298.667c-0.085 0.085-0.128 0.128-0.213 0.213-4.053 3.968-8.661 6.997-13.611 9.045-10.453 4.309-22.272 4.309-32.725 0-5.035-2.091-9.728-5.163-13.824-9.259l-298.667-298.667c-16.683-16.683-16.683-43.691 0-60.331s43.691-16.683 60.331 0z" />
<glyph unicode="&#xe92e;" glyph-name="at-sign" d="M640 448c0-17.408-3.456-33.92-9.685-48.939-6.485-15.616-16-29.739-27.819-41.557s-25.941-21.333-41.557-27.819c-15.019-6.229-31.531-9.685-48.939-9.685s-33.92 3.456-48.939 9.685c-15.616 6.485-29.739 16-41.557 27.819s-21.333 25.941-27.819 41.557c-6.229 15.019-9.685 31.531-9.685 48.939s3.456 33.92 9.685 48.939c6.485 15.616 16 29.739 27.819 41.557s25.941 21.333 41.557 27.819c15.019 6.229 31.531 9.685 48.939 9.685s33.92-3.456 48.939-9.685c15.616-6.485 29.739-16 41.557-27.819s21.333-25.941 27.819-41.557c6.229-15.019 9.685-31.531 9.685-48.939zM671.573 306.432c5.547-7.765 11.691-15.061 18.389-21.76 15.701-15.701 34.475-28.373 55.381-37.035 20.224-8.363 42.283-12.971 65.323-12.971s45.099 4.608 65.28 12.928c20.907 8.661 39.68 21.333 55.381 37.035s28.373 34.475 37.035 55.381c8.363 20.224 12.971 42.283 12.971 65.323v42.667c0 63.488-12.629 124.16-35.584 179.499-23.808 57.472-58.667 109.141-101.931 152.363s-94.933 78.080-152.363 101.888c-55.339 22.912-116.011 35.541-179.499 35.541s-124.117-12.629-179.499-35.541c-57.429-23.808-109.099-58.667-152.363-101.931s-78.080-94.933-101.888-152.363c-22.912-55.381-35.541-116.011-35.541-179.499s12.629-124.16 35.584-179.499c23.808-57.472 58.667-109.141 101.931-152.363s94.933-78.080 152.363-101.888c55.339-22.912 116.011-35.541 179.499-35.541 53.12 0 104.235 8.832 151.851 25.088 48.853 16.683 93.952 41.088 133.632 71.723 18.645 14.379 22.101 41.173 7.723 59.861s-41.173 22.101-59.861 7.723c-32.299-24.96-69.12-44.885-109.013-58.496-38.869-13.269-80.683-20.523-124.288-20.523-52.096 0-101.675 10.325-146.859 29.056-46.976 19.456-89.259 47.957-124.715 83.413s-63.957 77.739-83.413 124.672c-18.731 45.099-29.099 94.677-29.099 146.773s10.325 101.632 29.056 146.816c19.456 46.976 47.957 89.259 83.413 124.715s77.739 63.957 124.672 83.413c45.184 18.731 94.763 29.056 146.816 29.056s101.675-10.325 146.859-29.056c46.976-19.456 89.259-47.957 124.715-83.413 35.456-35.413 63.957-77.739 83.413-124.672 18.688-45.141 29.056-94.72 29.056-146.816v-42.667c0-11.648-2.304-22.613-6.443-32.64-4.309-10.411-10.667-19.797-18.56-27.733-7.893-7.893-17.323-14.251-27.733-18.56-9.984-4.096-20.949-6.4-32.597-6.4s-22.613 2.304-32.64 6.443c-10.411 4.309-19.797 10.667-27.733 18.56-7.893 7.893-14.251 17.323-18.56 27.733-4.096 9.984-6.4 20.949-6.4 32.597v213.333c0 23.552-19.115 42.667-42.667 42.667s-42.667-19.115-42.667-42.667c-14.165 10.667-29.739 19.584-46.421 26.496-25.173 10.453-52.779 16.171-81.579 16.171s-56.405-5.717-81.579-16.171c-26.155-10.837-49.621-26.667-69.291-46.293s-35.499-43.136-46.293-69.248c-10.453-25.216-16.171-52.821-16.171-81.621s5.717-56.405 16.171-81.579c10.837-26.155 26.667-49.621 46.293-69.248s43.136-35.499 69.248-46.293c25.216-10.496 52.821-16.213 81.621-16.213s56.405 5.717 81.579 16.171c26.155 10.837 49.621 26.667 69.248 46.293 2.987 2.987 5.931 6.101 8.747 9.259z" />
<glyph unicode="&#xe92f;" glyph-name="award" d="M639.403 301.909l32-241.152-137.429 82.475c-13.269 7.851-29.995 8.363-43.904 0l-137.429-82.475 32.043 241.109c39.381-15.829 82.389-24.533 127.317-24.533 44.971 0 87.979 8.704 127.403 24.576zM654.123 405.717c-2.475-1.28-4.779-2.773-6.912-4.48-11.819-7.381-24.32-13.824-37.333-19.2-30.080-12.459-63.104-19.371-97.877-19.371s-67.797 6.912-97.877 19.371c-31.275 12.971-59.477 31.957-83.115 55.595s-42.667 51.84-55.595 83.115c-12.501 30.123-19.413 63.147-19.413 97.92s6.912 67.797 19.371 97.877c12.971 31.275 31.957 59.477 55.595 83.115s51.84 42.667 83.115 55.595c30.123 12.501 63.147 19.413 97.92 19.413s67.797-6.912 97.877-19.371c31.275-12.971 59.477-31.957 83.115-55.595s42.667-51.84 55.595-83.115c12.501-30.123 19.413-63.147 19.413-97.92s-6.912-67.797-19.371-97.877c-12.971-31.275-31.957-59.477-55.595-83.115-11.861-11.861-24.875-22.571-38.869-31.915zM304.64 347.52l-48.256-363.221c-3.115-23.339 13.312-44.8 36.693-47.915 9.984-1.323 19.669 0.939 27.563 5.717l191.36 114.816 191.403-114.816c20.224-12.117 46.421-5.589 58.539 14.635 5.205 8.661 6.955 18.389 5.717 27.563l-48.213 363.307c11.947 9.173 23.296 19.115 33.92 29.739 31.445 31.445 56.789 69.035 74.112 110.805 16.683 40.235 25.856 84.352 25.856 130.517s-9.173 90.283-25.856 130.56c-17.323 41.813-42.667 79.36-74.112 110.805s-69.035 56.789-110.805 74.112c-40.277 16.683-84.395 25.856-130.56 25.856s-90.283-9.173-130.56-25.856c-41.813-17.323-79.36-42.667-110.805-74.112s-56.789-69.035-74.112-110.805c-16.683-40.277-25.856-84.395-25.856-130.56s9.173-90.283 25.856-130.56c17.323-41.813 42.667-79.36 74.112-110.805 10.667-10.667 22.016-20.608 33.963-29.781z" />
<glyph unicode="&#xe930;" glyph-name="bar-chart-2" d="M810.667 106.667v426.667c0 23.552-19.115 42.667-42.667 42.667s-42.667-19.115-42.667-42.667v-426.667c0-23.552 19.115-42.667 42.667-42.667s42.667 19.115 42.667 42.667zM554.667 106.667v682.667c0 23.552-19.115 42.667-42.667 42.667s-42.667-19.115-42.667-42.667v-682.667c0-23.552 19.115-42.667 42.667-42.667s42.667 19.115 42.667 42.667zM298.667 106.667v256c0 23.552-19.115 42.667-42.667 42.667s-42.667-19.115-42.667-42.667v-256c0-23.552 19.115-42.667 42.667-42.667s42.667 19.115 42.667 42.667z" />
<glyph unicode="&#xe931;" glyph-name="bar-chart" d="M554.667 106.667v426.667c0 23.552-19.115 42.667-42.667 42.667s-42.667-19.115-42.667-42.667v-426.667c0-23.552 19.115-42.667 42.667-42.667s42.667 19.115 42.667 42.667zM810.667 106.667v682.667c0 23.552-19.115 42.667-42.667 42.667s-42.667-19.115-42.667-42.667v-682.667c0-23.552 19.115-42.667 42.667-42.667s42.667 19.115 42.667 42.667zM298.667 106.667v170.667c0 23.552-19.115 42.667-42.667 42.667s-42.667-19.115-42.667-42.667v-170.667c0-23.552 19.115-42.667 42.667-42.667s42.667 19.115 42.667 42.667z" />
<glyph unicode="&#xe932;" glyph-name="battery-charging" d="M213.333 234.667h-85.333c-5.845 0-11.349 1.152-16.299 3.2-5.205 2.133-9.899 5.333-13.867 9.301s-7.125 8.661-9.301 13.867c-2.048 4.949-3.2 10.453-3.2 16.299v341.333c0 5.845 1.152 11.349 3.2 16.299 2.133 5.205 5.333 9.899 9.301 13.867s8.661 7.125 13.867 9.301c4.949 2.048 10.453 3.2 16.299 3.2h136.107c23.552 0 42.667 19.115 42.667 42.667s-19.115 42.667-42.667 42.667h-136.107c-17.28 0-33.835-3.456-48.981-9.728-15.659-6.485-29.739-16-41.515-27.776s-21.291-25.856-27.776-41.515c-6.272-15.147-9.728-31.701-9.728-48.981v-341.333c0-17.28 3.456-33.835 9.728-48.981 6.485-15.701 16-29.781 27.776-41.557s25.856-21.291 41.557-27.776c15.104-6.229 31.659-9.685 48.939-9.685h85.333c23.552 0 42.667 19.115 42.667 42.667s-19.115 42.667-42.667 42.667zM640 661.333h85.333c5.845 0 11.349-1.152 16.299-3.2 5.205-2.133 9.899-5.333 13.867-9.301s7.125-8.661 9.301-13.867c2.048-4.949 3.2-10.453 3.2-16.299v-341.333c0-5.845-1.152-11.349-3.2-16.299-2.133-5.205-5.333-9.899-9.301-13.867s-8.661-7.125-13.867-9.301c-4.949-2.048-10.453-3.2-16.299-3.2h-136.107c-23.552 0-42.667-19.115-42.667-42.667s19.115-42.667 42.667-42.667h136.107c17.28 0 33.835 3.456 48.981 9.728 15.701 6.485 29.781 16 41.557 27.776s21.291 25.856 27.776 41.557c6.229 15.104 9.685 31.659 9.685 48.939v341.333c0 17.28-3.456 33.835-9.728 48.981-6.485 15.701-16 29.781-27.776 41.557s-25.856 21.291-41.557 27.776c-15.104 6.229-31.659 9.685-48.939 9.685h-85.333c-23.552 0-42.667-19.115-42.667-42.667s19.115-42.667 42.667-42.667zM1024 405.333v85.333c0 23.552-19.115 42.667-42.667 42.667s-42.667-19.115-42.667-42.667v-85.333c0-23.552 19.115-42.667 42.667-42.667s42.667 19.115 42.667 42.667zM433.835 727.68l-170.667-256c-13.056-19.627-7.765-46.080 11.819-59.179 7.339-4.907 15.659-7.211 23.68-7.168h176.256l-126.464-189.653c-13.056-19.627-7.765-46.080 11.819-59.179s46.080-7.765 59.179 11.819l170.667 256c4.523 6.656 7.211 14.848 7.211 23.68 0 23.552-19.115 42.667-42.667 42.667h-176.256l126.464 189.653c13.056 19.627 7.765 46.080-11.819 59.179s-46.080 7.765-59.179-11.819z" />
<glyph unicode="&#xe933;" glyph-name="battery" d="M128 746.667c-17.28 0-33.835-3.456-48.981-9.728-15.659-6.485-29.739-16-41.515-27.776s-21.291-25.856-27.776-41.515c-6.272-15.147-9.728-31.701-9.728-48.981v-341.333c0-17.28 3.456-33.835 9.728-48.981 6.485-15.701 16-29.781 27.776-41.557s25.856-21.291 41.557-27.776c15.104-6.229 31.659-9.685 48.939-9.685h597.333c17.28 0 33.835 3.456 48.981 9.728 15.701 6.485 29.781 16 41.557 27.776s21.291 25.856 27.776 41.557c6.229 15.104 9.685 31.659 9.685 48.939v341.333c0 17.28-3.456 33.835-9.728 48.981-6.485 15.701-16 29.781-27.776 41.557s-25.856 21.291-41.557 27.776c-15.104 6.229-31.659 9.685-48.939 9.685zM128 661.333h597.333c5.845 0 11.349-1.152 16.299-3.2 5.205-2.133 9.899-5.333 13.867-9.301s7.125-8.661 9.301-13.867c2.048-4.949 3.2-10.453 3.2-16.299v-341.333c0-5.845-1.152-11.349-3.2-16.299-2.133-5.205-5.333-9.899-9.301-13.867s-8.661-7.125-13.867-9.301c-4.949-2.048-10.453-3.2-16.299-3.2h-597.333c-5.845 0-11.349 1.152-16.299 3.2-5.205 2.133-9.899 5.333-13.867 9.301s-7.125 8.661-9.301 13.867c-2.048 4.949-3.2 10.453-3.2 16.299v341.333c0 5.845 1.152 11.349 3.2 16.299 2.133 5.205 5.333 9.899 9.301 13.867s8.661 7.125 13.867 9.301c4.949 2.048 10.453 3.2 16.299 3.2zM1024 405.333v85.333c0 23.552-19.115 42.667-42.667 42.667s-42.667-19.115-42.667-42.667v-85.333c0-23.552 19.115-42.667 42.667-42.667s42.667 19.115 42.667 42.667z" />
<glyph unicode="&#xe934;" glyph-name="bell-off" d="M548.907 85.419c-2.944-5.077-6.699-9.216-10.965-12.501-4.48-3.413-9.557-5.888-14.976-7.339s-11.093-1.835-16.64-1.067c-5.333 0.725-10.667 2.475-15.701 5.419-6.912 4.011-12.075 9.472-15.317 15.232-11.691 20.48-37.717 27.605-58.197 15.915s-27.605-37.717-15.915-58.197c10.667-18.731 26.581-35.115 46.635-46.763 14.933-8.661 30.976-13.995 47.232-16.171 16.853-2.261 33.792-1.109 49.877 3.2s31.36 11.691 44.885 22.016c13.013 9.941 24.32 22.571 32.981 37.461 11.819 20.395 4.864 46.507-15.488 58.325s-46.507 4.864-58.325-15.488zM810.667 618.795c0.043 40.32-7.936 78.848-22.485 114.048-15.104 36.608-37.248 69.504-64.683 97.067s-60.288 49.792-96.853 64.981c-35.243 14.635-73.813 22.741-114.176 22.784-61.781 0.085-119.424-18.645-166.4-50.347-19.541-13.141-24.704-39.68-11.52-59.221s39.723-24.661 59.264-11.477c33.109 22.357 74.112 35.797 118.528 35.755 28.971-0.043 56.491-5.845 81.536-16.256 26.069-10.837 49.536-26.709 69.205-46.464s35.499-43.264 46.251-69.333c10.283-24.96 15.957-52.309 16-81.109-1.792-70.741 7.381-148.309 28.373-225.152 6.229-22.741 29.653-36.139 52.395-29.909s36.139 29.653 29.909 52.395c-18.901 69.291-26.965 138.667-25.344 200.832 0 0.043 0 0.085 0 0.128 0 0.128 0 0.256 0 0.427 0 0.213 0 0.427 0 0.64 0 0.085 0 0.128 0 0.213zM298.496 601.131l323.84-323.797h-402.645c3.797 6.187 7.552 12.8 11.349 19.84 16.555 30.976 32.597 70.187 44.885 119.211 12.715 50.645 21.376 111.531 22.571 184.789zM12.501 887.168l207.189-207.189c-4.523-21.035-6.613-41.984-6.357-61.867 0-73.941-8.277-133.632-20.181-180.992-10.624-42.368-24.149-75.008-37.333-99.669-13.397-25.003-26.539-41.984-36.224-52.651-8.96-9.899-15.061-14.464-15.744-14.933-19.2-13.184-24.32-39.381-11.349-58.837 8.192-12.288 21.589-18.944 35.499-19.029h579.669l243.499-243.499c16.683-16.683 43.691-16.683 60.331 0s16.683 43.691 0 60.331l-938.667 938.667c-16.683 16.683-43.691 16.683-60.331 0-16.64-16.64-16.683-43.648 0-60.331z" />
<glyph unicode="&#xe935;" glyph-name="bell" d="M725.333 618.667c0-80.811 9.003-147.541 22.741-202.283 12.288-48.981 28.331-88.235 44.885-119.211 3.755-7.040 7.552-13.653 11.349-19.84h-584.619c3.797 6.187 7.552 12.8 11.349 19.84 16.555 30.976 32.597 70.187 44.885 119.211 13.739 54.741 22.741 121.472 22.741 202.283 0 28.971 5.76 56.491 16.128 81.579 10.795 26.069 26.667 49.579 46.336 69.291s43.221 35.541 69.291 46.336c25.088 10.368 52.608 16.128 81.579 16.128s56.491-5.76 81.579-16.128c26.069-10.795 49.579-26.624 69.291-46.336s35.541-43.221 46.336-69.291c10.368-25.088 16.128-52.608 16.128-81.579zM810.667 618.667c0 40.363-8.021 78.976-22.613 114.219-15.147 36.565-37.333 69.461-64.853 96.981s-60.373 49.707-96.981 64.853c-35.243 14.592-73.856 22.613-114.219 22.613s-78.976-8.021-114.219-22.613c-36.608-15.189-69.461-37.376-96.981-64.853s-49.664-60.373-64.853-96.981c-14.592-35.243-22.613-73.856-22.613-114.219 0-74.453-8.277-134.187-20.181-181.547-10.624-42.368-24.149-75.008-37.333-99.669-13.397-25.003-26.539-41.984-36.224-52.651-8.96-9.899-15.061-14.464-15.744-14.933-19.2-13.184-24.32-39.381-11.349-58.837 8.192-12.288 21.589-18.944 35.499-19.029h768c23.552 0 42.667 19.115 42.667 42.667 0 14.763-7.467 27.733-18.987 35.499 0.384-0.256-5.845 4.224-15.275 14.635-9.685 10.667-22.827 27.648-36.224 52.651-13.184 24.661-26.709 57.301-37.333 99.669-11.904 47.36-20.181 107.093-20.181 181.547zM548.907 85.419c-2.944-5.077-6.699-9.216-10.965-12.501-4.48-3.413-9.557-5.888-14.976-7.339s-11.093-1.835-16.64-1.067c-5.333 0.725-10.667 2.475-15.701 5.419-6.912 4.011-12.075 9.472-15.317 15.232-11.691 20.48-37.717 27.605-58.197 15.915s-27.605-37.717-15.915-58.197c10.667-18.731 26.581-35.115 46.635-46.763 14.933-8.661 30.976-13.995 47.232-16.171 16.853-2.261 33.792-1.109 49.877 3.2s31.36 11.691 44.885 22.016c13.013 9.941 24.32 22.571 32.981 37.461 11.819 20.395 4.864 46.507-15.488 58.325s-46.507 4.864-58.325-15.488z" />
<glyph unicode="&#xe936;" glyph-name="bluetooth" d="M554.667 550.997v263.339l131.669-131.669zM554.667 345.003l131.669-131.669-131.669-131.669zM247.168 652.501l204.501-204.501-204.501-204.501c-16.683-16.683-16.683-43.691 0-60.331s43.691-16.683 60.331 0l161.835 161.835v-366.336c0-10.923 4.181-21.845 12.501-30.165 16.683-16.683 43.691-16.683 60.331 0l234.667 234.667c16.683 16.683 16.683 43.691 0 60.331l-204.501 204.501 204.501 204.501c16.683 16.683 16.683 43.691 0 60.331l-234.667 234.667c-7.723 7.723-18.389 12.501-30.165 12.501-23.552 0-42.667-19.115-42.667-42.667v-366.336l-161.835 161.835c-16.683 16.683-43.691 16.683-60.331 0s-16.683-43.691 0-60.331z" />
<glyph unicode="&#xe937;" glyph-name="bold" d="M298.667 490.667v256h298.667c17.408 0 33.92-3.456 48.939-9.685 15.616-6.485 29.739-16 41.557-27.819s21.333-25.941 27.819-41.557c6.229-15.019 9.685-31.531 9.685-48.939s-3.456-33.92-9.685-48.939c-6.485-15.616-16-29.739-27.819-41.557s-25.941-21.333-41.557-27.819c-15.019-6.229-31.531-9.685-48.939-9.685zM213.333 448v-341.333c0-23.552 19.115-42.667 42.667-42.667h384c28.8 0 56.405 5.717 81.579 16.171 26.155 10.837 49.621 26.667 69.248 46.293s35.499 43.136 46.293 69.248c10.496 25.216 16.213 52.821 16.213 81.621s-5.717 56.405-16.171 81.579c-10.837 26.155-26.667 49.621-46.293 69.248-13.867 13.867-29.653 25.856-46.933 35.499 1.451 1.365 2.859 2.731 4.267 4.139 19.627 19.627 35.499 43.136 46.293 69.248 10.453 25.216 16.171 52.821 16.171 81.621s-5.717 56.405-16.171 81.579c-10.837 26.155-26.667 49.621-46.293 69.248s-43.136 35.499-69.248 46.293c-25.216 10.496-52.821 16.213-81.621 16.213h-341.333c-23.552 0-42.667-19.115-42.667-42.667zM298.667 405.333h341.333c17.408 0 33.92-3.456 48.939-9.685 15.616-6.485 29.739-16 41.557-27.819s21.333-25.941 27.819-41.557c6.229-15.019 9.685-31.531 9.685-48.939s-3.456-33.92-9.685-48.939c-6.485-15.616-16-29.739-27.819-41.557s-25.941-21.333-41.557-27.819c-15.019-6.229-31.531-9.685-48.939-9.685h-341.333z" />
<glyph unicode="&#xe938;" glyph-name="book-open" d="M896 789.333v-554.667h-256c-23.040 0-45.099-4.608-65.28-12.928-6.912-2.859-13.611-6.187-20.053-9.899v449.493c0 17.408 3.456 33.92 9.685 48.939 6.485 15.616 16 29.739 27.819 41.557s25.941 21.333 41.557 27.819c15.019 6.229 31.531 9.685 48.939 9.685zM469.333 211.84c-6.443 3.712-13.141 7.040-20.053 9.899-20.181 8.32-42.24 12.928-65.28 12.928h-256v554.667h213.333c17.408 0 33.92-3.456 48.939-9.685 15.616-6.485 29.739-16 41.557-27.819s21.333-25.941 27.819-41.557c6.229-15.019 9.685-31.531 9.685-48.939zM938.667 874.667h-256c-28.8 0-56.405-5.717-81.579-16.171-26.155-10.837-49.621-26.667-69.248-46.293-7.168-7.125-13.781-14.763-19.84-22.869-6.059 8.107-12.672 15.744-19.797 22.869-19.627 19.627-43.136 35.499-69.248 46.293-25.216 10.453-52.821 16.171-81.621 16.171h-256c-23.552 0-42.667-19.115-42.667-42.667v-640c0-23.552 19.115-42.667 42.667-42.667h298.667c11.648 0 22.613-2.304 32.64-6.443 10.411-4.309 19.797-10.667 27.733-18.56 7.893-7.893 14.251-17.323 18.56-27.733 4.096-9.984 6.4-20.949 6.4-32.597 0-23.552 19.115-42.667 42.667-42.667s42.667 19.115 42.667 42.667c0 11.648 2.304 22.613 6.443 32.64 4.309 10.411 10.667 19.797 18.56 27.733 7.893 7.893 17.323 14.251 27.733 18.56 9.984 4.096 20.949 6.4 32.597 6.4h298.667c23.552 0 42.667 19.115 42.667 42.667v640c0 23.552-19.115 42.667-42.667 42.667z" />
<glyph unicode="&#xe939;" glyph-name="book1" d="M277.333 917.333c-20.139 0-39.467-4.011-57.131-11.307-18.304-7.595-34.731-18.688-48.469-32.427s-24.832-30.165-32.427-48.469c-7.296-17.664-11.307-36.992-11.307-57.131v-640c0-20.139 4.011-39.467 11.307-57.131 7.595-18.304 18.688-34.731 32.427-48.469s30.165-24.832 48.469-32.427c17.664-7.296 36.992-11.307 57.131-11.307h576c23.552 0 42.667 19.115 42.667 42.667v853.333c0 23.552-19.115 42.667-42.667 42.667zM810.667 192v-128h-533.333c-8.747 0-16.981 1.749-24.448 4.821-7.808 3.243-14.848 7.979-20.779 13.909s-10.667 13.013-13.909 20.779c-3.115 7.509-4.864 15.744-4.864 24.491s1.749 16.981 4.821 24.448c3.243 7.808 7.979 14.848 13.909 20.779s13.013 10.667 20.779 13.909c7.509 3.115 15.744 4.864 24.491 4.864zM277.333 832h533.333v-554.667h-533.333c-20.139 0-39.467-4.011-57.131-11.307-2.304-0.981-4.608-2.005-6.869-3.072v505.045c0 8.747 1.749 16.981 4.821 24.448 3.243 7.808 7.979 14.891 13.909 20.821s13.013 10.667 20.779 13.909c7.509 3.072 15.744 4.821 24.491 4.821z" />
<glyph unicode="&#xe93a;" glyph-name="bookmark" d="M785.877 29.269c6.869-4.949 15.488-7.936 24.789-7.936 23.552 0 42.667 19.115 42.667 42.667v682.667c0 17.28-3.456 33.835-9.728 48.981-6.485 15.701-16 29.781-27.776 41.557s-25.856 21.291-41.557 27.776c-15.104 6.229-31.659 9.685-48.939 9.685h-426.667c-17.28 0-33.835-3.456-48.981-9.728-15.659-6.485-29.739-16-41.515-27.776s-21.291-25.856-27.776-41.515c-6.272-15.147-9.728-31.701-9.728-48.981v-682.667c-0.043-8.491 2.56-17.237 7.936-24.789 13.696-19.157 40.363-23.637 59.52-9.899l273.877 195.584zM768 146.901l-231.211 165.163c-15.147 10.837-34.944 10.325-49.579 0l-231.211-165.163v599.765c0 5.845 1.152 11.349 3.2 16.299 2.133 5.205 5.333 9.899 9.301 13.867s8.661 7.125 13.867 9.301c4.949 2.048 10.453 3.2 16.299 3.2h426.667c5.845 0 11.349-1.152 16.299-3.2 5.205-2.133 9.899-5.333 13.867-9.301s7.125-8.661 9.301-13.867c2.048-4.949 3.2-10.453 3.2-16.299z" />
<glyph unicode="&#xe93b;" glyph-name="box" d="M569.045 936.277c-8.96 4.437-18.176 7.723-27.648 9.984-14.293 3.371-29.184 4.352-44.075 2.645-14.421-1.664-28.715-5.803-42.411-12.587l-341.461-170.752c-16.469-8.32-30.891-19.968-42.325-34.133-9.045-11.136-16.256-23.851-21.12-37.675-4.779-13.44-7.339-27.776-7.339-42.667v-406.144c0-18.517 3.925-36.736 11.435-53.376 5.888-13.099 14.037-25.216 24.149-35.84 9.856-10.283 21.504-19.029 34.901-25.771l341.461-170.709c9.003-4.48 18.475-7.851 28.245-10.155 14.251-3.328 29.141-4.224 43.989-2.432 14.379 1.707 28.629 5.888 42.155 12.629l341.504 170.752c16.469 8.32 30.891 19.968 42.325 34.133 9.045 11.136 16.256 23.851 21.12 37.675 4.821 13.397 7.381 27.733 7.381 42.624v406.912c-0.128 18.432-4.181 36.565-11.733 53.12-5.973 13.056-14.165 25.131-24.363 35.669-9.899 10.197-21.632 18.901-34.816 25.472zM843.051 703.872l-331.051-165.504-331.051 165.547 312.149 156.075c4.523 2.261 9.259 3.584 13.952 4.139 4.907 0.555 9.856 0.256 14.677-0.896 3.2-0.768 6.357-1.877 9.131-3.243zM469.333 464.299v-417.024l-317.995 158.976c-4.395 2.219-8.235 5.12-11.435 8.448-3.328 3.456-6.016 7.467-8.021 11.904-2.517 5.632-3.883 11.861-3.883 18.261v390.059zM554.667 47.488v416.811l341.333 170.667v-390.485c0-5.035-0.853-9.771-2.432-14.123-1.621-4.523-3.968-8.747-7.040-12.501-3.883-4.779-8.789-8.789-14.507-11.648z" />
<glyph unicode="&#xe93c;" glyph-name="briefcase" d="M384 704v42.667c0 5.845 1.152 11.349 3.2 16.299 2.133 5.205 5.333 9.899 9.301 13.867s8.661 7.125 13.867 9.301c4.949 2.048 10.453 3.2 16.299 3.2h170.667c5.845 0 11.349-1.152 16.299-3.2 5.205-2.133 9.899-5.333 13.867-9.301s7.125-8.661 9.301-13.867c2.048-4.949 3.2-10.453 3.2-16.299v-42.667zM384 106.667v512h256v-512zM298.667 618.667v-512h-128c-5.845 0-11.349 1.152-16.299 3.2-5.205 2.133-9.899 5.333-13.867 9.301s-7.125 8.661-9.301 13.867c-2.048 4.949-3.2 10.453-3.2 16.299v426.667c0 5.845 1.152 11.349 3.2 16.299 2.133 5.205 5.333 9.899 9.301 13.867s8.661 7.125 13.867 9.301c4.949 2.048 10.453 3.2 16.299 3.2zM725.333 704v42.667c0 17.28-3.456 33.835-9.728 48.981-6.485 15.701-16 29.781-27.776 41.557s-25.856 21.291-41.557 27.776c-15.104 6.229-31.659 9.685-48.939 9.685h-170.667c-17.28 0-33.835-3.456-48.981-9.728-15.659-6.485-29.739-16-41.515-27.776s-21.291-25.856-27.776-41.515c-6.272-15.147-9.728-31.701-9.728-48.981v-42.667h-128c-17.28 0-33.835-3.456-48.981-9.728-15.659-6.485-29.739-16-41.515-27.776s-21.291-25.856-27.776-41.515c-6.272-15.147-9.728-31.701-9.728-48.981v-426.667c0-17.28 3.456-33.835 9.728-48.981 6.485-15.701 16-29.781 27.776-41.557s25.856-21.291 41.557-27.776c15.104-6.229 31.659-9.685 48.939-9.685h682.667c17.28 0 33.835 3.456 48.981 9.728 15.701 6.485 29.781 16 41.557 27.776s21.291 25.856 27.776 41.557c6.229 15.104 9.685 31.659 9.685 48.939v426.667c0 17.28-3.456 33.835-9.728 48.981-6.485 15.701-16 29.781-27.776 41.557s-25.856 21.291-41.557 27.776c-15.104 6.229-31.659 9.685-48.939 9.685zM725.333 106.667v512h128c5.845 0 11.349-1.152 16.299-3.2 5.205-2.133 9.899-5.333 13.867-9.301s7.125-8.661 9.301-13.867c2.048-4.949 3.2-10.453 3.2-16.299v-426.667c0-5.845-1.152-11.349-3.2-16.299-2.133-5.205-5.333-9.899-9.301-13.867s-8.661-7.125-13.867-9.301c-4.949-2.048-10.453-3.2-16.299-3.2z" />
<glyph unicode="&#xe93d;" glyph-name="calendar" d="M298.667 874.667v-42.667h-85.333c-17.28 0-33.835-3.456-48.981-9.728-15.659-6.485-29.739-16-41.515-27.776s-21.291-25.856-27.776-41.515c-6.272-15.147-9.728-31.701-9.728-48.981v-597.333c0-17.28 3.456-33.835 9.728-48.981 6.485-15.701 16-29.781 27.776-41.557s25.856-21.291 41.557-27.776c15.104-6.229 31.659-9.685 48.939-9.685h597.333c17.28 0 33.835 3.456 48.981 9.728 15.701 6.485 29.781 16 41.557 27.776s21.291 25.856 27.776 41.557c6.229 15.104 9.685 31.659 9.685 48.939v597.333c0 17.28-3.456 33.835-9.728 48.981-6.485 15.701-16 29.781-27.776 41.557s-25.856 21.291-41.557 27.776c-15.104 6.229-31.659 9.685-48.939 9.685h-85.333v42.667c0 23.552-19.115 42.667-42.667 42.667s-42.667-19.115-42.667-42.667v-42.667h-256v42.667c0 23.552-19.115 42.667-42.667 42.667s-42.667-19.115-42.667-42.667zM853.333 576h-682.667v128c0 5.845 1.152 11.349 3.2 16.299 2.133 5.205 5.333 9.899 9.301 13.867s8.661 7.125 13.867 9.301c4.949 2.048 10.453 3.2 16.299 3.2h85.333v-42.667c0-23.552 19.115-42.667 42.667-42.667s42.667 19.115 42.667 42.667v42.667h256v-42.667c0-23.552 19.115-42.667 42.667-42.667s42.667 19.115 42.667 42.667v42.667h85.333c5.845 0 11.349-1.152 16.299-3.2 5.205-2.133 9.899-5.333 13.867-9.301s7.125-8.661 9.301-13.867c2.048-4.949 3.2-10.453 3.2-16.299zM170.667 490.667h682.667v-384c0-5.845-1.152-11.349-3.2-16.299-2.133-5.205-5.333-9.899-9.301-13.867s-8.661-7.125-13.867-9.301c-4.949-2.048-10.453-3.2-16.299-3.2h-597.333c-5.845 0-11.349 1.152-16.299 3.2-5.205 2.133-9.899 5.333-13.867 9.301s-7.125 8.661-9.301 13.867c-2.048 4.949-3.2 10.453-3.2 16.299z" />
<glyph unicode="&#xe93e;" glyph-name="camera-off" d="M384 789.333h233.173l72.661-109.013c8.192-12.245 21.589-18.901 35.499-18.987h170.667c5.845 0 11.349-1.152 16.299-3.2 5.205-2.133 9.899-5.333 13.867-9.301s7.125-8.661 9.301-13.867c2.048-4.949 3.2-10.453 3.2-16.299v-398.507c0-23.552 19.115-42.667 42.667-42.667s42.667 19.115 42.667 42.667v398.507c0 17.28-3.456 33.835-9.728 48.981-6.485 15.701-16 29.781-27.776 41.557s-25.856 21.291-41.557 27.776c-15.104 6.229-31.659 9.685-48.939 9.685h-147.84l-72.661 109.013c-7.765 11.52-20.736 18.987-35.499 18.987h-256c-23.552 0-42.667-19.115-42.667-42.667s19.115-42.667 42.667-42.667zM352.512 547.157c-6.229-6.955-12.075-14.379-17.451-22.272-16.256-23.765-27.136-49.792-32.725-76.459-5.845-27.691-6.016-56.021-0.896-83.328s15.531-53.632 31.019-77.312c14.891-22.827 34.432-43.136 58.197-59.435 23.765-16.256 49.792-27.136 76.459-32.725 27.691-5.845 56.021-6.016 83.328-0.896s53.632 15.531 77.312 31.019c9.131 5.973 17.877 12.672 26.112 20.096l139.136-139.179h-665.003c-5.845 0-11.349 1.152-16.299 3.2-5.205 2.133-9.899 5.333-13.867 9.301s-7.125 8.661-9.301 13.867c-2.048 4.949-3.2 10.453-3.2 16.299v469.333c0 5.845 1.152 11.349 3.2 16.299 2.133 5.205 5.333 9.899 9.301 13.867s8.661 7.125 13.867 9.301c4.949 2.048 10.453 3.2 16.299 3.2h110.336zM444.288 576.085l-371.456 371.413c-16.683 16.683-43.691 16.683-60.331 0-16.64-16.64-16.683-43.648 0-60.331l140.501-140.501h-25.003c-17.28 0-33.835-3.456-48.981-9.728-15.659-6.485-29.739-16-41.515-27.776s-21.291-25.856-27.776-41.515c-6.272-15.147-9.728-31.701-9.728-48.981v-469.333c0-17.28 3.456-33.835 9.728-48.981 6.485-15.701 16-29.781 27.776-41.557s25.856-21.291 41.557-27.776c15.104-6.229 31.659-9.685 48.939-9.685h750.336l72.832-72.832c16.683-16.683 43.691-16.683 60.331 0s16.683 43.691 0 60.331l-566.059 566.059zM593.365 306.304c-3.925-3.285-8.021-6.315-12.245-9.088-14.165-9.259-29.995-15.531-46.421-18.603s-33.451-2.944-50.005 0.512c-15.915 3.328-31.488 9.813-45.867 19.669s-26.027 22.016-34.944 35.627c-9.216 14.165-15.531 29.995-18.603 46.421s-2.944 33.451 0.512 50.005c3.328 15.915 9.813 31.488 19.669 45.867 2.389 3.499 4.907 6.827 7.509 9.941z" />
<glyph unicode="&#xe93f;" glyph-name="camera" d="M1024 149.333v469.333c0 17.28-3.456 33.835-9.728 48.981-6.485 15.701-16 29.781-27.776 41.557s-25.856 21.291-41.557 27.776c-15.104 6.229-31.659 9.685-48.939 9.685h-147.84l-72.661 109.013c-7.765 11.52-20.736 18.987-35.499 18.987h-256c-13.909-0.085-27.307-6.741-35.499-18.987l-72.661-109.013h-147.84c-17.28 0-33.835-3.456-48.981-9.728-15.659-6.485-29.739-16-41.515-27.776s-21.291-25.856-27.776-41.515c-6.272-15.147-9.728-31.701-9.728-48.981v-469.333c0-17.28 3.456-33.835 9.728-48.981 6.485-15.701 16-29.781 27.776-41.557s25.856-21.291 41.557-27.776c15.104-6.229 31.659-9.685 48.939-9.685h768c17.28 0 33.835 3.456 48.981 9.728 15.701 6.485 29.781 16 41.557 27.776s21.291 25.856 27.776 41.557c6.229 15.104 9.685 31.659 9.685 48.939zM938.667 149.333c0-5.845-1.152-11.349-3.2-16.299-2.133-5.205-5.333-9.899-9.301-13.867s-8.661-7.125-13.867-9.301c-4.949-2.048-10.453-3.2-16.299-3.2h-768c-5.845 0-11.349 1.152-16.299 3.2-5.205 2.133-9.899 5.333-13.867 9.301s-7.125 8.661-9.301 13.867c-2.048 4.949-3.2 10.453-3.2 16.299v469.333c0 5.845 1.152 11.349 3.2 16.299 2.133 5.205 5.333 9.899 9.301 13.867s8.661 7.125 13.867 9.301c4.949 2.048 10.453 3.2 16.299 3.2h170.667c14.763 0 27.733 7.467 35.499 18.987l72.661 109.013h210.347l72.661-109.013c8.192-12.245 21.589-18.901 35.499-18.987h170.667c5.845 0 11.349-1.152 16.299-3.2 5.205-2.133 9.899-5.333 13.867-9.301s7.125-8.661 9.301-13.867c2.048-4.949 3.2-10.453 3.2-16.299zM725.333 405.333c0 28.8-5.717 56.405-16.171 81.579-10.837 26.155-26.667 49.621-46.293 69.248s-43.136 35.499-69.248 46.293c-25.216 10.496-52.821 16.213-81.621 16.213s-56.405-5.717-81.579-16.171c-26.155-10.837-49.621-26.667-69.291-46.293s-35.499-43.136-46.293-69.248c-10.453-25.216-16.171-52.821-16.171-81.621s5.717-56.405 16.171-81.579c10.837-26.155 26.667-49.621 46.293-69.248s43.136-35.499 69.248-46.293c25.216-10.496 52.821-16.213 81.621-16.213s56.405 5.717 81.579 16.171c26.155 10.837 49.621 26.667 69.248 46.293s35.499 43.136 46.293 69.248c10.496 25.216 16.213 52.821 16.213 81.621zM640 405.333c0-17.408-3.456-33.92-9.685-48.939-6.485-15.616-16-29.739-27.819-41.557s-25.941-21.333-41.557-27.819c-15.019-6.229-31.531-9.685-48.939-9.685s-33.92 3.456-48.939 9.685c-15.616 6.485-29.739 16-41.557 27.819s-21.333 25.941-27.819 41.557c-6.229 15.019-9.685 31.531-9.685 48.939s3.456 33.92 9.685 48.939c6.485 15.616 16 29.739 27.819 41.557s25.941 21.333 41.557 27.819c15.019 6.229 31.531 9.685 48.939 9.685s33.92-3.456 48.939-9.685c15.616-6.485 29.739-16 41.557-27.819s21.333-25.941 27.819-41.557c6.229-15.019 9.685-31.531 9.685-48.939z" />
<glyph unicode="&#xe940;" glyph-name="cast" d="M76.8 231.253c19.755-4.011 37.888-11.264 54.101-21.077 16.725-10.112 31.488-23.040 43.691-38.059 17.28-21.205 29.568-46.635 35.371-74.24 4.864-23.040 27.477-37.803 50.56-32.939s37.803 27.477 32.939 50.56c-8.619 40.96-26.837 78.805-52.693 110.507-18.304 22.485-40.448 41.899-65.707 57.173-24.448 14.805-51.755 25.685-81.195 31.701-23.083 4.693-45.611-10.197-50.347-33.28s10.197-45.611 33.28-50.347zM80.597 403.456c42.027-4.693 81.323-16.768 116.821-34.816 36.693-18.688 69.376-43.819 96.811-73.813 47.744-52.309 79.317-119.424 87.936-193.109 2.731-23.424 23.936-40.149 47.317-37.419s40.149 23.936 37.419 47.317c-10.709 91.733-50.091 175.445-109.653 240.725-34.219 37.461-75.093 68.907-121.088 92.331-44.501 22.656-93.739 37.76-146.091 43.605-23.424 2.603-44.501-14.251-47.104-37.675s14.251-44.501 37.675-47.104zM128 618.667v85.333c0 5.845 1.152 11.349 3.2 16.299 2.133 5.205 5.333 9.899 9.301 13.867s8.661 7.125 13.867 9.301c4.949 2.048 10.453 3.2 16.299 3.2h682.667c5.845 0 11.349-1.152 16.299-3.2 5.205-2.133 9.899-5.333 13.867-9.301s7.125-8.661 9.301-13.867c2.048-4.949 3.2-10.453 3.2-16.299v-512c0-5.845-1.152-11.349-3.2-16.299-2.133-5.205-5.333-9.899-9.301-13.867s-8.661-7.125-13.867-9.301c-4.949-2.048-10.453-3.2-16.299-3.2h-256c-23.552 0-42.667-19.115-42.667-42.667s19.115-42.667 42.667-42.667h256c17.28 0 33.835 3.456 48.981 9.728 15.701 6.485 29.781 16 41.557 27.776s21.291 25.856 27.776 41.557c6.229 15.104 9.685 31.659 9.685 48.939v512c0 17.28-3.456 33.835-9.728 48.981-6.485 15.701-16 29.781-27.776 41.557s-25.856 21.291-41.557 27.776c-15.104 6.229-31.659 9.685-48.939 9.685h-682.667c-17.28 0-33.835-3.456-48.981-9.728-15.659-6.485-29.739-16-41.515-27.776s-21.291-25.856-27.776-41.515c-6.272-15.147-9.728-31.701-9.728-48.981v-85.333c0-23.552 19.115-42.667 42.667-42.667s42.667 19.115 42.667 42.667zM128 106.667c0 23.552-19.115 42.667-42.667 42.667s-42.667-19.115-42.667-42.667 19.115-42.667 42.667-42.667 42.667 19.115 42.667 42.667z" />
<glyph unicode="&#xe941;" glyph-name="check-circle" d="M896 487.253v-39.253c-0.043-52.053-10.411-101.632-29.141-146.816-19.456-46.933-48.043-89.216-83.499-124.629s-77.781-63.915-124.757-83.328c-45.184-18.688-94.763-29.013-146.859-28.971s-101.632 10.411-146.816 29.141c-46.933 19.456-89.216 48.043-124.629 83.499s-63.915 77.781-83.328 124.757c-18.688 45.141-29.013 94.72-28.971 146.816s10.411 101.632 29.141 146.816c19.456 46.933 48.043 89.216 83.499 124.629s77.781 63.915 124.757 83.328c45.184 18.688 94.763 29.013 146.859 28.971 56.747-0.043 110.336-12.331 155.691-33.067 21.419-9.813 46.763-0.341 56.533 21.077s0.341 46.763-21.077 56.533c-56.619 25.856-122.283 40.747-191.104 40.789-63.488 0.043-124.16-12.544-179.499-35.456-57.515-23.723-109.227-58.581-152.491-101.803s-78.165-94.848-101.973-152.32c-22.955-55.339-35.627-115.968-35.669-179.456s12.544-124.16 35.456-179.499c23.765-57.472 58.624-109.184 101.803-152.448s94.848-78.165 152.32-101.973c55.339-22.955 115.968-35.627 179.456-35.669s124.16 12.544 179.499 35.456c57.472 23.765 109.184 58.624 152.448 101.803 43.264 43.221 78.165 94.848 101.973 152.32 22.997 55.339 35.669 115.968 35.712 179.499v39.253c0 23.552-19.115 42.667-42.667 42.667s-42.667-19.115-42.667-42.667zM908.501 819.499l-396.501-396.885-97.835 97.792c-16.683 16.683-43.691 16.683-60.331 0s-16.683-43.691 0-60.331l128-128c16.683-16.683 43.691-16.64 60.373 0l426.667 427.093c16.64 16.683 16.64 43.691-0.043 60.331s-43.691 16.64-60.331-0.043z" />
<glyph unicode="&#xe942;" glyph-name="check-square" d="M353.835 460.501l128-128c16.683-16.683 43.691-16.683 60.331 0l426.667 426.667c16.683 16.683 16.683 43.691 0 60.331s-43.691 16.683-60.331 0l-396.501-396.501-97.835 97.835c-16.683 16.683-43.691 16.683-60.331 0s-16.683-43.691 0-60.331zM853.333 448v-298.667c0-5.845-1.152-11.349-3.2-16.299-2.133-5.205-5.333-9.899-9.301-13.867s-8.661-7.125-13.867-9.301c-4.949-2.048-10.453-3.2-16.299-3.2h-597.333c-5.845 0-11.349 1.152-16.299 3.2-5.205 2.133-9.899 5.333-13.867 9.301s-7.125 8.661-9.301 13.867c-2.048 4.949-3.2 10.453-3.2 16.299v597.333c0 5.845 1.152 11.349 3.2 16.299 2.133 5.205 5.333 9.899 9.301 13.867s8.661 7.125 13.867 9.301c4.949 2.048 10.453 3.2 16.299 3.2h469.333c23.552 0 42.667 19.115 42.667 42.667s-19.115 42.667-42.667 42.667h-469.333c-17.28 0-33.835-3.456-48.981-9.728-15.659-6.485-29.739-16-41.515-27.776s-21.291-25.856-27.776-41.515c-6.272-15.147-9.728-31.701-9.728-48.981v-597.333c0-17.28 3.456-33.835 9.728-48.981 6.485-15.701 16-29.781 27.776-41.557s25.856-21.291 41.557-27.776c15.104-6.229 31.659-9.685 48.939-9.685h597.333c17.28 0 33.835 3.456 48.981 9.728 15.701 6.485 29.781 16 41.557 27.776s21.291 25.856 27.776 41.557c6.229 15.104 9.685 31.659 9.685 48.939v298.667c0 23.552-19.115 42.667-42.667 42.667s-42.667-19.115-42.667-42.667z" />
<glyph unicode="&#xe943;" glyph-name="check" d="M823.168 734.165l-439.168-439.168-183.168 183.168c-16.683 16.683-43.691 16.683-60.331 0s-16.683-43.691 0-60.331l213.333-213.333c16.683-16.683 43.691-16.683 60.331 0l469.333 469.333c16.683 16.683 16.683 43.691 0 60.331s-43.691 16.683-60.331 0z" />
<glyph unicode="&#xe944;" glyph-name="chevron-down" d="M225.835 545.835l256-256c16.683-16.683 43.691-16.683 60.331 0l256 256c16.683 16.683 16.683 43.691 0 60.331s-43.691 16.683-60.331 0l-225.835-225.835-225.835 225.835c-16.683 16.683-43.691 16.683-60.331 0s-16.683-43.691 0-60.331z" />
<glyph unicode="&#xe945;" glyph-name="chevron-left" d="M670.165 222.165l-225.835 225.835 225.835 225.835c16.683 16.683 16.683 43.691 0 60.331s-43.691 16.683-60.331 0l-256-256c-16.683-16.683-16.683-43.691 0-60.331l256-256c16.683-16.683 43.691-16.683 60.331 0s16.683 43.691 0 60.331z" />
<glyph unicode="&#xe946;" glyph-name="chevron-right" d="M414.165 161.835l256 256c16.683 16.683 16.683 43.691 0 60.331l-256 256c-16.683 16.683-43.691 16.683-60.331 0s-16.683-43.691 0-60.331l225.835-225.835-225.835-225.835c-16.683-16.683-16.683-43.691 0-60.331s43.691-16.683 60.331 0z" />
<glyph unicode="&#xe947;" glyph-name="chevron-up" d="M798.165 350.165l-256 256c-16.683 16.683-43.691 16.683-60.331 0l-256-256c-16.683-16.683-16.683-43.691 0-60.331s43.691-16.683 60.331 0l225.835 225.835 225.835-225.835c16.683-16.683 43.691-16.683 60.331 0s16.683 43.691 0 60.331z" />
<glyph unicode="&#xe948;" glyph-name="chevrons-down" d="M268.501 375.168l213.333-213.333c16.683-16.683 43.691-16.683 60.331 0l213.333 213.333c16.683 16.683 16.683 43.691 0 60.331s-43.691 16.683-60.331 0l-183.168-183.168-183.168 183.168c-16.683 16.683-43.691 16.683-60.331 0s-16.683-43.691 0-60.331zM268.501 673.835l213.333-213.333c16.683-16.683 43.691-16.683 60.331 0l213.333 213.333c16.683 16.683 16.683 43.691 0 60.331s-43.691 16.683-60.331 0l-183.168-183.168-183.168 183.168c-16.683 16.683-43.691 16.683-60.331 0s-16.683-43.691 0-60.331z" />
<glyph unicode="&#xe949;" glyph-name="chevrons-left" d="M499.499 264.832l-183.168 183.168 183.168 183.168c16.683 16.683 16.683 43.691 0 60.331s-43.691 16.683-60.331 0l-213.333-213.333c-16.683-16.683-16.683-43.691 0-60.331l213.333-213.333c16.683-16.683 43.691-16.683 60.331 0s16.683 43.691 0 60.331zM798.165 264.832l-183.168 183.168 183.168 183.168c16.683 16.683 16.683 43.691 0 60.331s-43.691 16.683-60.331 0l-213.333-213.333c-16.683-16.683-16.683-43.691 0-60.331l213.333-213.333c16.683-16.683 43.691-16.683 60.331 0s16.683 43.691 0 60.331z" />
<glyph unicode="&#xe94a;" glyph-name="chevrons-right" d="M584.832 204.501l213.333 213.333c16.683 16.683 16.683 43.691 0 60.331l-213.333 213.333c-16.683 16.683-43.691 16.683-60.331 0s-16.683-43.691 0-60.331l183.168-183.168-183.168-183.168c-16.683-16.683-16.683-43.691 0-60.331s43.691-16.683 60.331 0zM286.165 204.501l213.333 213.333c16.683 16.683 16.683 43.691 0 60.331l-213.333 213.333c-16.683 16.683-43.691 16.683-60.331 0s-16.683-43.691 0-60.331l183.168-183.168-183.168-183.168c-16.683-16.683-16.683-43.691 0-60.331s43.691-16.683 60.331 0z" />
<glyph unicode="&#xe94b;" glyph-name="chevrons-up" d="M755.499 520.832l-213.333 213.333c-16.683 16.683-43.691 16.683-60.331 0l-213.333-213.333c-16.683-16.683-16.683-43.691 0-60.331s43.691-16.683 60.331 0l183.168 183.168 183.168-183.168c16.683-16.683 43.691-16.683 60.331 0s16.683 43.691 0 60.331zM755.499 222.165l-213.333 213.333c-16.683 16.683-43.691 16.683-60.331 0l-213.333-213.333c-16.683-16.683-16.683-43.691 0-60.331s43.691-16.683 60.331 0l183.168 183.168 183.168-183.168c16.683-16.683 43.691-16.683 60.331 0s16.683 43.691 0 60.331z" />
<glyph unicode="&#xe94c;" glyph-name="chrome" d="M315.819 531.925l-95.744 165.589c6.485 7.595 13.312 14.933 20.395 22.016 35.456 35.456 77.739 63.957 124.672 83.413 45.184 18.688 94.763 29.056 146.859 29.056s101.675-10.368 146.859-29.056c46.976-19.456 89.259-47.957 124.672-83.413 17.749-17.749 33.792-37.248 47.829-58.197h-319.36c-28.8 0-56.405-5.717-81.579-16.171-26.155-10.837-49.621-26.667-69.248-46.293-19.072-19.072-34.56-41.728-45.355-66.944zM456.491-18.091c1.963-0.384 3.968-0.597 5.973-0.683 16.299-1.664 32.811-2.56 49.536-2.56 63.488 0 124.16 12.629 179.499 35.541 57.472 23.808 109.141 58.667 152.363 101.888s78.123 94.891 101.888 152.363c22.955 55.381 35.584 116.053 35.584 179.541s-12.629 124.16-35.541 179.499c-0.768 1.835-1.536 3.669-2.304 5.504-0.683 1.835-1.451 3.669-2.347 5.376-23.595 53.12-56.747 100.992-97.237 141.483-43.221 43.221-94.891 78.123-152.363 101.888-55.381 22.955-116.053 35.584-179.541 35.584s-124.16-12.629-179.499-35.541c-57.472-23.808-109.141-58.667-152.363-101.931-15.616-15.616-30.123-32.299-43.435-49.963-1.749-2.005-3.328-4.096-4.693-6.357-21.461-29.568-39.595-61.781-53.803-96.043-22.912-55.339-35.541-116.011-35.541-179.499s12.629-124.16 35.541-179.499c23.808-57.472 58.667-109.141 101.888-152.363s94.891-78.123 152.363-101.888c38.997-16.128 80.597-27.179 123.989-32.299zM537.387 236.16l-95.616-165.76c-26.624 4.907-52.267 12.587-76.629 22.656-46.976 19.456-89.259 47.957-124.672 83.413-35.456 35.456-63.957 77.739-83.413 124.672-18.688 45.184-29.056 94.763-29.056 146.859s10.368 101.675 29.056 146.859c3.243 7.808 6.741 15.531 10.453 23.083l155.477-268.928c10.069-19.243 22.997-36.693 38.187-51.883 19.627-19.627 43.136-35.499 69.248-46.293 25.173-10.453 52.779-16.171 81.579-16.171 8.576 0 17.067 0.512 25.387 1.493zM624.512 386.944c-0.64-0.939-1.28-1.92-1.877-2.944l-3.243-5.589c-4.907-7.552-10.581-14.549-16.939-20.907-11.819-11.819-25.941-21.333-41.557-27.819-14.976-6.229-31.488-9.685-48.896-9.685s-33.92 3.456-48.939 9.685c-15.616 6.485-29.739 16-41.557 27.819-7.083 7.083-13.355 14.976-18.603 23.552-0.469 1.024-1.024 2.005-1.579 2.987l-3.456 6.016c-1.493 2.944-2.901 5.973-4.181 9.045-6.229 14.976-9.685 31.488-9.685 48.896s3.456 33.92 9.685 48.939c6.485 15.616 16 29.739 27.819 41.557s25.941 21.333 41.557 27.819c15.019 6.229 31.531 9.685 48.939 9.685s33.92-3.456 48.939-9.685c15.616-6.485 29.739-16 41.557-27.819s21.333-25.941 27.819-41.557c6.229-15.019 9.685-31.531 9.685-48.939s-3.456-33.92-9.685-48.939c-1.707-4.139-3.669-8.192-5.803-12.117zM537.088 64.811l155.307 269.227c6.485 10.24 12.117 21.035 16.811 32.384 10.411 25.173 16.128 52.779 16.128 81.579s-5.717 56.405-16.171 81.579c-6.912 16.683-15.829 32.256-26.496 46.421h191.488c14.123-39.979 21.845-83.072 21.845-128 0-52.096-10.368-101.675-29.056-146.859-19.456-46.976-47.957-89.259-83.413-124.672s-77.739-63.957-124.672-83.413c-37.888-15.701-78.848-25.515-121.771-28.245z" />
<glyph unicode="&#xe94d;" glyph-name="circle" d="M981.333 448c0 63.488-12.629 124.16-35.541 179.499-23.808 57.472-58.667 109.141-101.888 152.363s-94.891 78.123-152.363 101.888c-55.381 22.955-116.053 35.584-179.541 35.584s-124.16-12.629-179.499-35.541c-57.472-23.808-109.141-58.667-152.363-101.931s-78.123-94.891-101.931-152.363c-22.912-55.339-35.541-116.011-35.541-179.499s12.629-124.16 35.541-179.499c23.808-57.472 58.667-109.141 101.888-152.363s94.891-78.123 152.363-101.888c55.381-22.955 116.053-35.584 179.541-35.584s124.16 12.629 179.499 35.541c57.472 23.808 109.141 58.667 152.363 101.888s78.123 94.891 101.888 152.363c22.955 55.381 35.584 116.053 35.584 179.541zM896 448c0-52.096-10.368-101.675-29.056-146.859-19.456-46.976-47.957-89.259-83.413-124.672s-77.739-63.957-124.672-83.413c-45.184-18.688-94.763-29.056-146.859-29.056s-101.675 10.368-146.859 29.056c-46.976 19.456-89.259 47.957-124.672 83.413-35.456 35.456-63.957 77.739-83.413 124.672-18.688 45.184-29.056 94.763-29.056 146.859s10.368 101.675 29.056 146.859c19.456 46.976 47.957 89.259 83.413 124.672s77.739 63.957 124.672 83.413c45.184 18.688 94.763 29.056 146.859 29.056s101.675-10.368 146.859-29.056c46.976-19.456 89.259-47.957 124.672-83.413 35.456-35.456 63.957-77.739 83.413-124.672 18.688-45.184 29.056-94.763 29.056-146.859z" />
<glyph unicode="&#xe94e;" glyph-name="clipboard" d="M298.667 746.667c0-11.477 2.304-22.528 6.485-32.64 4.352-10.496 10.667-19.84 18.517-27.691s17.237-14.165 27.691-18.517c10.112-4.181 21.163-6.485 32.64-6.485h256c11.477 0 22.528 2.304 32.64 6.485 10.496 4.352 19.84 10.667 27.691 18.517s14.165 17.237 18.517 27.691c4.181 10.112 6.485 21.163 6.485 32.64h42.667c5.845 0 11.349-1.152 16.299-3.2 5.205-2.133 9.899-5.333 13.867-9.301s7.125-8.661 9.301-13.867c2.048-4.949 3.2-10.453 3.2-16.299v-597.333c0-5.845-1.152-11.349-3.2-16.299-2.133-5.205-5.333-9.899-9.301-13.867s-8.661-7.125-13.867-9.301c-4.949-2.048-10.453-3.2-16.299-3.2h-512c-5.845 0-11.349 1.152-16.299 3.2-5.205 2.133-9.899 5.333-13.867 9.301s-7.125 8.661-9.301 13.867c-2.048 4.949-3.2 10.453-3.2 16.299v597.333c0 5.845 1.152 11.349 3.2 16.299 2.133 5.205 5.333 9.899 9.301 13.867s8.661 7.125 13.867 9.301c4.949 2.048 10.453 3.2 16.299 3.2zM384 917.333c-11.477 0-22.528-2.304-32.64-6.485-10.496-4.352-19.883-10.667-27.691-18.517s-14.165-17.195-18.517-27.691c-4.181-10.112-6.485-21.163-6.485-32.64h-42.667c-17.28 0-33.835-3.456-48.981-9.728-15.659-6.485-29.739-16-41.515-27.776s-21.291-25.856-27.776-41.515c-6.272-15.147-9.728-31.701-9.728-48.981v-597.333c0-17.28 3.456-33.835 9.728-48.981 6.485-15.701 16-29.781 27.776-41.557s25.856-21.291 41.557-27.776c15.104-6.229 31.659-9.685 48.939-9.685h512c17.28 0 33.835 3.456 48.981 9.728 15.701 6.485 29.781 16 41.557 27.776s21.291 25.856 27.776 41.557c6.229 15.104 9.685 31.659 9.685 48.939v597.333c0 17.28-3.456 33.835-9.728 48.981-6.485 15.701-16 29.781-27.776 41.557s-25.856 21.291-41.557 27.776c-15.104 6.229-31.659 9.685-48.939 9.685h-42.667c0 11.477-2.304 22.528-6.485 32.64-4.352 10.496-10.667 19.84-18.517 27.691s-17.237 14.165-27.691 18.517c-10.112 4.181-21.163 6.485-32.64 6.485zM384 832h256v-85.333h-256z" />
</font>
</defs>
</svg>
